<mxfile host="Electron" modified="2024-07-03T20:00:25.995Z" agent="Mozilla/5.0 (Windows NT 10.0; Win64; x64) AppleWebKit/537.36 (KHTML, like Gecko) draw.io/24.6.1 Chrome/124.0.6367.207 Electron/30.0.6 Safari/537.36" etag="UV1QnM7kov4uZPe7G3J8" version="24.6.1" type="device">
  <diagram name="Page-1" id="OOWbRKoUnhNHBebO3xgw">
    <mxGraphModel dx="1858" dy="1686" grid="1" gridSize="10" guides="1" tooltips="1" connect="1" arrows="1" fold="1" page="1" pageScale="1" pageWidth="850" pageHeight="1100" math="0" shadow="0">
      <root>
        <mxCell id="0" />
        <mxCell id="1" parent="0" />
        <mxCell id="eUxJNlt0HOpgg095ER0J-3" style="edgeStyle=orthogonalEdgeStyle;rounded=0;orthogonalLoop=1;jettySize=auto;html=1;entryX=0;entryY=0.5;entryDx=0;entryDy=0;" parent="1" source="eUxJNlt0HOpgg095ER0J-1" target="eUxJNlt0HOpgg095ER0J-2" edge="1">
          <mxGeometry relative="1" as="geometry" />
        </mxCell>
        <mxCell id="eUxJNlt0HOpgg095ER0J-4" style="edgeStyle=orthogonalEdgeStyle;rounded=0;orthogonalLoop=1;jettySize=auto;html=1;exitX=1;exitY=0.5;exitDx=0;exitDy=0;entryX=0;entryY=0.25;entryDx=0;entryDy=0;" parent="1" source="eUxJNlt0HOpgg095ER0J-1" target="eUxJNlt0HOpgg095ER0J-2" edge="1">
          <mxGeometry relative="1" as="geometry" />
        </mxCell>
        <mxCell id="eUxJNlt0HOpgg095ER0J-5" style="edgeStyle=orthogonalEdgeStyle;rounded=0;orthogonalLoop=1;jettySize=auto;html=1;exitX=1;exitY=0.5;exitDx=0;exitDy=0;entryX=0;entryY=0.75;entryDx=0;entryDy=0;" parent="1" source="eUxJNlt0HOpgg095ER0J-1" target="eUxJNlt0HOpgg095ER0J-2" edge="1">
          <mxGeometry relative="1" as="geometry" />
        </mxCell>
        <mxCell id="eUxJNlt0HOpgg095ER0J-6" style="edgeStyle=orthogonalEdgeStyle;rounded=0;orthogonalLoop=1;jettySize=auto;html=1;exitX=1;exitY=0.5;exitDx=0;exitDy=0;entryX=0;entryY=0;entryDx=0;entryDy=0;" parent="1" source="eUxJNlt0HOpgg095ER0J-1" target="eUxJNlt0HOpgg095ER0J-2" edge="1">
          <mxGeometry relative="1" as="geometry">
            <Array as="points">
              <mxPoint x="853" y="-539" />
              <mxPoint x="853" y="-584" />
            </Array>
          </mxGeometry>
        </mxCell>
        <mxCell id="eUxJNlt0HOpgg095ER0J-1" value="" style="ellipse;whiteSpace=wrap;html=1;aspect=fixed;" parent="1" vertex="1">
          <mxGeometry x="765" y="-569" width="60" height="60" as="geometry" />
        </mxCell>
        <mxCell id="eUxJNlt0HOpgg095ER0J-8" style="edgeStyle=orthogonalEdgeStyle;rounded=0;orthogonalLoop=1;jettySize=auto;html=1;exitX=1;exitY=0;exitDx=0;exitDy=0;entryX=0;entryY=0.5;entryDx=0;entryDy=0;" parent="1" source="eUxJNlt0HOpgg095ER0J-2" target="eUxJNlt0HOpgg095ER0J-7" edge="1">
          <mxGeometry relative="1" as="geometry">
            <Array as="points">
              <mxPoint x="928" y="-584" />
              <mxPoint x="928" y="-539" />
            </Array>
          </mxGeometry>
        </mxCell>
        <mxCell id="eUxJNlt0HOpgg095ER0J-9" style="edgeStyle=orthogonalEdgeStyle;rounded=0;orthogonalLoop=1;jettySize=auto;html=1;exitX=1;exitY=0.25;exitDx=0;exitDy=0;entryX=0;entryY=0.5;entryDx=0;entryDy=0;" parent="1" source="eUxJNlt0HOpgg095ER0J-2" target="eUxJNlt0HOpgg095ER0J-7" edge="1">
          <mxGeometry relative="1" as="geometry" />
        </mxCell>
        <mxCell id="eUxJNlt0HOpgg095ER0J-10" style="edgeStyle=orthogonalEdgeStyle;rounded=0;orthogonalLoop=1;jettySize=auto;html=1;exitX=1;exitY=0.5;exitDx=0;exitDy=0;" parent="1" source="eUxJNlt0HOpgg095ER0J-2" edge="1">
          <mxGeometry relative="1" as="geometry">
            <mxPoint x="955" y="-538.8" as="targetPoint" />
          </mxGeometry>
        </mxCell>
        <mxCell id="eUxJNlt0HOpgg095ER0J-11" style="edgeStyle=orthogonalEdgeStyle;rounded=0;orthogonalLoop=1;jettySize=auto;html=1;exitX=1;exitY=0.75;exitDx=0;exitDy=0;entryX=0;entryY=0.5;entryDx=0;entryDy=0;" parent="1" source="eUxJNlt0HOpgg095ER0J-2" target="eUxJNlt0HOpgg095ER0J-7" edge="1">
          <mxGeometry relative="1" as="geometry" />
        </mxCell>
        <mxCell id="eUxJNlt0HOpgg095ER0J-2" value="" style="rounded=0;whiteSpace=wrap;html=1;fillColor=#000000;" parent="1" vertex="1">
          <mxGeometry x="880" y="-584" width="20" height="90" as="geometry" />
        </mxCell>
        <mxCell id="eUxJNlt0HOpgg095ER0J-94" style="edgeStyle=orthogonalEdgeStyle;rounded=0;orthogonalLoop=1;jettySize=auto;html=1;exitX=1;exitY=0.5;exitDx=0;exitDy=0;entryX=0;entryY=0.5;entryDx=0;entryDy=0;" parent="1" source="eUxJNlt0HOpgg095ER0J-7" target="eUxJNlt0HOpgg095ER0J-70" edge="1">
          <mxGeometry relative="1" as="geometry" />
        </mxCell>
        <mxCell id="eUxJNlt0HOpgg095ER0J-7" value="" style="ellipse;whiteSpace=wrap;html=1;aspect=fixed;" parent="1" vertex="1">
          <mxGeometry x="955" y="-569" width="60" height="60" as="geometry" />
        </mxCell>
        <mxCell id="eUxJNlt0HOpgg095ER0J-43" style="edgeStyle=orthogonalEdgeStyle;rounded=0;orthogonalLoop=1;jettySize=auto;html=1;exitX=1;exitY=0.5;exitDx=0;exitDy=0;entryX=0;entryY=0.5;entryDx=0;entryDy=0;" parent="1" source="eUxJNlt0HOpgg095ER0J-12" target="eUxJNlt0HOpgg095ER0J-13" edge="1">
          <mxGeometry relative="1" as="geometry" />
        </mxCell>
        <mxCell id="eUxJNlt0HOpgg095ER0J-12" value="" style="ellipse;whiteSpace=wrap;html=1;aspect=fixed;" parent="1" vertex="1">
          <mxGeometry x="-765" y="-764" width="60" height="60" as="geometry" />
        </mxCell>
        <mxCell id="eUxJNlt0HOpgg095ER0J-44" style="edgeStyle=orthogonalEdgeStyle;rounded=0;orthogonalLoop=1;jettySize=auto;html=1;exitX=1;exitY=0.5;exitDx=0;exitDy=0;" parent="1" source="eUxJNlt0HOpgg095ER0J-13" target="eUxJNlt0HOpgg095ER0J-14" edge="1">
          <mxGeometry relative="1" as="geometry" />
        </mxCell>
        <mxCell id="eUxJNlt0HOpgg095ER0J-13" value="" style="rounded=0;whiteSpace=wrap;html=1;fillColor=#000000;" parent="1" vertex="1">
          <mxGeometry x="-650" y="-779" width="20" height="90" as="geometry" />
        </mxCell>
        <mxCell id="eUxJNlt0HOpgg095ER0J-47" style="edgeStyle=orthogonalEdgeStyle;rounded=0;orthogonalLoop=1;jettySize=auto;html=1;exitX=1;exitY=0.5;exitDx=0;exitDy=0;entryX=0;entryY=0.5;entryDx=0;entryDy=0;" parent="1" source="eUxJNlt0HOpgg095ER0J-14" target="eUxJNlt0HOpgg095ER0J-15" edge="1">
          <mxGeometry relative="1" as="geometry" />
        </mxCell>
        <mxCell id="eUxJNlt0HOpgg095ER0J-14" value="" style="ellipse;whiteSpace=wrap;html=1;aspect=fixed;" parent="1" vertex="1">
          <mxGeometry x="-575" y="-764" width="60" height="60" as="geometry" />
        </mxCell>
        <mxCell id="eUxJNlt0HOpgg095ER0J-48" style="edgeStyle=orthogonalEdgeStyle;rounded=0;orthogonalLoop=1;jettySize=auto;html=1;exitX=1;exitY=0.5;exitDx=0;exitDy=0;entryX=0;entryY=0.5;entryDx=0;entryDy=0;" parent="1" source="eUxJNlt0HOpgg095ER0J-15" target="eUxJNlt0HOpgg095ER0J-16" edge="1">
          <mxGeometry relative="1" as="geometry" />
        </mxCell>
        <mxCell id="eUxJNlt0HOpgg095ER0J-15" value="" style="rounded=0;whiteSpace=wrap;html=1;fillColor=#000000;" parent="1" vertex="1">
          <mxGeometry x="-465" y="-779" width="20" height="90" as="geometry" />
        </mxCell>
        <mxCell id="eUxJNlt0HOpgg095ER0J-57" value="" style="edgeStyle=orthogonalEdgeStyle;rounded=0;orthogonalLoop=1;jettySize=auto;html=1;" parent="1" source="eUxJNlt0HOpgg095ER0J-16" target="eUxJNlt0HOpgg095ER0J-17" edge="1">
          <mxGeometry relative="1" as="geometry" />
        </mxCell>
        <mxCell id="eUxJNlt0HOpgg095ER0J-16" value="" style="ellipse;whiteSpace=wrap;html=1;aspect=fixed;" parent="1" vertex="1">
          <mxGeometry x="-395" y="-569" width="60" height="60" as="geometry" />
        </mxCell>
        <mxCell id="eUxJNlt0HOpgg095ER0J-58" value="" style="edgeStyle=orthogonalEdgeStyle;rounded=0;orthogonalLoop=1;jettySize=auto;html=1;" parent="1" source="eUxJNlt0HOpgg095ER0J-17" target="eUxJNlt0HOpgg095ER0J-18" edge="1">
          <mxGeometry relative="1" as="geometry" />
        </mxCell>
        <mxCell id="eUxJNlt0HOpgg095ER0J-17" value="" style="rounded=0;whiteSpace=wrap;html=1;fillColor=#000000;" parent="1" vertex="1">
          <mxGeometry x="-270" y="-584" width="20" height="90" as="geometry" />
        </mxCell>
        <mxCell id="eUxJNlt0HOpgg095ER0J-59" value="" style="edgeStyle=orthogonalEdgeStyle;rounded=0;orthogonalLoop=1;jettySize=auto;html=1;" parent="1" source="eUxJNlt0HOpgg095ER0J-18" target="eUxJNlt0HOpgg095ER0J-31" edge="1">
          <mxGeometry relative="1" as="geometry" />
        </mxCell>
        <mxCell id="eUxJNlt0HOpgg095ER0J-18" value="" style="ellipse;whiteSpace=wrap;html=1;aspect=fixed;" parent="1" vertex="1">
          <mxGeometry x="-195" y="-569" width="60" height="60" as="geometry" />
        </mxCell>
        <mxCell id="eUxJNlt0HOpgg095ER0J-41" style="edgeStyle=orthogonalEdgeStyle;rounded=0;orthogonalLoop=1;jettySize=auto;html=1;entryX=0;entryY=0.5;entryDx=0;entryDy=0;" parent="1" source="eUxJNlt0HOpgg095ER0J-19" target="eUxJNlt0HOpgg095ER0J-20" edge="1">
          <mxGeometry relative="1" as="geometry" />
        </mxCell>
        <mxCell id="eUxJNlt0HOpgg095ER0J-19" value="" style="ellipse;whiteSpace=wrap;html=1;aspect=fixed;" parent="1" vertex="1">
          <mxGeometry x="-765" y="-888" width="60" height="60" as="geometry" />
        </mxCell>
        <mxCell id="eUxJNlt0HOpgg095ER0J-42" style="edgeStyle=orthogonalEdgeStyle;rounded=0;orthogonalLoop=1;jettySize=auto;html=1;exitX=1;exitY=0.5;exitDx=0;exitDy=0;entryX=0;entryY=0.5;entryDx=0;entryDy=0;" parent="1" source="eUxJNlt0HOpgg095ER0J-20" target="eUxJNlt0HOpgg095ER0J-14" edge="1">
          <mxGeometry relative="1" as="geometry" />
        </mxCell>
        <mxCell id="eUxJNlt0HOpgg095ER0J-20" value="" style="rounded=0;whiteSpace=wrap;html=1;fillColor=#000000;" parent="1" vertex="1">
          <mxGeometry x="-650" y="-903" width="20" height="90" as="geometry" />
        </mxCell>
        <mxCell id="eUxJNlt0HOpgg095ER0J-45" style="edgeStyle=orthogonalEdgeStyle;rounded=0;orthogonalLoop=1;jettySize=auto;html=1;exitX=1;exitY=0.5;exitDx=0;exitDy=0;entryX=0;entryY=0.5;entryDx=0;entryDy=0;" parent="1" source="eUxJNlt0HOpgg095ER0J-21" target="eUxJNlt0HOpgg095ER0J-22" edge="1">
          <mxGeometry relative="1" as="geometry" />
        </mxCell>
        <mxCell id="eUxJNlt0HOpgg095ER0J-21" value="" style="ellipse;whiteSpace=wrap;html=1;aspect=fixed;" parent="1" vertex="1">
          <mxGeometry x="-765" y="-644" width="60" height="60" as="geometry" />
        </mxCell>
        <mxCell id="eUxJNlt0HOpgg095ER0J-46" style="edgeStyle=orthogonalEdgeStyle;rounded=0;orthogonalLoop=1;jettySize=auto;html=1;exitX=1;exitY=0.5;exitDx=0;exitDy=0;entryX=0;entryY=0.5;entryDx=0;entryDy=0;" parent="1" source="eUxJNlt0HOpgg095ER0J-22" target="eUxJNlt0HOpgg095ER0J-14" edge="1">
          <mxGeometry relative="1" as="geometry" />
        </mxCell>
        <mxCell id="eUxJNlt0HOpgg095ER0J-22" value="" style="rounded=0;whiteSpace=wrap;html=1;fillColor=#000000;" parent="1" vertex="1">
          <mxGeometry x="-650" y="-659" width="20" height="90" as="geometry" />
        </mxCell>
        <mxCell id="eUxJNlt0HOpgg095ER0J-51" style="edgeStyle=orthogonalEdgeStyle;rounded=0;orthogonalLoop=1;jettySize=auto;html=1;exitX=1;exitY=0.5;exitDx=0;exitDy=0;entryX=0;entryY=0.5;entryDx=0;entryDy=0;" parent="1" source="eUxJNlt0HOpgg095ER0J-23" target="eUxJNlt0HOpgg095ER0J-24" edge="1">
          <mxGeometry relative="1" as="geometry" />
        </mxCell>
        <mxCell id="eUxJNlt0HOpgg095ER0J-23" value="" style="ellipse;whiteSpace=wrap;html=1;aspect=fixed;" parent="1" vertex="1">
          <mxGeometry x="-765" y="-400" width="60" height="60" as="geometry" />
        </mxCell>
        <mxCell id="eUxJNlt0HOpgg095ER0J-52" style="edgeStyle=orthogonalEdgeStyle;rounded=0;orthogonalLoop=1;jettySize=auto;html=1;exitX=1;exitY=0.5;exitDx=0;exitDy=0;entryX=0;entryY=0.5;entryDx=0;entryDy=0;" parent="1" source="eUxJNlt0HOpgg095ER0J-24" target="eUxJNlt0HOpgg095ER0J-25" edge="1">
          <mxGeometry relative="1" as="geometry" />
        </mxCell>
        <mxCell id="eUxJNlt0HOpgg095ER0J-24" value="" style="rounded=0;whiteSpace=wrap;html=1;fillColor=#000000;" parent="1" vertex="1">
          <mxGeometry x="-650" y="-415" width="20" height="90" as="geometry" />
        </mxCell>
        <mxCell id="eUxJNlt0HOpgg095ER0J-55" style="edgeStyle=orthogonalEdgeStyle;rounded=0;orthogonalLoop=1;jettySize=auto;html=1;exitX=1;exitY=0.5;exitDx=0;exitDy=0;entryX=0;entryY=0.5;entryDx=0;entryDy=0;" parent="1" source="eUxJNlt0HOpgg095ER0J-25" target="eUxJNlt0HOpgg095ER0J-26" edge="1">
          <mxGeometry relative="1" as="geometry" />
        </mxCell>
        <mxCell id="eUxJNlt0HOpgg095ER0J-25" value="" style="ellipse;whiteSpace=wrap;html=1;aspect=fixed;" parent="1" vertex="1">
          <mxGeometry x="-575" y="-400" width="60" height="60" as="geometry" />
        </mxCell>
        <mxCell id="eUxJNlt0HOpgg095ER0J-56" style="edgeStyle=orthogonalEdgeStyle;rounded=0;orthogonalLoop=1;jettySize=auto;html=1;exitX=1;exitY=0.5;exitDx=0;exitDy=0;entryX=0;entryY=0.5;entryDx=0;entryDy=0;" parent="1" source="eUxJNlt0HOpgg095ER0J-26" target="eUxJNlt0HOpgg095ER0J-16" edge="1">
          <mxGeometry relative="1" as="geometry" />
        </mxCell>
        <mxCell id="eUxJNlt0HOpgg095ER0J-26" value="" style="rounded=0;whiteSpace=wrap;html=1;fillColor=#000000;" parent="1" vertex="1">
          <mxGeometry x="-465" y="-415" width="20" height="90" as="geometry" />
        </mxCell>
        <mxCell id="eUxJNlt0HOpgg095ER0J-49" style="edgeStyle=orthogonalEdgeStyle;rounded=0;orthogonalLoop=1;jettySize=auto;html=1;entryX=0;entryY=0.5;entryDx=0;entryDy=0;" parent="1" source="eUxJNlt0HOpgg095ER0J-27" target="eUxJNlt0HOpgg095ER0J-28" edge="1">
          <mxGeometry relative="1" as="geometry" />
        </mxCell>
        <mxCell id="eUxJNlt0HOpgg095ER0J-27" value="" style="ellipse;whiteSpace=wrap;html=1;aspect=fixed;" parent="1" vertex="1">
          <mxGeometry x="-765" y="-524" width="60" height="60" as="geometry" />
        </mxCell>
        <mxCell id="eUxJNlt0HOpgg095ER0J-50" style="edgeStyle=orthogonalEdgeStyle;rounded=0;orthogonalLoop=1;jettySize=auto;html=1;exitX=1;exitY=0.5;exitDx=0;exitDy=0;entryX=0;entryY=0.5;entryDx=0;entryDy=0;" parent="1" source="eUxJNlt0HOpgg095ER0J-28" target="eUxJNlt0HOpgg095ER0J-25" edge="1">
          <mxGeometry relative="1" as="geometry" />
        </mxCell>
        <mxCell id="eUxJNlt0HOpgg095ER0J-28" value="" style="rounded=0;whiteSpace=wrap;html=1;fillColor=#000000;" parent="1" vertex="1">
          <mxGeometry x="-650" y="-539" width="20" height="90" as="geometry" />
        </mxCell>
        <mxCell id="eUxJNlt0HOpgg095ER0J-53" style="edgeStyle=orthogonalEdgeStyle;rounded=0;orthogonalLoop=1;jettySize=auto;html=1;exitX=1;exitY=0.5;exitDx=0;exitDy=0;entryX=0;entryY=0.5;entryDx=0;entryDy=0;" parent="1" source="eUxJNlt0HOpgg095ER0J-29" target="eUxJNlt0HOpgg095ER0J-30" edge="1">
          <mxGeometry relative="1" as="geometry" />
        </mxCell>
        <mxCell id="eUxJNlt0HOpgg095ER0J-29" value="" style="ellipse;whiteSpace=wrap;html=1;aspect=fixed;" parent="1" vertex="1">
          <mxGeometry x="-765" y="-280" width="60" height="60" as="geometry" />
        </mxCell>
        <mxCell id="eUxJNlt0HOpgg095ER0J-54" style="edgeStyle=orthogonalEdgeStyle;rounded=0;orthogonalLoop=1;jettySize=auto;html=1;exitX=1;exitY=0.5;exitDx=0;exitDy=0;entryX=0;entryY=0.5;entryDx=0;entryDy=0;" parent="1" source="eUxJNlt0HOpgg095ER0J-30" target="eUxJNlt0HOpgg095ER0J-25" edge="1">
          <mxGeometry relative="1" as="geometry" />
        </mxCell>
        <mxCell id="eUxJNlt0HOpgg095ER0J-30" value="" style="rounded=0;whiteSpace=wrap;html=1;fillColor=#000000;" parent="1" vertex="1">
          <mxGeometry x="-650" y="-295" width="20" height="90" as="geometry" />
        </mxCell>
        <mxCell id="eUxJNlt0HOpgg095ER0J-60" value="" style="edgeStyle=orthogonalEdgeStyle;rounded=0;orthogonalLoop=1;jettySize=auto;html=1;" parent="1" source="eUxJNlt0HOpgg095ER0J-31" target="eUxJNlt0HOpgg095ER0J-32" edge="1">
          <mxGeometry relative="1" as="geometry" />
        </mxCell>
        <mxCell id="eUxJNlt0HOpgg095ER0J-31" value="" style="rounded=0;whiteSpace=wrap;html=1;fillColor=#000000;" parent="1" vertex="1">
          <mxGeometry x="-75" y="-584" width="20" height="90" as="geometry" />
        </mxCell>
        <mxCell id="eUxJNlt0HOpgg095ER0J-61" value="" style="edgeStyle=orthogonalEdgeStyle;rounded=0;orthogonalLoop=1;jettySize=auto;html=1;" parent="1" source="eUxJNlt0HOpgg095ER0J-32" target="eUxJNlt0HOpgg095ER0J-33" edge="1">
          <mxGeometry relative="1" as="geometry" />
        </mxCell>
        <mxCell id="eUxJNlt0HOpgg095ER0J-32" value="" style="ellipse;whiteSpace=wrap;html=1;aspect=fixed;" parent="1" vertex="1">
          <mxGeometry y="-569" width="60" height="60" as="geometry" />
        </mxCell>
        <mxCell id="eUxJNlt0HOpgg095ER0J-62" value="" style="edgeStyle=orthogonalEdgeStyle;rounded=0;orthogonalLoop=1;jettySize=auto;html=1;" parent="1" source="eUxJNlt0HOpgg095ER0J-33" target="eUxJNlt0HOpgg095ER0J-34" edge="1">
          <mxGeometry relative="1" as="geometry" />
        </mxCell>
        <mxCell id="eUxJNlt0HOpgg095ER0J-33" value="" style="rounded=0;whiteSpace=wrap;html=1;fillColor=#000000;" parent="1" vertex="1">
          <mxGeometry x="115" y="-584" width="20" height="90" as="geometry" />
        </mxCell>
        <mxCell id="eUxJNlt0HOpgg095ER0J-63" value="" style="edgeStyle=orthogonalEdgeStyle;rounded=0;orthogonalLoop=1;jettySize=auto;html=1;" parent="1" source="eUxJNlt0HOpgg095ER0J-34" target="eUxJNlt0HOpgg095ER0J-35" edge="1">
          <mxGeometry relative="1" as="geometry" />
        </mxCell>
        <mxCell id="eUxJNlt0HOpgg095ER0J-34" value="" style="ellipse;whiteSpace=wrap;html=1;aspect=fixed;" parent="1" vertex="1">
          <mxGeometry x="190" y="-569" width="60" height="60" as="geometry" />
        </mxCell>
        <mxCell id="eUxJNlt0HOpgg095ER0J-64" value="" style="edgeStyle=orthogonalEdgeStyle;rounded=0;orthogonalLoop=1;jettySize=auto;html=1;" parent="1" source="eUxJNlt0HOpgg095ER0J-35" target="eUxJNlt0HOpgg095ER0J-36" edge="1">
          <mxGeometry relative="1" as="geometry" />
        </mxCell>
        <mxCell id="eUxJNlt0HOpgg095ER0J-35" value="" style="rounded=0;whiteSpace=wrap;html=1;fillColor=#000000;" parent="1" vertex="1">
          <mxGeometry x="305" y="-584" width="20" height="90" as="geometry" />
        </mxCell>
        <mxCell id="eUxJNlt0HOpgg095ER0J-65" value="" style="edgeStyle=orthogonalEdgeStyle;rounded=0;orthogonalLoop=1;jettySize=auto;html=1;" parent="1" source="eUxJNlt0HOpgg095ER0J-36" target="eUxJNlt0HOpgg095ER0J-37" edge="1">
          <mxGeometry relative="1" as="geometry" />
        </mxCell>
        <mxCell id="eUxJNlt0HOpgg095ER0J-36" value="" style="ellipse;whiteSpace=wrap;html=1;aspect=fixed;" parent="1" vertex="1">
          <mxGeometry x="380" y="-569" width="60" height="60" as="geometry" />
        </mxCell>
        <mxCell id="eUxJNlt0HOpgg095ER0J-66" value="" style="edgeStyle=orthogonalEdgeStyle;rounded=0;orthogonalLoop=1;jettySize=auto;html=1;" parent="1" source="eUxJNlt0HOpgg095ER0J-37" target="eUxJNlt0HOpgg095ER0J-38" edge="1">
          <mxGeometry relative="1" as="geometry" />
        </mxCell>
        <mxCell id="eUxJNlt0HOpgg095ER0J-37" value="" style="rounded=0;whiteSpace=wrap;html=1;fillColor=#000000;" parent="1" vertex="1">
          <mxGeometry x="495" y="-584" width="20" height="90" as="geometry" />
        </mxCell>
        <mxCell id="eUxJNlt0HOpgg095ER0J-67" value="" style="edgeStyle=orthogonalEdgeStyle;rounded=0;orthogonalLoop=1;jettySize=auto;html=1;" parent="1" source="eUxJNlt0HOpgg095ER0J-38" target="eUxJNlt0HOpgg095ER0J-39" edge="1">
          <mxGeometry relative="1" as="geometry" />
        </mxCell>
        <mxCell id="eUxJNlt0HOpgg095ER0J-38" value="" style="ellipse;whiteSpace=wrap;html=1;aspect=fixed;" parent="1" vertex="1">
          <mxGeometry x="570" y="-569" width="60" height="60" as="geometry" />
        </mxCell>
        <mxCell id="eUxJNlt0HOpgg095ER0J-68" value="" style="edgeStyle=orthogonalEdgeStyle;rounded=0;orthogonalLoop=1;jettySize=auto;html=1;" parent="1" source="eUxJNlt0HOpgg095ER0J-39" target="eUxJNlt0HOpgg095ER0J-1" edge="1">
          <mxGeometry relative="1" as="geometry" />
        </mxCell>
        <mxCell id="eUxJNlt0HOpgg095ER0J-39" value="" style="rounded=0;whiteSpace=wrap;html=1;fillColor=#000000;" parent="1" vertex="1">
          <mxGeometry x="685" y="-584" width="20" height="90" as="geometry" />
        </mxCell>
        <mxCell id="eUxJNlt0HOpgg095ER0J-95" style="edgeStyle=orthogonalEdgeStyle;rounded=0;orthogonalLoop=1;jettySize=auto;html=1;exitX=1;exitY=0.5;exitDx=0;exitDy=0;" parent="1" source="eUxJNlt0HOpgg095ER0J-70" target="eUxJNlt0HOpgg095ER0J-71" edge="1">
          <mxGeometry relative="1" as="geometry" />
        </mxCell>
        <mxCell id="eUxJNlt0HOpgg095ER0J-70" value="" style="rounded=0;whiteSpace=wrap;html=1;fillColor=#000000;" parent="1" vertex="1">
          <mxGeometry x="1075" y="-584" width="20" height="90" as="geometry" />
        </mxCell>
        <mxCell id="eUxJNlt0HOpgg095ER0J-96" style="edgeStyle=orthogonalEdgeStyle;rounded=0;orthogonalLoop=1;jettySize=auto;html=1;exitX=1;exitY=0;exitDx=0;exitDy=0;entryX=0;entryY=0.5;entryDx=0;entryDy=0;" parent="1" source="eUxJNlt0HOpgg095ER0J-71" target="eUxJNlt0HOpgg095ER0J-72" edge="1">
          <mxGeometry relative="1" as="geometry" />
        </mxCell>
        <mxCell id="eUxJNlt0HOpgg095ER0J-97" style="edgeStyle=orthogonalEdgeStyle;rounded=0;orthogonalLoop=1;jettySize=auto;html=1;exitX=1;exitY=1;exitDx=0;exitDy=0;entryX=0;entryY=0.5;entryDx=0;entryDy=0;" parent="1" source="eUxJNlt0HOpgg095ER0J-71" target="eUxJNlt0HOpgg095ER0J-74" edge="1">
          <mxGeometry relative="1" as="geometry" />
        </mxCell>
        <mxCell id="eUxJNlt0HOpgg095ER0J-71" value="" style="ellipse;whiteSpace=wrap;html=1;aspect=fixed;" parent="1" vertex="1">
          <mxGeometry x="1150" y="-569" width="60" height="60" as="geometry" />
        </mxCell>
        <mxCell id="eUxJNlt0HOpgg095ER0J-98" style="edgeStyle=orthogonalEdgeStyle;rounded=0;orthogonalLoop=1;jettySize=auto;html=1;entryX=0;entryY=0.5;entryDx=0;entryDy=0;" parent="1" source="eUxJNlt0HOpgg095ER0J-72" target="eUxJNlt0HOpgg095ER0J-73" edge="1">
          <mxGeometry relative="1" as="geometry" />
        </mxCell>
        <mxCell id="eUxJNlt0HOpgg095ER0J-72" value="" style="rounded=0;whiteSpace=wrap;html=1;fillColor=#000000;" parent="1" vertex="1">
          <mxGeometry x="1265" y="-674" width="20" height="90" as="geometry" />
        </mxCell>
        <mxCell id="eUxJNlt0HOpgg095ER0J-99" style="edgeStyle=orthogonalEdgeStyle;rounded=0;orthogonalLoop=1;jettySize=auto;html=1;entryX=0;entryY=0.5;entryDx=0;entryDy=0;" parent="1" source="eUxJNlt0HOpgg095ER0J-73" target="eUxJNlt0HOpgg095ER0J-76" edge="1">
          <mxGeometry relative="1" as="geometry" />
        </mxCell>
        <mxCell id="eUxJNlt0HOpgg095ER0J-73" value="" style="ellipse;whiteSpace=wrap;html=1;aspect=fixed;" parent="1" vertex="1">
          <mxGeometry x="1340" y="-659" width="60" height="60" as="geometry" />
        </mxCell>
        <mxCell id="eUxJNlt0HOpgg095ER0J-100" style="edgeStyle=orthogonalEdgeStyle;rounded=0;orthogonalLoop=1;jettySize=auto;html=1;entryX=0;entryY=0.5;entryDx=0;entryDy=0;" parent="1" source="eUxJNlt0HOpgg095ER0J-74" target="eUxJNlt0HOpgg095ER0J-75" edge="1">
          <mxGeometry relative="1" as="geometry" />
        </mxCell>
        <mxCell id="eUxJNlt0HOpgg095ER0J-74" value="" style="rounded=0;whiteSpace=wrap;html=1;fillColor=#000000;" parent="1" vertex="1">
          <mxGeometry x="1265" y="-494" width="20" height="90" as="geometry" />
        </mxCell>
        <mxCell id="eUxJNlt0HOpgg095ER0J-101" style="edgeStyle=orthogonalEdgeStyle;rounded=0;orthogonalLoop=1;jettySize=auto;html=1;entryX=0;entryY=0.5;entryDx=0;entryDy=0;" parent="1" source="eUxJNlt0HOpgg095ER0J-75" target="eUxJNlt0HOpgg095ER0J-85" edge="1">
          <mxGeometry relative="1" as="geometry" />
        </mxCell>
        <mxCell id="eUxJNlt0HOpgg095ER0J-75" value="" style="ellipse;whiteSpace=wrap;html=1;aspect=fixed;" parent="1" vertex="1">
          <mxGeometry x="1340" y="-479" width="60" height="60" as="geometry" />
        </mxCell>
        <mxCell id="eUxJNlt0HOpgg095ER0J-103" style="edgeStyle=orthogonalEdgeStyle;rounded=0;orthogonalLoop=1;jettySize=auto;html=1;exitX=1;exitY=0.5;exitDx=0;exitDy=0;entryX=0.5;entryY=0;entryDx=0;entryDy=0;" parent="1" source="eUxJNlt0HOpgg095ER0J-76" target="eUxJNlt0HOpgg095ER0J-77" edge="1">
          <mxGeometry relative="1" as="geometry" />
        </mxCell>
        <mxCell id="eUxJNlt0HOpgg095ER0J-76" value="" style="rounded=0;whiteSpace=wrap;html=1;fillColor=#000000;" parent="1" vertex="1">
          <mxGeometry x="1475" y="-674" width="20" height="90" as="geometry" />
        </mxCell>
        <mxCell id="eUxJNlt0HOpgg095ER0J-104" style="edgeStyle=orthogonalEdgeStyle;rounded=0;orthogonalLoop=1;jettySize=auto;html=1;" parent="1" source="eUxJNlt0HOpgg095ER0J-77" target="eUxJNlt0HOpgg095ER0J-86" edge="1">
          <mxGeometry relative="1" as="geometry" />
        </mxCell>
        <mxCell id="eUxJNlt0HOpgg095ER0J-106" style="edgeStyle=orthogonalEdgeStyle;rounded=0;orthogonalLoop=1;jettySize=auto;html=1;exitX=1;exitY=1;exitDx=0;exitDy=0;entryX=0;entryY=1;entryDx=0;entryDy=0;" parent="1" source="eUxJNlt0HOpgg095ER0J-77" target="eUxJNlt0HOpgg095ER0J-86" edge="1">
          <mxGeometry relative="1" as="geometry">
            <Array as="points">
              <mxPoint x="1623" y="-518" />
              <mxPoint x="1623" y="-494" />
            </Array>
          </mxGeometry>
        </mxCell>
        <mxCell id="eUxJNlt0HOpgg095ER0J-107" style="edgeStyle=orthogonalEdgeStyle;rounded=0;orthogonalLoop=1;jettySize=auto;html=1;exitX=1;exitY=0;exitDx=0;exitDy=0;entryX=0;entryY=0;entryDx=0;entryDy=0;" parent="1" source="eUxJNlt0HOpgg095ER0J-77" target="eUxJNlt0HOpgg095ER0J-86" edge="1">
          <mxGeometry relative="1" as="geometry">
            <Array as="points">
              <mxPoint x="1623" y="-560" />
              <mxPoint x="1623" y="-584" />
            </Array>
          </mxGeometry>
        </mxCell>
        <mxCell id="eUxJNlt0HOpgg095ER0J-109" style="edgeStyle=orthogonalEdgeStyle;rounded=0;orthogonalLoop=1;jettySize=auto;html=1;exitX=1;exitY=0.5;exitDx=0;exitDy=0;entryX=0;entryY=0.75;entryDx=0;entryDy=0;" parent="1" source="eUxJNlt0HOpgg095ER0J-77" target="eUxJNlt0HOpgg095ER0J-86" edge="1">
          <mxGeometry relative="1" as="geometry" />
        </mxCell>
        <mxCell id="eUxJNlt0HOpgg095ER0J-77" value="" style="ellipse;whiteSpace=wrap;html=1;aspect=fixed;" parent="1" vertex="1">
          <mxGeometry x="1540" y="-569" width="60" height="60" as="geometry" />
        </mxCell>
        <mxCell id="eUxJNlt0HOpgg095ER0J-105" style="edgeStyle=orthogonalEdgeStyle;rounded=0;orthogonalLoop=1;jettySize=auto;html=1;exitX=0;exitY=0.5;exitDx=0;exitDy=0;entryX=0.5;entryY=0;entryDx=0;entryDy=0;" parent="1" source="eUxJNlt0HOpgg095ER0J-78" target="eUxJNlt0HOpgg095ER0J-77" edge="1">
          <mxGeometry relative="1" as="geometry" />
        </mxCell>
        <mxCell id="eUxJNlt0HOpgg095ER0J-78" value="" style="rounded=0;whiteSpace=wrap;html=1;fillColor=#000000;rotation=-90;" parent="1" vertex="1">
          <mxGeometry x="1560" y="-744" width="20" height="90" as="geometry" />
        </mxCell>
        <mxCell id="eUxJNlt0HOpgg095ER0J-121" value="" style="edgeStyle=orthogonalEdgeStyle;rounded=0;orthogonalLoop=1;jettySize=auto;html=1;" parent="1" source="eUxJNlt0HOpgg095ER0J-79" target="eUxJNlt0HOpgg095ER0J-78" edge="1">
          <mxGeometry relative="1" as="geometry" />
        </mxCell>
        <mxCell id="eUxJNlt0HOpgg095ER0J-79" value="" style="ellipse;whiteSpace=wrap;html=1;aspect=fixed;" parent="1" vertex="1">
          <mxGeometry x="1540" y="-823" width="60" height="60" as="geometry" />
        </mxCell>
        <mxCell id="sAIwI4nGpeulssWVe8KQ-3" style="edgeStyle=orthogonalEdgeStyle;rounded=0;orthogonalLoop=1;jettySize=auto;html=1;entryX=0.5;entryY=0;entryDx=0;entryDy=0;" parent="1" source="eUxJNlt0HOpgg095ER0J-80" target="eUxJNlt0HOpgg095ER0J-89" edge="1">
          <mxGeometry relative="1" as="geometry">
            <Array as="points">
              <mxPoint x="1750" y="-906" />
            </Array>
          </mxGeometry>
        </mxCell>
        <mxCell id="udwKPdp13qZEXDaH-4BK-1" style="edgeStyle=orthogonalEdgeStyle;rounded=0;orthogonalLoop=1;jettySize=auto;html=1;exitX=0.75;exitY=0;exitDx=0;exitDy=0;entryX=1;entryY=0.5;entryDx=0;entryDy=0;" edge="1" parent="1" source="eUxJNlt0HOpgg095ER0J-80" target="sAIwI4nGpeulssWVe8KQ-67">
          <mxGeometry relative="1" as="geometry">
            <Array as="points">
              <mxPoint x="1617" y="-906" />
              <mxPoint x="1427" y="-906" />
            </Array>
          </mxGeometry>
        </mxCell>
        <mxCell id="eUxJNlt0HOpgg095ER0J-80" value="" style="rounded=0;whiteSpace=wrap;html=1;fillColor=#000000;rotation=-90;" parent="1" vertex="1">
          <mxGeometry x="1652" y="-951" width="20" height="90" as="geometry" />
        </mxCell>
        <mxCell id="eUxJNlt0HOpgg095ER0J-119" value="" style="edgeStyle=orthogonalEdgeStyle;rounded=0;orthogonalLoop=1;jettySize=auto;html=1;" parent="1" source="eUxJNlt0HOpgg095ER0J-81" target="eUxJNlt0HOpgg095ER0J-80" edge="1">
          <mxGeometry relative="1" as="geometry" />
        </mxCell>
        <mxCell id="eUxJNlt0HOpgg095ER0J-81" value="" style="ellipse;whiteSpace=wrap;html=1;aspect=fixed;" parent="1" vertex="1">
          <mxGeometry x="1632" y="-1030" width="60" height="60" as="geometry" />
        </mxCell>
        <mxCell id="eUxJNlt0HOpgg095ER0J-102" style="edgeStyle=orthogonalEdgeStyle;rounded=0;orthogonalLoop=1;jettySize=auto;html=1;exitX=1;exitY=0.5;exitDx=0;exitDy=0;" parent="1" source="eUxJNlt0HOpgg095ER0J-85" target="eUxJNlt0HOpgg095ER0J-77" edge="1">
          <mxGeometry relative="1" as="geometry" />
        </mxCell>
        <mxCell id="eUxJNlt0HOpgg095ER0J-85" value="" style="rounded=0;whiteSpace=wrap;html=1;fillColor=#000000;" parent="1" vertex="1">
          <mxGeometry x="1475" y="-494" width="20" height="90" as="geometry" />
        </mxCell>
        <mxCell id="eUxJNlt0HOpgg095ER0J-111" style="edgeStyle=orthogonalEdgeStyle;rounded=0;orthogonalLoop=1;jettySize=auto;html=1;entryX=0;entryY=0.5;entryDx=0;entryDy=0;" parent="1" source="eUxJNlt0HOpgg095ER0J-86" target="eUxJNlt0HOpgg095ER0J-87" edge="1">
          <mxGeometry relative="1" as="geometry" />
        </mxCell>
        <mxCell id="eUxJNlt0HOpgg095ER0J-86" value="" style="rounded=0;whiteSpace=wrap;html=1;fillColor=#000000;" parent="1" vertex="1">
          <mxGeometry x="1645" y="-584" width="20" height="90" as="geometry" />
        </mxCell>
        <mxCell id="eUxJNlt0HOpgg095ER0J-114" style="edgeStyle=orthogonalEdgeStyle;rounded=0;orthogonalLoop=1;jettySize=auto;html=1;entryX=0;entryY=0.5;entryDx=0;entryDy=0;" parent="1" source="eUxJNlt0HOpgg095ER0J-87" target="eUxJNlt0HOpgg095ER0J-90" edge="1">
          <mxGeometry relative="1" as="geometry" />
        </mxCell>
        <mxCell id="eUxJNlt0HOpgg095ER0J-115" style="edgeStyle=orthogonalEdgeStyle;rounded=0;orthogonalLoop=1;jettySize=auto;html=1;exitX=1;exitY=0.5;exitDx=0;exitDy=0;entryX=0;entryY=0.25;entryDx=0;entryDy=0;" parent="1" source="eUxJNlt0HOpgg095ER0J-87" target="eUxJNlt0HOpgg095ER0J-90" edge="1">
          <mxGeometry relative="1" as="geometry" />
        </mxCell>
        <mxCell id="eUxJNlt0HOpgg095ER0J-87" value="" style="ellipse;whiteSpace=wrap;html=1;aspect=fixed;" parent="1" vertex="1">
          <mxGeometry x="1720" y="-569" width="60" height="60" as="geometry" />
        </mxCell>
        <mxCell id="eUxJNlt0HOpgg095ER0J-112" style="edgeStyle=orthogonalEdgeStyle;rounded=0;orthogonalLoop=1;jettySize=auto;html=1;entryX=0.5;entryY=0;entryDx=0;entryDy=0;" parent="1" source="eUxJNlt0HOpgg095ER0J-88" target="eUxJNlt0HOpgg095ER0J-87" edge="1">
          <mxGeometry relative="1" as="geometry" />
        </mxCell>
        <mxCell id="eUxJNlt0HOpgg095ER0J-88" value="" style="rounded=0;whiteSpace=wrap;html=1;fillColor=#000000;rotation=-90;" parent="1" vertex="1">
          <mxGeometry x="1740" y="-744" width="20" height="90" as="geometry" />
        </mxCell>
        <mxCell id="eUxJNlt0HOpgg095ER0J-113" style="edgeStyle=orthogonalEdgeStyle;rounded=0;orthogonalLoop=1;jettySize=auto;html=1;entryX=1;entryY=0.5;entryDx=0;entryDy=0;" parent="1" source="eUxJNlt0HOpgg095ER0J-89" target="eUxJNlt0HOpgg095ER0J-88" edge="1">
          <mxGeometry relative="1" as="geometry" />
        </mxCell>
        <mxCell id="eUxJNlt0HOpgg095ER0J-89" value="" style="ellipse;whiteSpace=wrap;html=1;aspect=fixed;" parent="1" vertex="1">
          <mxGeometry x="1720" y="-823" width="60" height="60" as="geometry" />
        </mxCell>
        <mxCell id="eUxJNlt0HOpgg095ER0J-116" style="edgeStyle=orthogonalEdgeStyle;rounded=0;orthogonalLoop=1;jettySize=auto;html=1;" parent="1" source="eUxJNlt0HOpgg095ER0J-90" target="eUxJNlt0HOpgg095ER0J-91" edge="1">
          <mxGeometry relative="1" as="geometry" />
        </mxCell>
        <mxCell id="eUxJNlt0HOpgg095ER0J-90" value="" style="rounded=0;whiteSpace=wrap;html=1;fillColor=#000000;" parent="1" vertex="1">
          <mxGeometry x="1835" y="-584" width="20" height="90" as="geometry" />
        </mxCell>
        <mxCell id="eUxJNlt0HOpgg095ER0J-117" style="edgeStyle=orthogonalEdgeStyle;rounded=0;orthogonalLoop=1;jettySize=auto;html=1;entryX=0;entryY=0.5;entryDx=0;entryDy=0;" parent="1" source="eUxJNlt0HOpgg095ER0J-91" target="eUxJNlt0HOpgg095ER0J-92" edge="1">
          <mxGeometry relative="1" as="geometry" />
        </mxCell>
        <mxCell id="eUxJNlt0HOpgg095ER0J-91" value="" style="ellipse;whiteSpace=wrap;html=1;aspect=fixed;" parent="1" vertex="1">
          <mxGeometry x="1910" y="-569" width="60" height="60" as="geometry" />
        </mxCell>
        <mxCell id="eUxJNlt0HOpgg095ER0J-118" style="edgeStyle=orthogonalEdgeStyle;rounded=0;orthogonalLoop=1;jettySize=auto;html=1;entryX=0;entryY=0.5;entryDx=0;entryDy=0;" parent="1" source="eUxJNlt0HOpgg095ER0J-92" target="eUxJNlt0HOpgg095ER0J-93" edge="1">
          <mxGeometry relative="1" as="geometry" />
        </mxCell>
        <mxCell id="eUxJNlt0HOpgg095ER0J-92" value="" style="rounded=0;whiteSpace=wrap;html=1;fillColor=#000000;" parent="1" vertex="1">
          <mxGeometry x="2035" y="-584" width="20" height="90" as="geometry" />
        </mxCell>
        <mxCell id="eUxJNlt0HOpgg095ER0J-93" value="" style="ellipse;whiteSpace=wrap;html=1;aspect=fixed;" parent="1" vertex="1">
          <mxGeometry x="2110" y="-569" width="60" height="60" as="geometry" />
        </mxCell>
        <mxCell id="eUxJNlt0HOpgg095ER0J-108" style="edgeStyle=orthogonalEdgeStyle;rounded=0;orthogonalLoop=1;jettySize=auto;html=1;entryX=-0.097;entryY=0.247;entryDx=0;entryDy=0;entryPerimeter=0;" parent="1" source="eUxJNlt0HOpgg095ER0J-77" target="eUxJNlt0HOpgg095ER0J-86" edge="1">
          <mxGeometry relative="1" as="geometry" />
        </mxCell>
        <mxCell id="eUxJNlt0HOpgg095ER0J-122" value="Product A" style="text;html=1;align=center;verticalAlign=middle;resizable=0;points=[];autosize=1;strokeColor=none;fillColor=none;" parent="1" vertex="1">
          <mxGeometry x="-775" y="-929" width="80" height="30" as="geometry" />
        </mxCell>
        <mxCell id="eUxJNlt0HOpgg095ER0J-123" value="Product B" style="text;html=1;align=center;verticalAlign=middle;resizable=0;points=[];autosize=1;strokeColor=none;fillColor=none;" parent="1" vertex="1">
          <mxGeometry x="-775" y="-794" width="80" height="30" as="geometry" />
        </mxCell>
        <mxCell id="eUxJNlt0HOpgg095ER0J-124" value="Product C" style="text;html=1;align=center;verticalAlign=middle;resizable=0;points=[];autosize=1;strokeColor=none;fillColor=none;" parent="1" vertex="1">
          <mxGeometry x="-775" y="-674" width="80" height="30" as="geometry" />
        </mxCell>
        <mxCell id="eUxJNlt0HOpgg095ER0J-125" value="Product D" style="text;html=1;align=center;verticalAlign=middle;resizable=0;points=[];autosize=1;strokeColor=none;fillColor=none;" parent="1" vertex="1">
          <mxGeometry x="-775" y="-554" width="80" height="30" as="geometry" />
        </mxCell>
        <mxCell id="eUxJNlt0HOpgg095ER0J-126" value="Product E" style="text;html=1;align=center;verticalAlign=middle;resizable=0;points=[];autosize=1;strokeColor=none;fillColor=none;" parent="1" vertex="1">
          <mxGeometry x="-775" y="-430" width="80" height="30" as="geometry" />
        </mxCell>
        <mxCell id="eUxJNlt0HOpgg095ER0J-127" value="Product F" style="text;html=1;align=center;verticalAlign=middle;resizable=0;points=[];autosize=1;strokeColor=none;fillColor=none;" parent="1" vertex="1">
          <mxGeometry x="-775" y="-310" width="80" height="30" as="geometry" />
        </mxCell>
        <mxCell id="eUxJNlt0HOpgg095ER0J-128" value="Milling Machine 1" style="text;html=1;align=center;verticalAlign=middle;resizable=0;points=[];autosize=1;strokeColor=none;fillColor=none;" parent="1" vertex="1">
          <mxGeometry x="-605" y="-794" width="120" height="30" as="geometry" />
        </mxCell>
        <mxCell id="eUxJNlt0HOpgg095ER0J-129" value="Milling Machine 2" style="text;html=1;align=center;verticalAlign=middle;resizable=0;points=[];autosize=1;strokeColor=none;fillColor=none;" parent="1" vertex="1">
          <mxGeometry x="-605" y="-430" width="120" height="30" as="geometry" />
        </mxCell>
        <mxCell id="eUxJNlt0HOpgg095ER0J-130" value="Command to mill&lt;div&gt;&amp;nbsp;a product&lt;/div&gt;" style="text;html=1;align=center;verticalAlign=middle;resizable=0;points=[];autosize=1;strokeColor=none;fillColor=none;" parent="1" vertex="1">
          <mxGeometry x="-695" y="-943" width="110" height="40" as="geometry" />
        </mxCell>
        <mxCell id="eUxJNlt0HOpgg095ER0J-131" value="Mill Pr. B" style="text;html=1;align=center;verticalAlign=middle;resizable=0;points=[];autosize=1;strokeColor=none;fillColor=none;" parent="1" vertex="1">
          <mxGeometry x="-675" y="-809" width="70" height="30" as="geometry" />
        </mxCell>
        <mxCell id="eUxJNlt0HOpgg095ER0J-132" value="Mill Pr. C" style="text;html=1;align=center;verticalAlign=middle;resizable=0;points=[];autosize=1;strokeColor=none;fillColor=none;" parent="1" vertex="1">
          <mxGeometry x="-675" y="-689" width="70" height="30" as="geometry" />
        </mxCell>
        <mxCell id="eUxJNlt0HOpgg095ER0J-133" value="Mill Pr. D" style="text;html=1;align=center;verticalAlign=middle;resizable=0;points=[];autosize=1;strokeColor=none;fillColor=none;" parent="1" vertex="1">
          <mxGeometry x="-675" y="-569" width="70" height="30" as="geometry" />
        </mxCell>
        <mxCell id="eUxJNlt0HOpgg095ER0J-134" value="Mill Pr. E" style="text;html=1;align=center;verticalAlign=middle;resizable=0;points=[];autosize=1;strokeColor=none;fillColor=none;" parent="1" vertex="1">
          <mxGeometry x="-675" y="-445" width="70" height="30" as="geometry" />
        </mxCell>
        <mxCell id="eUxJNlt0HOpgg095ER0J-135" value="Mill Pr. F" style="text;html=1;align=center;verticalAlign=middle;resizable=0;points=[];autosize=1;strokeColor=none;fillColor=none;" parent="1" vertex="1">
          <mxGeometry x="-675" y="-325" width="70" height="30" as="geometry" />
        </mxCell>
        <mxCell id="eUxJNlt0HOpgg095ER0J-136" value="Milling Process" style="text;html=1;align=center;verticalAlign=middle;resizable=0;points=[];autosize=1;strokeColor=none;fillColor=none;" parent="1" vertex="1">
          <mxGeometry x="-505" y="-809" width="100" height="30" as="geometry" />
        </mxCell>
        <mxCell id="eUxJNlt0HOpgg095ER0J-137" value="Milling Process" style="text;html=1;align=center;verticalAlign=middle;resizable=0;points=[];autosize=1;strokeColor=none;fillColor=none;" parent="1" vertex="1">
          <mxGeometry x="-505" y="-445" width="100" height="30" as="geometry" />
        </mxCell>
        <mxCell id="eUxJNlt0HOpgg095ER0J-138" value="Sawing Machine" style="text;html=1;align=center;verticalAlign=middle;resizable=0;points=[];autosize=1;strokeColor=none;fillColor=none;" parent="1" vertex="1">
          <mxGeometry x="-420" y="-599" width="110" height="30" as="geometry" />
        </mxCell>
        <mxCell id="eUxJNlt0HOpgg095ER0J-139" value="Sawing Process" style="text;html=1;align=center;verticalAlign=middle;resizable=0;points=[];autosize=1;strokeColor=none;fillColor=none;" parent="1" vertex="1">
          <mxGeometry x="-315" y="-614" width="110" height="30" as="geometry" />
        </mxCell>
        <mxCell id="eUxJNlt0HOpgg095ER0J-140" value="Cleaning &amp;amp;&amp;nbsp;&lt;div&gt;Drying&lt;/div&gt;" style="text;html=1;align=center;verticalAlign=middle;resizable=0;points=[];autosize=1;strokeColor=none;fillColor=none;" parent="1" vertex="1">
          <mxGeometry x="-210" y="-609" width="90" height="40" as="geometry" />
        </mxCell>
        <mxCell id="eUxJNlt0HOpgg095ER0J-141" value="Cleaning &amp;amp;&amp;nbsp;&lt;div&gt;Drying Process&lt;/div&gt;" style="text;html=1;align=center;verticalAlign=middle;resizable=0;points=[];autosize=1;strokeColor=none;fillColor=none;" parent="1" vertex="1">
          <mxGeometry x="-115" y="-624" width="100" height="40" as="geometry" />
        </mxCell>
        <mxCell id="eUxJNlt0HOpgg095ER0J-142" value="Verification" style="text;html=1;align=center;verticalAlign=middle;resizable=0;points=[];autosize=1;strokeColor=none;fillColor=none;" parent="1" vertex="1">
          <mxGeometry x="-10" y="-599" width="80" height="30" as="geometry" />
        </mxCell>
        <mxCell id="eUxJNlt0HOpgg095ER0J-143" value="Verification&amp;nbsp;&lt;div&gt;Process&lt;/div&gt;" style="text;html=1;align=center;verticalAlign=middle;resizable=0;points=[];autosize=1;strokeColor=none;fillColor=none;" parent="1" vertex="1">
          <mxGeometry x="80" y="-624" width="90" height="40" as="geometry" />
        </mxCell>
        <mxCell id="eUxJNlt0HOpgg095ER0J-144" value="Laser Machine &amp;amp;&lt;div&gt;&amp;nbsp;Storage for products&lt;/div&gt;" style="text;html=1;align=center;verticalAlign=middle;resizable=0;points=[];autosize=1;strokeColor=none;fillColor=none;" parent="1" vertex="1">
          <mxGeometry x="150" y="-609" width="140" height="40" as="geometry" />
        </mxCell>
        <mxCell id="eUxJNlt0HOpgg095ER0J-145" value="Laser Process" style="text;html=1;align=center;verticalAlign=middle;resizable=0;points=[];autosize=1;strokeColor=none;fillColor=none;" parent="1" vertex="1">
          <mxGeometry x="265" y="-614" width="100" height="30" as="geometry" />
        </mxCell>
        <mxCell id="eUxJNlt0HOpgg095ER0J-146" value="Cleaning &amp;amp;&amp;nbsp;&lt;div&gt;Drying&lt;/div&gt;" style="text;html=1;align=center;verticalAlign=middle;resizable=0;points=[];autosize=1;strokeColor=none;fillColor=none;" parent="1" vertex="1">
          <mxGeometry x="365" y="-609" width="90" height="40" as="geometry" />
        </mxCell>
        <mxCell id="eUxJNlt0HOpgg095ER0J-147" value="Cleaning &amp;amp;&amp;nbsp;&lt;div&gt;Drying Process&lt;/div&gt;" style="text;html=1;align=center;verticalAlign=middle;resizable=0;points=[];autosize=1;strokeColor=none;fillColor=none;" parent="1" vertex="1">
          <mxGeometry x="460" y="-624" width="100" height="40" as="geometry" />
        </mxCell>
        <mxCell id="eUxJNlt0HOpgg095ER0J-148" value="Verification" style="text;html=1;align=center;verticalAlign=middle;resizable=0;points=[];autosize=1;strokeColor=none;fillColor=none;" parent="1" vertex="1">
          <mxGeometry x="565" y="-599" width="80" height="30" as="geometry" />
        </mxCell>
        <mxCell id="eUxJNlt0HOpgg095ER0J-149" value="Verification Process" style="text;html=1;align=center;verticalAlign=middle;resizable=0;points=[];autosize=1;strokeColor=none;fillColor=none;" parent="1" vertex="1">
          <mxGeometry x="635" y="-614" width="130" height="30" as="geometry" />
        </mxCell>
        <mxCell id="eUxJNlt0HOpgg095ER0J-150" value="Main Storage&amp;nbsp;&lt;div&gt;for Products&lt;/div&gt;" style="text;html=1;align=center;verticalAlign=middle;resizable=0;points=[];autosize=1;strokeColor=none;fillColor=none;" parent="1" vertex="1">
          <mxGeometry x="745" y="-609" width="100" height="40" as="geometry" />
        </mxCell>
        <mxCell id="eUxJNlt0HOpgg095ER0J-151" value="Transport to&amp;nbsp;&lt;div&gt;Commissioning&lt;/div&gt;" style="text;html=1;align=center;verticalAlign=middle;resizable=0;points=[];autosize=1;strokeColor=none;fillColor=none;" parent="1" vertex="1">
          <mxGeometry x="835" y="-624" width="110" height="40" as="geometry" />
        </mxCell>
        <mxCell id="eUxJNlt0HOpgg095ER0J-152" value="Commissioning" style="text;html=1;align=center;verticalAlign=middle;resizable=0;points=[];autosize=1;strokeColor=none;fillColor=none;" parent="1" vertex="1">
          <mxGeometry x="930" y="-599" width="110" height="30" as="geometry" />
        </mxCell>
        <mxCell id="eUxJNlt0HOpgg095ER0J-153" value="Transport to&amp;nbsp;&lt;div&gt;Powder coating&lt;/div&gt;" style="text;html=1;align=center;verticalAlign=middle;resizable=0;points=[];autosize=1;strokeColor=none;fillColor=none;" parent="1" vertex="1">
          <mxGeometry x="1030" y="-624" width="110" height="40" as="geometry" />
        </mxCell>
        <mxCell id="eUxJNlt0HOpgg095ER0J-154" value="Powder Coating" style="text;html=1;align=center;verticalAlign=middle;resizable=0;points=[];autosize=1;strokeColor=none;fillColor=none;" parent="1" vertex="1">
          <mxGeometry x="1125" y="-599" width="110" height="30" as="geometry" />
        </mxCell>
        <mxCell id="eUxJNlt0HOpgg095ER0J-155" value="Transport to oven" style="text;html=1;align=center;verticalAlign=middle;resizable=0;points=[];autosize=1;strokeColor=none;fillColor=none;" parent="1" vertex="1">
          <mxGeometry x="1215" y="-704" width="120" height="30" as="geometry" />
        </mxCell>
        <mxCell id="eUxJNlt0HOpgg095ER0J-156" value="Transport to oven" style="text;html=1;align=center;verticalAlign=middle;resizable=0;points=[];autosize=1;strokeColor=none;fillColor=none;" parent="1" vertex="1">
          <mxGeometry x="1215" y="-524" width="120" height="30" as="geometry" />
        </mxCell>
        <mxCell id="eUxJNlt0HOpgg095ER0J-157" value="Oven 2" style="text;html=1;align=center;verticalAlign=middle;resizable=0;points=[];autosize=1;strokeColor=none;fillColor=none;" parent="1" vertex="1">
          <mxGeometry x="1340" y="-509" width="60" height="30" as="geometry" />
        </mxCell>
        <mxCell id="eUxJNlt0HOpgg095ER0J-158" value="Oven 1" style="text;html=1;align=center;verticalAlign=middle;resizable=0;points=[];autosize=1;strokeColor=none;fillColor=none;" parent="1" vertex="1">
          <mxGeometry x="1340" y="-689" width="60" height="30" as="geometry" />
        </mxCell>
        <mxCell id="eUxJNlt0HOpgg095ER0J-159" value="Oven Process" style="text;html=1;align=center;verticalAlign=middle;resizable=0;points=[];autosize=1;strokeColor=none;fillColor=none;" parent="1" vertex="1">
          <mxGeometry x="1435" y="-704" width="100" height="30" as="geometry" />
        </mxCell>
        <mxCell id="eUxJNlt0HOpgg095ER0J-160" value="Oven Process" style="text;html=1;align=center;verticalAlign=middle;resizable=0;points=[];autosize=1;strokeColor=none;fillColor=none;" parent="1" vertex="1">
          <mxGeometry x="1435" y="-524" width="100" height="30" as="geometry" />
        </mxCell>
        <mxCell id="eUxJNlt0HOpgg095ER0J-161" value="Montage" style="text;html=1;align=center;verticalAlign=middle;resizable=0;points=[];autosize=1;strokeColor=none;fillColor=none;" parent="1" vertex="1">
          <mxGeometry x="1475" y="-554" width="70" height="30" as="geometry" />
        </mxCell>
        <mxCell id="eUxJNlt0HOpgg095ER0J-162" value="Order to manufacture base" style="text;html=1;align=center;verticalAlign=middle;resizable=0;points=[];autosize=1;strokeColor=none;fillColor=none;" parent="1" vertex="1">
          <mxGeometry x="1577" y="-1060" width="170" height="30" as="geometry" />
        </mxCell>
        <mxCell id="eUxJNlt0HOpgg095ER0J-163" value="Storage of&amp;nbsp;&lt;div&gt;bases&lt;/div&gt;" style="text;html=1;align=center;verticalAlign=middle;resizable=0;points=[];autosize=1;strokeColor=none;fillColor=none;" parent="1" vertex="1">
          <mxGeometry x="1465" y="-813" width="80" height="40" as="geometry" />
        </mxCell>
        <mxCell id="eUxJNlt0HOpgg095ER0J-164" value="Transport&amp;nbsp;&lt;span style=&quot;background-color: initial;&quot;&gt;of&amp;nbsp;&lt;/span&gt;&lt;div&gt;&lt;span style=&quot;background-color: initial;&quot;&gt;bases&lt;/span&gt;&lt;/div&gt;" style="text;html=1;align=center;verticalAlign=middle;resizable=0;points=[];autosize=1;strokeColor=none;fillColor=none;" parent="1" vertex="1">
          <mxGeometry x="1609" y="-718" width="90" height="40" as="geometry" />
        </mxCell>
        <mxCell id="eUxJNlt0HOpgg095ER0J-165" value="Product Order&lt;div&gt;&amp;nbsp;request&lt;/div&gt;" style="text;html=1;align=center;verticalAlign=middle;resizable=0;points=[];autosize=1;strokeColor=none;fillColor=none;" parent="1" vertex="1">
          <mxGeometry x="1612" y="-894" width="100" height="40" as="geometry" />
        </mxCell>
        <mxCell id="eUxJNlt0HOpgg095ER0J-166" value="Electrical Function Mounting" style="text;html=1;align=center;verticalAlign=middle;resizable=0;points=[];autosize=1;strokeColor=none;fillColor=none;" parent="1" vertex="1">
          <mxGeometry x="1795" y="-714" width="170" height="30" as="geometry" />
        </mxCell>
        <mxCell id="eUxJNlt0HOpgg095ER0J-167" value="Electrical Function Order" style="text;html=1;align=center;verticalAlign=middle;resizable=0;points=[];autosize=1;strokeColor=none;fillColor=none;" parent="1" vertex="1">
          <mxGeometry x="1775" y="-813" width="160" height="30" as="geometry" />
        </mxCell>
        <mxCell id="eUxJNlt0HOpgg095ER0J-168" value="Eletrical Function&lt;div&gt;&amp;nbsp;Verification&lt;/div&gt;" style="text;html=1;align=center;verticalAlign=middle;resizable=0;points=[];autosize=1;strokeColor=none;fillColor=none;" parent="1" vertex="1">
          <mxGeometry x="1690" y="-503" width="120" height="40" as="geometry" />
        </mxCell>
        <mxCell id="eUxJNlt0HOpgg095ER0J-169" value="Mounting mechanical parts" style="text;html=1;align=center;verticalAlign=middle;resizable=0;points=[];autosize=1;strokeColor=none;fillColor=none;" parent="1" vertex="1">
          <mxGeometry x="1570" y="-614" width="170" height="30" as="geometry" />
        </mxCell>
        <mxCell id="eUxJNlt0HOpgg095ER0J-170" value="Mouting all parts" style="text;html=1;align=center;verticalAlign=middle;resizable=0;points=[];autosize=1;strokeColor=none;fillColor=none;" parent="1" vertex="1">
          <mxGeometry x="1790" y="-614" width="110" height="30" as="geometry" />
        </mxCell>
        <mxCell id="eUxJNlt0HOpgg095ER0J-171" value="Packaging" style="text;html=1;align=center;verticalAlign=middle;resizable=0;points=[];autosize=1;strokeColor=none;fillColor=none;" parent="1" vertex="1">
          <mxGeometry x="1900" y="-599" width="80" height="30" as="geometry" />
        </mxCell>
        <mxCell id="eUxJNlt0HOpgg095ER0J-172" value="Final Delivery" style="text;html=1;align=center;verticalAlign=middle;resizable=0;points=[];autosize=1;strokeColor=none;fillColor=none;" parent="1" vertex="1">
          <mxGeometry x="1995" y="-614" width="100" height="30" as="geometry" />
        </mxCell>
        <mxCell id="eUxJNlt0HOpgg095ER0J-173" value="Client" style="text;html=1;align=center;verticalAlign=middle;resizable=0;points=[];autosize=1;strokeColor=none;fillColor=none;" parent="1" vertex="1">
          <mxGeometry x="2115" y="-599" width="50" height="30" as="geometry" />
        </mxCell>
        <mxCell id="eUxJNlt0HOpgg095ER0J-174" value="input" style="triangle;whiteSpace=wrap;html=1;direction=south;fillColor=#d5e8d4;strokeColor=#82b366;" parent="1" vertex="1">
          <mxGeometry x="-775" y="-1009" width="80" height="60" as="geometry" />
        </mxCell>
        <mxCell id="eUxJNlt0HOpgg095ER0J-178" value="" style="shape=cylinder3;whiteSpace=wrap;html=1;boundedLbl=1;backgroundOutline=1;size=3.3333333333332575;" parent="1" vertex="1">
          <mxGeometry x="805" y="-524" width="20" height="30" as="geometry" />
        </mxCell>
        <mxCell id="eUxJNlt0HOpgg095ER0J-180" value="" style="shape=cylinder3;whiteSpace=wrap;html=1;boundedLbl=1;backgroundOutline=1;size=3.3333333333332575;" parent="1" vertex="1">
          <mxGeometry x="1577" y="-774" width="20" height="30" as="geometry" />
        </mxCell>
        <mxCell id="eUxJNlt0HOpgg095ER0J-188" value="P.T.: Process Time&lt;div&gt;R.T: Rest Time&lt;/div&gt;&lt;div&gt;S.T: Supplier Time&lt;/div&gt;" style="text;html=1;align=center;verticalAlign=middle;resizable=0;points=[];autosize=1;strokeColor=none;fillColor=none;" parent="1" vertex="1">
          <mxGeometry x="-545" y="-255" width="120" height="60" as="geometry" />
        </mxCell>
        <mxCell id="eUxJNlt0HOpgg095ER0J-189" value="R.T" style="text;html=1;align=center;verticalAlign=middle;resizable=0;points=[];autosize=1;strokeColor=none;fillColor=none;" parent="1" vertex="1">
          <mxGeometry x="-536" y="-718" width="40" height="30" as="geometry" />
        </mxCell>
        <mxCell id="eUxJNlt0HOpgg095ER0J-190" value="R.T" style="text;html=1;align=center;verticalAlign=middle;resizable=0;points=[];autosize=1;strokeColor=none;fillColor=none;" parent="1" vertex="1">
          <mxGeometry x="-534" y="-355" width="40" height="30" as="geometry" />
        </mxCell>
        <mxCell id="eUxJNlt0HOpgg095ER0J-192" value="P.T." style="text;html=1;align=center;verticalAlign=middle;resizable=0;points=[];autosize=1;strokeColor=none;fillColor=none;" parent="1" vertex="1">
          <mxGeometry x="-455" y="-341" width="40" height="30" as="geometry" />
        </mxCell>
        <mxCell id="eUxJNlt0HOpgg095ER0J-193" value="P.T." style="text;html=1;align=center;verticalAlign=middle;resizable=0;points=[];autosize=1;strokeColor=none;fillColor=none;" parent="1" vertex="1">
          <mxGeometry x="-460" y="-697" width="40" height="30" as="geometry" />
        </mxCell>
        <mxCell id="eUxJNlt0HOpgg095ER0J-194" value="R.T." style="text;html=1;align=center;verticalAlign=middle;resizable=0;points=[];autosize=1;strokeColor=none;fillColor=none;" parent="1" vertex="1">
          <mxGeometry x="-354" y="-525" width="40" height="30" as="geometry" />
        </mxCell>
        <mxCell id="eUxJNlt0HOpgg095ER0J-195" value="P.T." style="text;html=1;align=center;verticalAlign=middle;resizable=0;points=[];autosize=1;strokeColor=none;fillColor=none;" parent="1" vertex="1">
          <mxGeometry x="-280" y="-494" width="40" height="30" as="geometry" />
        </mxCell>
        <mxCell id="eUxJNlt0HOpgg095ER0J-196" value="R.T." style="text;html=1;align=center;verticalAlign=middle;resizable=0;points=[];autosize=1;strokeColor=none;fillColor=none;" parent="1" vertex="1">
          <mxGeometry x="-161" y="-519" width="40" height="30" as="geometry" />
        </mxCell>
        <mxCell id="eUxJNlt0HOpgg095ER0J-197" value="P.T." style="text;html=1;align=center;verticalAlign=middle;resizable=0;points=[];autosize=1;strokeColor=none;fillColor=none;" parent="1" vertex="1">
          <mxGeometry x="-85" y="-494" width="40" height="30" as="geometry" />
        </mxCell>
        <mxCell id="eUxJNlt0HOpgg095ER0J-198" value="P.T." style="text;html=1;align=center;verticalAlign=middle;resizable=0;points=[];autosize=1;strokeColor=none;fillColor=none;" parent="1" vertex="1">
          <mxGeometry x="105" y="-494" width="40" height="30" as="geometry" />
        </mxCell>
        <mxCell id="eUxJNlt0HOpgg095ER0J-199" value="P.T." style="text;html=1;align=center;verticalAlign=middle;resizable=0;points=[];autosize=1;strokeColor=none;fillColor=none;" parent="1" vertex="1">
          <mxGeometry x="295" y="-495" width="40" height="30" as="geometry" />
        </mxCell>
        <mxCell id="eUxJNlt0HOpgg095ER0J-200" value="P.T." style="text;html=1;align=center;verticalAlign=middle;resizable=0;points=[];autosize=1;strokeColor=none;fillColor=none;" parent="1" vertex="1">
          <mxGeometry x="485" y="-495" width="40" height="30" as="geometry" />
        </mxCell>
        <mxCell id="eUxJNlt0HOpgg095ER0J-201" value="P.T." style="text;html=1;align=center;verticalAlign=middle;resizable=0;points=[];autosize=1;strokeColor=none;fillColor=none;" parent="1" vertex="1">
          <mxGeometry x="675" y="-494" width="40" height="30" as="geometry" />
        </mxCell>
        <mxCell id="eUxJNlt0HOpgg095ER0J-202" value="P.T." style="text;html=1;align=center;verticalAlign=middle;resizable=0;points=[];autosize=1;strokeColor=none;fillColor=none;" parent="1" vertex="1">
          <mxGeometry x="870" y="-494" width="40" height="30" as="geometry" />
        </mxCell>
        <mxCell id="eUxJNlt0HOpgg095ER0J-203" value="P.T." style="text;html=1;align=center;verticalAlign=middle;resizable=0;points=[];autosize=1;strokeColor=none;fillColor=none;" parent="1" vertex="1">
          <mxGeometry x="1065" y="-494" width="40" height="30" as="geometry" />
        </mxCell>
        <mxCell id="eUxJNlt0HOpgg095ER0J-204" value="P.T." style="text;html=1;align=center;verticalAlign=middle;resizable=0;points=[];autosize=1;strokeColor=none;fillColor=none;" parent="1" vertex="1">
          <mxGeometry x="1255" y="-404" width="40" height="30" as="geometry" />
        </mxCell>
        <mxCell id="eUxJNlt0HOpgg095ER0J-205" value="P.T." style="text;html=1;align=center;verticalAlign=middle;resizable=0;points=[];autosize=1;strokeColor=none;fillColor=none;" parent="1" vertex="1">
          <mxGeometry x="1255" y="-584" width="40" height="30" as="geometry" />
        </mxCell>
        <mxCell id="eUxJNlt0HOpgg095ER0J-206" value="P.T." style="text;html=1;align=center;verticalAlign=middle;resizable=0;points=[];autosize=1;strokeColor=none;fillColor=none;" parent="1" vertex="1">
          <mxGeometry x="1465" y="-404" width="40" height="30" as="geometry" />
        </mxCell>
        <mxCell id="eUxJNlt0HOpgg095ER0J-207" value="P.T." style="text;html=1;align=center;verticalAlign=middle;resizable=0;points=[];autosize=1;strokeColor=none;fillColor=none;" parent="1" vertex="1">
          <mxGeometry x="1465" y="-584" width="40" height="30" as="geometry" />
        </mxCell>
        <mxCell id="eUxJNlt0HOpgg095ER0J-208" value="P.T." style="text;html=1;align=center;verticalAlign=middle;resizable=0;points=[];autosize=1;strokeColor=none;fillColor=none;" parent="1" vertex="1">
          <mxGeometry x="1635" y="-495" width="40" height="30" as="geometry" />
        </mxCell>
        <mxCell id="eUxJNlt0HOpgg095ER0J-209" value="P.T." style="text;html=1;align=center;verticalAlign=middle;resizable=0;points=[];autosize=1;strokeColor=none;fillColor=none;" parent="1" vertex="1">
          <mxGeometry x="1825" y="-494" width="40" height="30" as="geometry" />
        </mxCell>
        <mxCell id="eUxJNlt0HOpgg095ER0J-210" value="P.T." style="text;html=1;align=center;verticalAlign=middle;resizable=0;points=[];autosize=1;strokeColor=none;fillColor=none;" parent="1" vertex="1">
          <mxGeometry x="2025" y="-495" width="40" height="30" as="geometry" />
        </mxCell>
        <mxCell id="eUxJNlt0HOpgg095ER0J-211" value="R.T." style="text;html=1;align=center;verticalAlign=middle;resizable=0;points=[];autosize=1;strokeColor=none;fillColor=none;" parent="1" vertex="1">
          <mxGeometry x="40" y="-519" width="40" height="30" as="geometry" />
        </mxCell>
        <mxCell id="eUxJNlt0HOpgg095ER0J-212" value="R.T." style="text;html=1;align=center;verticalAlign=middle;resizable=0;points=[];autosize=1;strokeColor=none;fillColor=none;" parent="1" vertex="1">
          <mxGeometry x="165" y="-519" width="40" height="30" as="geometry" />
        </mxCell>
        <mxCell id="eUxJNlt0HOpgg095ER0J-213" value="R.T." style="text;html=1;align=center;verticalAlign=middle;resizable=0;points=[];autosize=1;strokeColor=none;fillColor=none;" parent="1" vertex="1">
          <mxGeometry x="415" y="-519" width="40" height="30" as="geometry" />
        </mxCell>
        <mxCell id="eUxJNlt0HOpgg095ER0J-214" value="R.T." style="text;html=1;align=center;verticalAlign=middle;resizable=0;points=[];autosize=1;strokeColor=none;fillColor=none;" parent="1" vertex="1">
          <mxGeometry x="605" y="-519" width="40" height="30" as="geometry" />
        </mxCell>
        <mxCell id="eUxJNlt0HOpgg095ER0J-215" value="R.T." style="text;html=1;align=center;verticalAlign=middle;resizable=0;points=[];autosize=1;strokeColor=none;fillColor=none;" parent="1" vertex="1">
          <mxGeometry x="745" y="-519" width="40" height="30" as="geometry" />
        </mxCell>
        <mxCell id="eUxJNlt0HOpgg095ER0J-216" value="R.T." style="text;html=1;align=center;verticalAlign=middle;resizable=0;points=[];autosize=1;strokeColor=none;fillColor=none;" parent="1" vertex="1">
          <mxGeometry x="990" y="-519" width="40" height="30" as="geometry" />
        </mxCell>
        <mxCell id="eUxJNlt0HOpgg095ER0J-217" value="R.T." style="text;html=1;align=center;verticalAlign=middle;resizable=0;points=[];autosize=1;strokeColor=none;fillColor=none;" parent="1" vertex="1">
          <mxGeometry x="1135" y="-519" width="40" height="30" as="geometry" />
        </mxCell>
        <mxCell id="eUxJNlt0HOpgg095ER0J-218" value="R.T." style="text;html=1;align=center;verticalAlign=middle;resizable=0;points=[];autosize=1;strokeColor=none;fillColor=none;" parent="1" vertex="1">
          <mxGeometry x="1385" y="-434" width="40" height="30" as="geometry" />
        </mxCell>
        <mxCell id="eUxJNlt0HOpgg095ER0J-219" value="R.T." style="text;html=1;align=center;verticalAlign=middle;resizable=0;points=[];autosize=1;strokeColor=none;fillColor=none;" parent="1" vertex="1">
          <mxGeometry x="1385" y="-619" width="40" height="30" as="geometry" />
        </mxCell>
        <mxCell id="eUxJNlt0HOpgg095ER0J-220" value="R.T." style="text;html=1;align=center;verticalAlign=middle;resizable=0;points=[];autosize=1;strokeColor=none;fillColor=none;" parent="1" vertex="1">
          <mxGeometry x="1577" y="-524" width="40" height="30" as="geometry" />
        </mxCell>
        <mxCell id="eUxJNlt0HOpgg095ER0J-221" value="R.T." style="text;html=1;align=center;verticalAlign=middle;resizable=0;points=[];autosize=1;strokeColor=none;fillColor=none;" parent="1" vertex="1">
          <mxGeometry x="1760" y="-525" width="40" height="30" as="geometry" />
        </mxCell>
        <mxCell id="eUxJNlt0HOpgg095ER0J-222" value="R.T." style="text;html=1;align=center;verticalAlign=middle;resizable=0;points=[];autosize=1;strokeColor=none;fillColor=none;" parent="1" vertex="1">
          <mxGeometry x="1940" y="-519" width="40" height="30" as="geometry" />
        </mxCell>
        <mxCell id="eUxJNlt0HOpgg095ER0J-223" value="R.T." style="text;html=1;align=center;verticalAlign=middle;resizable=0;points=[];autosize=1;strokeColor=none;fillColor=none;" parent="1" vertex="1">
          <mxGeometry x="1595" y="-773" width="40" height="30" as="geometry" />
        </mxCell>
        <mxCell id="eUxJNlt0HOpgg095ER0J-225" value="P.T." style="text;html=1;align=center;verticalAlign=middle;resizable=0;points=[];autosize=1;strokeColor=none;fillColor=none;" parent="1" vertex="1">
          <mxGeometry x="1582" y="-693" width="40" height="30" as="geometry" />
        </mxCell>
        <mxCell id="eUxJNlt0HOpgg095ER0J-226" value="P.T." style="text;html=1;align=center;verticalAlign=middle;resizable=0;points=[];autosize=1;strokeColor=none;fillColor=none;" parent="1" vertex="1">
          <mxGeometry x="1755" y="-689" width="40" height="30" as="geometry" />
        </mxCell>
        <mxCell id="sAIwI4nGpeulssWVe8KQ-1" value="Material Flux without storage" style="text;html=1;align=center;verticalAlign=middle;resizable=0;points=[];autosize=1;strokeColor=none;fillColor=none;" parent="1" vertex="1">
          <mxGeometry x="-780" y="-1060" width="180" height="30" as="geometry" />
        </mxCell>
        <mxCell id="sAIwI4nGpeulssWVe8KQ-73" style="edgeStyle=orthogonalEdgeStyle;rounded=0;orthogonalLoop=1;jettySize=auto;html=1;exitX=1;exitY=0.5;exitDx=0;exitDy=0;" parent="1" source="sAIwI4nGpeulssWVe8KQ-65" target="eUxJNlt0HOpgg095ER0J-79" edge="1">
          <mxGeometry relative="1" as="geometry">
            <Array as="points">
              <mxPoint x="1398" y="-729" />
              <mxPoint x="1555" y="-729" />
            </Array>
          </mxGeometry>
        </mxCell>
        <mxCell id="sAIwI4nGpeulssWVe8KQ-65" value="" style="rounded=0;whiteSpace=wrap;html=1;fillColor=#000000;rotation=-90;" parent="1" vertex="1">
          <mxGeometry x="1387.5" y="-817.5" width="20" height="90" as="geometry" />
        </mxCell>
        <mxCell id="sAIwI4nGpeulssWVe8KQ-66" value="" style="edgeStyle=orthogonalEdgeStyle;rounded=0;orthogonalLoop=1;jettySize=auto;html=1;" parent="1" source="sAIwI4nGpeulssWVe8KQ-67" target="sAIwI4nGpeulssWVe8KQ-65" edge="1">
          <mxGeometry relative="1" as="geometry" />
        </mxCell>
        <mxCell id="sAIwI4nGpeulssWVe8KQ-67" value="" style="ellipse;whiteSpace=wrap;html=1;aspect=fixed;" parent="1" vertex="1">
          <mxGeometry x="1367.5" y="-936" width="60" height="60" as="geometry" />
        </mxCell>
        <mxCell id="sAIwI4nGpeulssWVe8KQ-68" value="3D Printer" style="text;html=1;align=center;verticalAlign=middle;resizable=0;points=[];autosize=1;strokeColor=none;fillColor=none;" parent="1" vertex="1">
          <mxGeometry x="1285" y="-918" width="80" height="30" as="geometry" />
        </mxCell>
        <mxCell id="sAIwI4nGpeulssWVe8KQ-69" value="3D Printing" style="text;html=1;align=center;verticalAlign=middle;resizable=0;points=[];autosize=1;strokeColor=none;fillColor=none;" parent="1" vertex="1">
          <mxGeometry x="1275" y="-787.5" width="80" height="30" as="geometry" />
        </mxCell>
        <mxCell id="sAIwI4nGpeulssWVe8KQ-70" value="R.T." style="text;html=1;align=center;verticalAlign=middle;resizable=0;points=[];autosize=1;strokeColor=none;fillColor=none;" parent="1" vertex="1">
          <mxGeometry x="1402.5" y="-753.5" width="40" height="30" as="geometry" />
        </mxCell>
        <mxCell id="sAIwI4nGpeulssWVe8KQ-71" value="P.T." style="text;html=1;align=center;verticalAlign=middle;resizable=0;points=[];autosize=1;strokeColor=none;fillColor=none;" parent="1" vertex="1">
          <mxGeometry x="1435" y="-787.5" width="40" height="30" as="geometry" />
        </mxCell>
        <mxCell id="udwKPdp13qZEXDaH-4BK-2" value="" style="shape=cylinder3;whiteSpace=wrap;html=1;boundedLbl=1;backgroundOutline=1;size=3.3333333333332575;" vertex="1" parent="1">
          <mxGeometry x="227" y="-531" width="20" height="30" as="geometry" />
        </mxCell>
        <mxCell id="udwKPdp13qZEXDaH-4BK-4" style="edgeStyle=orthogonalEdgeStyle;rounded=0;orthogonalLoop=1;jettySize=auto;html=1;entryX=0;entryY=0.5;entryDx=0;entryDy=0;" edge="1" parent="1" source="udwKPdp13qZEXDaH-4BK-8" target="udwKPdp13qZEXDaH-4BK-13">
          <mxGeometry relative="1" as="geometry" />
        </mxCell>
        <mxCell id="udwKPdp13qZEXDaH-4BK-5" style="edgeStyle=orthogonalEdgeStyle;rounded=0;orthogonalLoop=1;jettySize=auto;html=1;exitX=1;exitY=0.5;exitDx=0;exitDy=0;entryX=0;entryY=0.25;entryDx=0;entryDy=0;" edge="1" parent="1" source="udwKPdp13qZEXDaH-4BK-8" target="udwKPdp13qZEXDaH-4BK-13">
          <mxGeometry relative="1" as="geometry" />
        </mxCell>
        <mxCell id="udwKPdp13qZEXDaH-4BK-6" style="edgeStyle=orthogonalEdgeStyle;rounded=0;orthogonalLoop=1;jettySize=auto;html=1;exitX=1;exitY=0.5;exitDx=0;exitDy=0;entryX=0;entryY=0.75;entryDx=0;entryDy=0;" edge="1" parent="1" source="udwKPdp13qZEXDaH-4BK-8" target="udwKPdp13qZEXDaH-4BK-13">
          <mxGeometry relative="1" as="geometry" />
        </mxCell>
        <mxCell id="udwKPdp13qZEXDaH-4BK-7" style="edgeStyle=orthogonalEdgeStyle;rounded=0;orthogonalLoop=1;jettySize=auto;html=1;exitX=1;exitY=0.5;exitDx=0;exitDy=0;entryX=0;entryY=0;entryDx=0;entryDy=0;" edge="1" parent="1" source="udwKPdp13qZEXDaH-4BK-8" target="udwKPdp13qZEXDaH-4BK-13">
          <mxGeometry relative="1" as="geometry">
            <Array as="points">
              <mxPoint x="-62" y="402" />
              <mxPoint x="-62" y="357" />
            </Array>
          </mxGeometry>
        </mxCell>
        <mxCell id="udwKPdp13qZEXDaH-4BK-8" value="" style="ellipse;whiteSpace=wrap;html=1;aspect=fixed;" vertex="1" parent="1">
          <mxGeometry x="-150" y="372" width="60" height="60" as="geometry" />
        </mxCell>
        <mxCell id="udwKPdp13qZEXDaH-4BK-9" style="edgeStyle=orthogonalEdgeStyle;rounded=0;orthogonalLoop=1;jettySize=auto;html=1;exitX=1;exitY=0;exitDx=0;exitDy=0;entryX=0;entryY=0.5;entryDx=0;entryDy=0;" edge="1" parent="1" source="udwKPdp13qZEXDaH-4BK-13" target="udwKPdp13qZEXDaH-4BK-15">
          <mxGeometry relative="1" as="geometry">
            <Array as="points">
              <mxPoint x="13" y="357" />
              <mxPoint x="13" y="402" />
            </Array>
          </mxGeometry>
        </mxCell>
        <mxCell id="udwKPdp13qZEXDaH-4BK-10" style="edgeStyle=orthogonalEdgeStyle;rounded=0;orthogonalLoop=1;jettySize=auto;html=1;exitX=1;exitY=0.25;exitDx=0;exitDy=0;entryX=0;entryY=0.5;entryDx=0;entryDy=0;" edge="1" parent="1" source="udwKPdp13qZEXDaH-4BK-13" target="udwKPdp13qZEXDaH-4BK-15">
          <mxGeometry relative="1" as="geometry" />
        </mxCell>
        <mxCell id="udwKPdp13qZEXDaH-4BK-11" style="edgeStyle=orthogonalEdgeStyle;rounded=0;orthogonalLoop=1;jettySize=auto;html=1;exitX=1;exitY=0.5;exitDx=0;exitDy=0;" edge="1" parent="1" source="udwKPdp13qZEXDaH-4BK-13">
          <mxGeometry relative="1" as="geometry">
            <mxPoint x="40" y="402.20000000000005" as="targetPoint" />
          </mxGeometry>
        </mxCell>
        <mxCell id="udwKPdp13qZEXDaH-4BK-12" style="edgeStyle=orthogonalEdgeStyle;rounded=0;orthogonalLoop=1;jettySize=auto;html=1;exitX=1;exitY=0.75;exitDx=0;exitDy=0;entryX=0;entryY=0.5;entryDx=0;entryDy=0;" edge="1" parent="1" source="udwKPdp13qZEXDaH-4BK-13" target="udwKPdp13qZEXDaH-4BK-15">
          <mxGeometry relative="1" as="geometry" />
        </mxCell>
        <mxCell id="udwKPdp13qZEXDaH-4BK-13" value="" style="rounded=0;whiteSpace=wrap;html=1;fillColor=#000000;" vertex="1" parent="1">
          <mxGeometry x="-35" y="357" width="20" height="90" as="geometry" />
        </mxCell>
        <mxCell id="udwKPdp13qZEXDaH-4BK-14" style="edgeStyle=orthogonalEdgeStyle;rounded=0;orthogonalLoop=1;jettySize=auto;html=1;exitX=1;exitY=0.5;exitDx=0;exitDy=0;entryX=0;entryY=0.5;entryDx=0;entryDy=0;" edge="1" parent="1" source="udwKPdp13qZEXDaH-4BK-15" target="udwKPdp13qZEXDaH-4BK-29">
          <mxGeometry relative="1" as="geometry" />
        </mxCell>
        <mxCell id="udwKPdp13qZEXDaH-4BK-15" value="" style="ellipse;whiteSpace=wrap;html=1;aspect=fixed;" vertex="1" parent="1">
          <mxGeometry x="40" y="372" width="60" height="60" as="geometry" />
        </mxCell>
        <mxCell id="udwKPdp13qZEXDaH-4BK-16" value="" style="edgeStyle=orthogonalEdgeStyle;rounded=0;orthogonalLoop=1;jettySize=auto;html=1;" edge="1" parent="1" source="udwKPdp13qZEXDaH-4BK-17" target="udwKPdp13qZEXDaH-4BK-19">
          <mxGeometry relative="1" as="geometry" />
        </mxCell>
        <mxCell id="udwKPdp13qZEXDaH-4BK-17" value="" style="ellipse;whiteSpace=wrap;html=1;aspect=fixed;" vertex="1" parent="1">
          <mxGeometry x="-725" y="372" width="60" height="60" as="geometry" />
        </mxCell>
        <mxCell id="udwKPdp13qZEXDaH-4BK-18" value="" style="edgeStyle=orthogonalEdgeStyle;rounded=0;orthogonalLoop=1;jettySize=auto;html=1;" edge="1" parent="1" source="udwKPdp13qZEXDaH-4BK-19" target="udwKPdp13qZEXDaH-4BK-21">
          <mxGeometry relative="1" as="geometry" />
        </mxCell>
        <mxCell id="udwKPdp13qZEXDaH-4BK-19" value="" style="rounded=0;whiteSpace=wrap;html=1;fillColor=#000000;" vertex="1" parent="1">
          <mxGeometry x="-610" y="357" width="20" height="90" as="geometry" />
        </mxCell>
        <mxCell id="udwKPdp13qZEXDaH-4BK-20" value="" style="edgeStyle=orthogonalEdgeStyle;rounded=0;orthogonalLoop=1;jettySize=auto;html=1;" edge="1" parent="1" source="udwKPdp13qZEXDaH-4BK-21" target="udwKPdp13qZEXDaH-4BK-23">
          <mxGeometry relative="1" as="geometry" />
        </mxCell>
        <mxCell id="udwKPdp13qZEXDaH-4BK-21" value="" style="ellipse;whiteSpace=wrap;html=1;aspect=fixed;" vertex="1" parent="1">
          <mxGeometry x="-535" y="372" width="60" height="60" as="geometry" />
        </mxCell>
        <mxCell id="udwKPdp13qZEXDaH-4BK-22" value="" style="edgeStyle=orthogonalEdgeStyle;rounded=0;orthogonalLoop=1;jettySize=auto;html=1;" edge="1" parent="1" source="udwKPdp13qZEXDaH-4BK-23" target="udwKPdp13qZEXDaH-4BK-25">
          <mxGeometry relative="1" as="geometry" />
        </mxCell>
        <mxCell id="udwKPdp13qZEXDaH-4BK-23" value="" style="rounded=0;whiteSpace=wrap;html=1;fillColor=#000000;" vertex="1" parent="1">
          <mxGeometry x="-420" y="357" width="20" height="90" as="geometry" />
        </mxCell>
        <mxCell id="udwKPdp13qZEXDaH-4BK-24" value="" style="edgeStyle=orthogonalEdgeStyle;rounded=0;orthogonalLoop=1;jettySize=auto;html=1;" edge="1" parent="1" source="udwKPdp13qZEXDaH-4BK-25" target="udwKPdp13qZEXDaH-4BK-27">
          <mxGeometry relative="1" as="geometry" />
        </mxCell>
        <mxCell id="udwKPdp13qZEXDaH-4BK-25" value="" style="ellipse;whiteSpace=wrap;html=1;aspect=fixed;" vertex="1" parent="1">
          <mxGeometry x="-345" y="372" width="60" height="60" as="geometry" />
        </mxCell>
        <mxCell id="udwKPdp13qZEXDaH-4BK-26" value="" style="edgeStyle=orthogonalEdgeStyle;rounded=0;orthogonalLoop=1;jettySize=auto;html=1;" edge="1" parent="1" source="udwKPdp13qZEXDaH-4BK-27" target="udwKPdp13qZEXDaH-4BK-8">
          <mxGeometry relative="1" as="geometry" />
        </mxCell>
        <mxCell id="udwKPdp13qZEXDaH-4BK-27" value="" style="rounded=0;whiteSpace=wrap;html=1;fillColor=#000000;" vertex="1" parent="1">
          <mxGeometry x="-230" y="357" width="20" height="90" as="geometry" />
        </mxCell>
        <mxCell id="udwKPdp13qZEXDaH-4BK-28" style="edgeStyle=orthogonalEdgeStyle;rounded=0;orthogonalLoop=1;jettySize=auto;html=1;exitX=1;exitY=0.5;exitDx=0;exitDy=0;" edge="1" parent="1" source="udwKPdp13qZEXDaH-4BK-29" target="udwKPdp13qZEXDaH-4BK-32">
          <mxGeometry relative="1" as="geometry" />
        </mxCell>
        <mxCell id="udwKPdp13qZEXDaH-4BK-29" value="" style="rounded=0;whiteSpace=wrap;html=1;fillColor=#000000;" vertex="1" parent="1">
          <mxGeometry x="160" y="357" width="20" height="90" as="geometry" />
        </mxCell>
        <mxCell id="udwKPdp13qZEXDaH-4BK-30" style="edgeStyle=orthogonalEdgeStyle;rounded=0;orthogonalLoop=1;jettySize=auto;html=1;exitX=1;exitY=0;exitDx=0;exitDy=0;entryX=0;entryY=0.5;entryDx=0;entryDy=0;" edge="1" parent="1" source="udwKPdp13qZEXDaH-4BK-32" target="udwKPdp13qZEXDaH-4BK-34">
          <mxGeometry relative="1" as="geometry" />
        </mxCell>
        <mxCell id="udwKPdp13qZEXDaH-4BK-31" style="edgeStyle=orthogonalEdgeStyle;rounded=0;orthogonalLoop=1;jettySize=auto;html=1;exitX=1;exitY=1;exitDx=0;exitDy=0;entryX=0;entryY=0.5;entryDx=0;entryDy=0;" edge="1" parent="1" source="udwKPdp13qZEXDaH-4BK-32" target="udwKPdp13qZEXDaH-4BK-38">
          <mxGeometry relative="1" as="geometry" />
        </mxCell>
        <mxCell id="udwKPdp13qZEXDaH-4BK-32" value="" style="ellipse;whiteSpace=wrap;html=1;aspect=fixed;" vertex="1" parent="1">
          <mxGeometry x="235" y="372" width="60" height="60" as="geometry" />
        </mxCell>
        <mxCell id="udwKPdp13qZEXDaH-4BK-33" style="edgeStyle=orthogonalEdgeStyle;rounded=0;orthogonalLoop=1;jettySize=auto;html=1;entryX=0;entryY=0.5;entryDx=0;entryDy=0;" edge="1" parent="1" source="udwKPdp13qZEXDaH-4BK-34" target="udwKPdp13qZEXDaH-4BK-36">
          <mxGeometry relative="1" as="geometry" />
        </mxCell>
        <mxCell id="udwKPdp13qZEXDaH-4BK-34" value="" style="rounded=0;whiteSpace=wrap;html=1;fillColor=#000000;" vertex="1" parent="1">
          <mxGeometry x="350" y="267" width="20" height="90" as="geometry" />
        </mxCell>
        <mxCell id="udwKPdp13qZEXDaH-4BK-35" style="edgeStyle=orthogonalEdgeStyle;rounded=0;orthogonalLoop=1;jettySize=auto;html=1;entryX=0;entryY=0.5;entryDx=0;entryDy=0;" edge="1" parent="1" source="udwKPdp13qZEXDaH-4BK-36" target="udwKPdp13qZEXDaH-4BK-42">
          <mxGeometry relative="1" as="geometry" />
        </mxCell>
        <mxCell id="udwKPdp13qZEXDaH-4BK-36" value="" style="ellipse;whiteSpace=wrap;html=1;aspect=fixed;" vertex="1" parent="1">
          <mxGeometry x="425" y="282" width="60" height="60" as="geometry" />
        </mxCell>
        <mxCell id="udwKPdp13qZEXDaH-4BK-37" style="edgeStyle=orthogonalEdgeStyle;rounded=0;orthogonalLoop=1;jettySize=auto;html=1;entryX=0;entryY=0.5;entryDx=0;entryDy=0;" edge="1" parent="1" source="udwKPdp13qZEXDaH-4BK-38" target="udwKPdp13qZEXDaH-4BK-40">
          <mxGeometry relative="1" as="geometry" />
        </mxCell>
        <mxCell id="udwKPdp13qZEXDaH-4BK-38" value="" style="rounded=0;whiteSpace=wrap;html=1;fillColor=#000000;" vertex="1" parent="1">
          <mxGeometry x="350" y="447" width="20" height="90" as="geometry" />
        </mxCell>
        <mxCell id="udwKPdp13qZEXDaH-4BK-39" style="edgeStyle=orthogonalEdgeStyle;rounded=0;orthogonalLoop=1;jettySize=auto;html=1;entryX=0;entryY=0.5;entryDx=0;entryDy=0;" edge="1" parent="1" source="udwKPdp13qZEXDaH-4BK-40" target="udwKPdp13qZEXDaH-4BK-59">
          <mxGeometry relative="1" as="geometry" />
        </mxCell>
        <mxCell id="udwKPdp13qZEXDaH-4BK-40" value="" style="ellipse;whiteSpace=wrap;html=1;aspect=fixed;" vertex="1" parent="1">
          <mxGeometry x="425" y="462" width="60" height="60" as="geometry" />
        </mxCell>
        <mxCell id="udwKPdp13qZEXDaH-4BK-41" style="edgeStyle=orthogonalEdgeStyle;rounded=0;orthogonalLoop=1;jettySize=auto;html=1;exitX=1;exitY=0.5;exitDx=0;exitDy=0;entryX=0.5;entryY=0;entryDx=0;entryDy=0;" edge="1" parent="1" source="udwKPdp13qZEXDaH-4BK-42" target="udwKPdp13qZEXDaH-4BK-47">
          <mxGeometry relative="1" as="geometry" />
        </mxCell>
        <mxCell id="udwKPdp13qZEXDaH-4BK-42" value="" style="rounded=0;whiteSpace=wrap;html=1;fillColor=#000000;" vertex="1" parent="1">
          <mxGeometry x="560" y="267" width="20" height="90" as="geometry" />
        </mxCell>
        <mxCell id="udwKPdp13qZEXDaH-4BK-43" style="edgeStyle=orthogonalEdgeStyle;rounded=0;orthogonalLoop=1;jettySize=auto;html=1;" edge="1" parent="1" source="udwKPdp13qZEXDaH-4BK-47" target="udwKPdp13qZEXDaH-4BK-61">
          <mxGeometry relative="1" as="geometry" />
        </mxCell>
        <mxCell id="udwKPdp13qZEXDaH-4BK-44" style="edgeStyle=orthogonalEdgeStyle;rounded=0;orthogonalLoop=1;jettySize=auto;html=1;exitX=1;exitY=1;exitDx=0;exitDy=0;entryX=0;entryY=1;entryDx=0;entryDy=0;" edge="1" parent="1" source="udwKPdp13qZEXDaH-4BK-47" target="udwKPdp13qZEXDaH-4BK-61">
          <mxGeometry relative="1" as="geometry">
            <Array as="points">
              <mxPoint x="708" y="423" />
              <mxPoint x="708" y="447" />
            </Array>
          </mxGeometry>
        </mxCell>
        <mxCell id="udwKPdp13qZEXDaH-4BK-45" style="edgeStyle=orthogonalEdgeStyle;rounded=0;orthogonalLoop=1;jettySize=auto;html=1;exitX=1;exitY=0;exitDx=0;exitDy=0;entryX=0;entryY=0;entryDx=0;entryDy=0;" edge="1" parent="1" source="udwKPdp13qZEXDaH-4BK-47" target="udwKPdp13qZEXDaH-4BK-61">
          <mxGeometry relative="1" as="geometry">
            <Array as="points">
              <mxPoint x="708" y="381" />
              <mxPoint x="708" y="357" />
            </Array>
          </mxGeometry>
        </mxCell>
        <mxCell id="udwKPdp13qZEXDaH-4BK-46" style="edgeStyle=orthogonalEdgeStyle;rounded=0;orthogonalLoop=1;jettySize=auto;html=1;exitX=1;exitY=0.5;exitDx=0;exitDy=0;entryX=0;entryY=0.75;entryDx=0;entryDy=0;" edge="1" parent="1" source="udwKPdp13qZEXDaH-4BK-47" target="udwKPdp13qZEXDaH-4BK-61">
          <mxGeometry relative="1" as="geometry" />
        </mxCell>
        <mxCell id="udwKPdp13qZEXDaH-4BK-47" value="" style="ellipse;whiteSpace=wrap;html=1;aspect=fixed;" vertex="1" parent="1">
          <mxGeometry x="625" y="372" width="60" height="60" as="geometry" />
        </mxCell>
        <mxCell id="udwKPdp13qZEXDaH-4BK-48" style="edgeStyle=orthogonalEdgeStyle;rounded=0;orthogonalLoop=1;jettySize=auto;html=1;exitX=0;exitY=0.5;exitDx=0;exitDy=0;entryX=0.5;entryY=0;entryDx=0;entryDy=0;" edge="1" parent="1" source="udwKPdp13qZEXDaH-4BK-49" target="udwKPdp13qZEXDaH-4BK-47">
          <mxGeometry relative="1" as="geometry" />
        </mxCell>
        <mxCell id="udwKPdp13qZEXDaH-4BK-49" value="" style="rounded=0;whiteSpace=wrap;html=1;fillColor=#000000;rotation=-90;" vertex="1" parent="1">
          <mxGeometry x="645" y="197" width="20" height="90" as="geometry" />
        </mxCell>
        <mxCell id="udwKPdp13qZEXDaH-4BK-50" value="" style="edgeStyle=orthogonalEdgeStyle;rounded=0;orthogonalLoop=1;jettySize=auto;html=1;" edge="1" parent="1" source="udwKPdp13qZEXDaH-4BK-51" target="udwKPdp13qZEXDaH-4BK-49">
          <mxGeometry relative="1" as="geometry" />
        </mxCell>
        <mxCell id="udwKPdp13qZEXDaH-4BK-51" value="" style="ellipse;whiteSpace=wrap;html=1;aspect=fixed;" vertex="1" parent="1">
          <mxGeometry x="625" y="118" width="60" height="60" as="geometry" />
        </mxCell>
        <mxCell id="udwKPdp13qZEXDaH-4BK-53" style="edgeStyle=orthogonalEdgeStyle;rounded=0;orthogonalLoop=1;jettySize=auto;html=1;entryX=0.5;entryY=0;entryDx=0;entryDy=0;" edge="1" parent="1" source="udwKPdp13qZEXDaH-4BK-55" target="udwKPdp13qZEXDaH-4BK-68">
          <mxGeometry relative="1" as="geometry">
            <Array as="points">
              <mxPoint x="835" y="35" />
            </Array>
          </mxGeometry>
        </mxCell>
        <mxCell id="udwKPdp13qZEXDaH-4BK-54" style="edgeStyle=orthogonalEdgeStyle;rounded=0;orthogonalLoop=1;jettySize=auto;html=1;exitX=0.75;exitY=0;exitDx=0;exitDy=0;entryX=1;entryY=0.5;entryDx=0;entryDy=0;" edge="1" parent="1" source="udwKPdp13qZEXDaH-4BK-55" target="udwKPdp13qZEXDaH-4BK-139">
          <mxGeometry relative="1" as="geometry">
            <Array as="points">
              <mxPoint x="702" y="35" />
              <mxPoint x="512" y="35" />
            </Array>
          </mxGeometry>
        </mxCell>
        <mxCell id="udwKPdp13qZEXDaH-4BK-55" value="" style="rounded=0;whiteSpace=wrap;html=1;fillColor=#000000;rotation=-90;" vertex="1" parent="1">
          <mxGeometry x="737" y="-10" width="20" height="90" as="geometry" />
        </mxCell>
        <mxCell id="udwKPdp13qZEXDaH-4BK-56" value="" style="edgeStyle=orthogonalEdgeStyle;rounded=0;orthogonalLoop=1;jettySize=auto;html=1;" edge="1" parent="1" source="udwKPdp13qZEXDaH-4BK-57" target="udwKPdp13qZEXDaH-4BK-55">
          <mxGeometry relative="1" as="geometry" />
        </mxCell>
        <mxCell id="udwKPdp13qZEXDaH-4BK-57" value="" style="ellipse;whiteSpace=wrap;html=1;aspect=fixed;" vertex="1" parent="1">
          <mxGeometry x="717" y="-89" width="60" height="60" as="geometry" />
        </mxCell>
        <mxCell id="udwKPdp13qZEXDaH-4BK-58" style="edgeStyle=orthogonalEdgeStyle;rounded=0;orthogonalLoop=1;jettySize=auto;html=1;exitX=1;exitY=0.5;exitDx=0;exitDy=0;" edge="1" parent="1" source="udwKPdp13qZEXDaH-4BK-59" target="udwKPdp13qZEXDaH-4BK-47">
          <mxGeometry relative="1" as="geometry" />
        </mxCell>
        <mxCell id="udwKPdp13qZEXDaH-4BK-59" value="" style="rounded=0;whiteSpace=wrap;html=1;fillColor=#000000;" vertex="1" parent="1">
          <mxGeometry x="560" y="447" width="20" height="90" as="geometry" />
        </mxCell>
        <mxCell id="udwKPdp13qZEXDaH-4BK-60" style="edgeStyle=orthogonalEdgeStyle;rounded=0;orthogonalLoop=1;jettySize=auto;html=1;entryX=0;entryY=0.5;entryDx=0;entryDy=0;" edge="1" parent="1" source="udwKPdp13qZEXDaH-4BK-61" target="udwKPdp13qZEXDaH-4BK-64">
          <mxGeometry relative="1" as="geometry" />
        </mxCell>
        <mxCell id="udwKPdp13qZEXDaH-4BK-61" value="" style="rounded=0;whiteSpace=wrap;html=1;fillColor=#000000;" vertex="1" parent="1">
          <mxGeometry x="730" y="357" width="20" height="90" as="geometry" />
        </mxCell>
        <mxCell id="udwKPdp13qZEXDaH-4BK-62" style="edgeStyle=orthogonalEdgeStyle;rounded=0;orthogonalLoop=1;jettySize=auto;html=1;entryX=0;entryY=0.5;entryDx=0;entryDy=0;" edge="1" parent="1" source="udwKPdp13qZEXDaH-4BK-64" target="udwKPdp13qZEXDaH-4BK-70">
          <mxGeometry relative="1" as="geometry" />
        </mxCell>
        <mxCell id="udwKPdp13qZEXDaH-4BK-63" style="edgeStyle=orthogonalEdgeStyle;rounded=0;orthogonalLoop=1;jettySize=auto;html=1;exitX=1;exitY=0.5;exitDx=0;exitDy=0;entryX=0;entryY=0.25;entryDx=0;entryDy=0;" edge="1" parent="1" source="udwKPdp13qZEXDaH-4BK-64" target="udwKPdp13qZEXDaH-4BK-70">
          <mxGeometry relative="1" as="geometry" />
        </mxCell>
        <mxCell id="udwKPdp13qZEXDaH-4BK-64" value="" style="ellipse;whiteSpace=wrap;html=1;aspect=fixed;" vertex="1" parent="1">
          <mxGeometry x="805" y="372" width="60" height="60" as="geometry" />
        </mxCell>
        <mxCell id="udwKPdp13qZEXDaH-4BK-65" style="edgeStyle=orthogonalEdgeStyle;rounded=0;orthogonalLoop=1;jettySize=auto;html=1;entryX=0.5;entryY=0;entryDx=0;entryDy=0;" edge="1" parent="1" source="udwKPdp13qZEXDaH-4BK-66" target="udwKPdp13qZEXDaH-4BK-64">
          <mxGeometry relative="1" as="geometry" />
        </mxCell>
        <mxCell id="udwKPdp13qZEXDaH-4BK-66" value="" style="rounded=0;whiteSpace=wrap;html=1;fillColor=#000000;rotation=-90;" vertex="1" parent="1">
          <mxGeometry x="825" y="197" width="20" height="90" as="geometry" />
        </mxCell>
        <mxCell id="udwKPdp13qZEXDaH-4BK-67" style="edgeStyle=orthogonalEdgeStyle;rounded=0;orthogonalLoop=1;jettySize=auto;html=1;entryX=1;entryY=0.5;entryDx=0;entryDy=0;" edge="1" parent="1" source="udwKPdp13qZEXDaH-4BK-68" target="udwKPdp13qZEXDaH-4BK-66">
          <mxGeometry relative="1" as="geometry" />
        </mxCell>
        <mxCell id="udwKPdp13qZEXDaH-4BK-68" value="" style="ellipse;whiteSpace=wrap;html=1;aspect=fixed;" vertex="1" parent="1">
          <mxGeometry x="805" y="118" width="60" height="60" as="geometry" />
        </mxCell>
        <mxCell id="udwKPdp13qZEXDaH-4BK-69" style="edgeStyle=orthogonalEdgeStyle;rounded=0;orthogonalLoop=1;jettySize=auto;html=1;" edge="1" parent="1" source="udwKPdp13qZEXDaH-4BK-70" target="udwKPdp13qZEXDaH-4BK-72">
          <mxGeometry relative="1" as="geometry" />
        </mxCell>
        <mxCell id="udwKPdp13qZEXDaH-4BK-70" value="" style="rounded=0;whiteSpace=wrap;html=1;fillColor=#000000;" vertex="1" parent="1">
          <mxGeometry x="920" y="357" width="20" height="90" as="geometry" />
        </mxCell>
        <mxCell id="udwKPdp13qZEXDaH-4BK-71" style="edgeStyle=orthogonalEdgeStyle;rounded=0;orthogonalLoop=1;jettySize=auto;html=1;entryX=0;entryY=0.5;entryDx=0;entryDy=0;" edge="1" parent="1" source="udwKPdp13qZEXDaH-4BK-72" target="udwKPdp13qZEXDaH-4BK-74">
          <mxGeometry relative="1" as="geometry" />
        </mxCell>
        <mxCell id="udwKPdp13qZEXDaH-4BK-72" value="" style="ellipse;whiteSpace=wrap;html=1;aspect=fixed;" vertex="1" parent="1">
          <mxGeometry x="995" y="372" width="60" height="60" as="geometry" />
        </mxCell>
        <mxCell id="udwKPdp13qZEXDaH-4BK-73" style="edgeStyle=orthogonalEdgeStyle;rounded=0;orthogonalLoop=1;jettySize=auto;html=1;entryX=0;entryY=0.5;entryDx=0;entryDy=0;" edge="1" parent="1" source="udwKPdp13qZEXDaH-4BK-74" target="udwKPdp13qZEXDaH-4BK-75">
          <mxGeometry relative="1" as="geometry" />
        </mxCell>
        <mxCell id="udwKPdp13qZEXDaH-4BK-74" value="" style="rounded=0;whiteSpace=wrap;html=1;fillColor=#000000;" vertex="1" parent="1">
          <mxGeometry x="1120" y="357" width="20" height="90" as="geometry" />
        </mxCell>
        <mxCell id="udwKPdp13qZEXDaH-4BK-75" value="" style="ellipse;whiteSpace=wrap;html=1;aspect=fixed;" vertex="1" parent="1">
          <mxGeometry x="1195" y="372" width="60" height="60" as="geometry" />
        </mxCell>
        <mxCell id="udwKPdp13qZEXDaH-4BK-76" style="edgeStyle=orthogonalEdgeStyle;rounded=0;orthogonalLoop=1;jettySize=auto;html=1;entryX=-0.097;entryY=0.247;entryDx=0;entryDy=0;entryPerimeter=0;" edge="1" parent="1" source="udwKPdp13qZEXDaH-4BK-47" target="udwKPdp13qZEXDaH-4BK-61">
          <mxGeometry relative="1" as="geometry" />
        </mxCell>
        <mxCell id="udwKPdp13qZEXDaH-4BK-77" value="Laser Machine &amp;amp;&lt;div&gt;&amp;nbsp;Storage for products&lt;/div&gt;" style="text;html=1;align=center;verticalAlign=middle;resizable=0;points=[];autosize=1;strokeColor=none;fillColor=none;" vertex="1" parent="1">
          <mxGeometry x="-765" y="332" width="140" height="40" as="geometry" />
        </mxCell>
        <mxCell id="udwKPdp13qZEXDaH-4BK-78" value="Laser Process" style="text;html=1;align=center;verticalAlign=middle;resizable=0;points=[];autosize=1;strokeColor=none;fillColor=none;" vertex="1" parent="1">
          <mxGeometry x="-650" y="327" width="100" height="30" as="geometry" />
        </mxCell>
        <mxCell id="udwKPdp13qZEXDaH-4BK-79" value="Cleaning &amp;amp;&amp;nbsp;&lt;div&gt;Drying&lt;/div&gt;" style="text;html=1;align=center;verticalAlign=middle;resizable=0;points=[];autosize=1;strokeColor=none;fillColor=none;" vertex="1" parent="1">
          <mxGeometry x="-550" y="332" width="90" height="40" as="geometry" />
        </mxCell>
        <mxCell id="udwKPdp13qZEXDaH-4BK-80" value="Cleaning &amp;amp;&amp;nbsp;&lt;div&gt;Drying Process&lt;/div&gt;" style="text;html=1;align=center;verticalAlign=middle;resizable=0;points=[];autosize=1;strokeColor=none;fillColor=none;" vertex="1" parent="1">
          <mxGeometry x="-455" y="317" width="100" height="40" as="geometry" />
        </mxCell>
        <mxCell id="udwKPdp13qZEXDaH-4BK-81" value="Verification" style="text;html=1;align=center;verticalAlign=middle;resizable=0;points=[];autosize=1;strokeColor=none;fillColor=none;" vertex="1" parent="1">
          <mxGeometry x="-350" y="342" width="80" height="30" as="geometry" />
        </mxCell>
        <mxCell id="udwKPdp13qZEXDaH-4BK-82" value="Verification Process" style="text;html=1;align=center;verticalAlign=middle;resizable=0;points=[];autosize=1;strokeColor=none;fillColor=none;" vertex="1" parent="1">
          <mxGeometry x="-280" y="327" width="130" height="30" as="geometry" />
        </mxCell>
        <mxCell id="udwKPdp13qZEXDaH-4BK-83" value="Main Storage&amp;nbsp;&lt;div&gt;for Products&lt;/div&gt;" style="text;html=1;align=center;verticalAlign=middle;resizable=0;points=[];autosize=1;strokeColor=none;fillColor=none;" vertex="1" parent="1">
          <mxGeometry x="-170" y="332" width="100" height="40" as="geometry" />
        </mxCell>
        <mxCell id="udwKPdp13qZEXDaH-4BK-84" value="Transport to&amp;nbsp;&lt;div&gt;Commissioning&lt;/div&gt;" style="text;html=1;align=center;verticalAlign=middle;resizable=0;points=[];autosize=1;strokeColor=none;fillColor=none;" vertex="1" parent="1">
          <mxGeometry x="-80" y="317" width="110" height="40" as="geometry" />
        </mxCell>
        <mxCell id="udwKPdp13qZEXDaH-4BK-85" value="Commissioning" style="text;html=1;align=center;verticalAlign=middle;resizable=0;points=[];autosize=1;strokeColor=none;fillColor=none;" vertex="1" parent="1">
          <mxGeometry x="15" y="342" width="110" height="30" as="geometry" />
        </mxCell>
        <mxCell id="udwKPdp13qZEXDaH-4BK-86" value="Transport to&amp;nbsp;&lt;div&gt;Powder coating&lt;/div&gt;" style="text;html=1;align=center;verticalAlign=middle;resizable=0;points=[];autosize=1;strokeColor=none;fillColor=none;" vertex="1" parent="1">
          <mxGeometry x="115" y="317" width="110" height="40" as="geometry" />
        </mxCell>
        <mxCell id="udwKPdp13qZEXDaH-4BK-87" value="Powder Coating" style="text;html=1;align=center;verticalAlign=middle;resizable=0;points=[];autosize=1;strokeColor=none;fillColor=none;" vertex="1" parent="1">
          <mxGeometry x="210" y="342" width="110" height="30" as="geometry" />
        </mxCell>
        <mxCell id="udwKPdp13qZEXDaH-4BK-88" value="Transport to oven" style="text;html=1;align=center;verticalAlign=middle;resizable=0;points=[];autosize=1;strokeColor=none;fillColor=none;" vertex="1" parent="1">
          <mxGeometry x="300" y="237" width="120" height="30" as="geometry" />
        </mxCell>
        <mxCell id="udwKPdp13qZEXDaH-4BK-89" value="Transport to oven" style="text;html=1;align=center;verticalAlign=middle;resizable=0;points=[];autosize=1;strokeColor=none;fillColor=none;" vertex="1" parent="1">
          <mxGeometry x="300" y="417" width="120" height="30" as="geometry" />
        </mxCell>
        <mxCell id="udwKPdp13qZEXDaH-4BK-90" value="Oven 2" style="text;html=1;align=center;verticalAlign=middle;resizable=0;points=[];autosize=1;strokeColor=none;fillColor=none;" vertex="1" parent="1">
          <mxGeometry x="425" y="432" width="60" height="30" as="geometry" />
        </mxCell>
        <mxCell id="udwKPdp13qZEXDaH-4BK-91" value="Oven 1" style="text;html=1;align=center;verticalAlign=middle;resizable=0;points=[];autosize=1;strokeColor=none;fillColor=none;" vertex="1" parent="1">
          <mxGeometry x="425" y="252" width="60" height="30" as="geometry" />
        </mxCell>
        <mxCell id="udwKPdp13qZEXDaH-4BK-92" value="Oven Process" style="text;html=1;align=center;verticalAlign=middle;resizable=0;points=[];autosize=1;strokeColor=none;fillColor=none;" vertex="1" parent="1">
          <mxGeometry x="520" y="237" width="100" height="30" as="geometry" />
        </mxCell>
        <mxCell id="udwKPdp13qZEXDaH-4BK-93" value="Oven Process" style="text;html=1;align=center;verticalAlign=middle;resizable=0;points=[];autosize=1;strokeColor=none;fillColor=none;" vertex="1" parent="1">
          <mxGeometry x="520" y="417" width="100" height="30" as="geometry" />
        </mxCell>
        <mxCell id="udwKPdp13qZEXDaH-4BK-94" value="Montage" style="text;html=1;align=center;verticalAlign=middle;resizable=0;points=[];autosize=1;strokeColor=none;fillColor=none;" vertex="1" parent="1">
          <mxGeometry x="560" y="387" width="70" height="30" as="geometry" />
        </mxCell>
        <mxCell id="udwKPdp13qZEXDaH-4BK-95" value="Order to manufacture base" style="text;html=1;align=center;verticalAlign=middle;resizable=0;points=[];autosize=1;strokeColor=none;fillColor=none;" vertex="1" parent="1">
          <mxGeometry x="662" y="-119" width="170" height="30" as="geometry" />
        </mxCell>
        <mxCell id="udwKPdp13qZEXDaH-4BK-96" value="Storage of&amp;nbsp;&lt;div&gt;bases&lt;/div&gt;" style="text;html=1;align=center;verticalAlign=middle;resizable=0;points=[];autosize=1;strokeColor=none;fillColor=none;" vertex="1" parent="1">
          <mxGeometry x="550" y="128" width="80" height="40" as="geometry" />
        </mxCell>
        <mxCell id="udwKPdp13qZEXDaH-4BK-97" value="Transport&amp;nbsp;&lt;span style=&quot;background-color: initial;&quot;&gt;of&amp;nbsp;&lt;/span&gt;&lt;div&gt;&lt;span style=&quot;background-color: initial;&quot;&gt;bases&lt;/span&gt;&lt;/div&gt;" style="text;html=1;align=center;verticalAlign=middle;resizable=0;points=[];autosize=1;strokeColor=none;fillColor=none;" vertex="1" parent="1">
          <mxGeometry x="694" y="223" width="90" height="40" as="geometry" />
        </mxCell>
        <mxCell id="udwKPdp13qZEXDaH-4BK-98" value="Product Order&lt;div&gt;&amp;nbsp;request&lt;/div&gt;" style="text;html=1;align=center;verticalAlign=middle;resizable=0;points=[];autosize=1;strokeColor=none;fillColor=none;" vertex="1" parent="1">
          <mxGeometry x="697" y="47" width="100" height="40" as="geometry" />
        </mxCell>
        <mxCell id="udwKPdp13qZEXDaH-4BK-99" value="Electrical Function Mounting" style="text;html=1;align=center;verticalAlign=middle;resizable=0;points=[];autosize=1;strokeColor=none;fillColor=none;" vertex="1" parent="1">
          <mxGeometry x="880" y="227" width="170" height="30" as="geometry" />
        </mxCell>
        <mxCell id="udwKPdp13qZEXDaH-4BK-100" value="Electrical Function Order" style="text;html=1;align=center;verticalAlign=middle;resizable=0;points=[];autosize=1;strokeColor=none;fillColor=none;" vertex="1" parent="1">
          <mxGeometry x="860" y="128" width="160" height="30" as="geometry" />
        </mxCell>
        <mxCell id="udwKPdp13qZEXDaH-4BK-101" value="Eletrical Function&lt;div&gt;&amp;nbsp;Verification&lt;/div&gt;" style="text;html=1;align=center;verticalAlign=middle;resizable=0;points=[];autosize=1;strokeColor=none;fillColor=none;" vertex="1" parent="1">
          <mxGeometry x="775" y="438" width="120" height="40" as="geometry" />
        </mxCell>
        <mxCell id="udwKPdp13qZEXDaH-4BK-102" value="Mounting mechanical parts" style="text;html=1;align=center;verticalAlign=middle;resizable=0;points=[];autosize=1;strokeColor=none;fillColor=none;" vertex="1" parent="1">
          <mxGeometry x="655" y="327" width="170" height="30" as="geometry" />
        </mxCell>
        <mxCell id="udwKPdp13qZEXDaH-4BK-103" value="Mouting all parts" style="text;html=1;align=center;verticalAlign=middle;resizable=0;points=[];autosize=1;strokeColor=none;fillColor=none;" vertex="1" parent="1">
          <mxGeometry x="875" y="327" width="110" height="30" as="geometry" />
        </mxCell>
        <mxCell id="udwKPdp13qZEXDaH-4BK-104" value="Packaging" style="text;html=1;align=center;verticalAlign=middle;resizable=0;points=[];autosize=1;strokeColor=none;fillColor=none;" vertex="1" parent="1">
          <mxGeometry x="985" y="342" width="80" height="30" as="geometry" />
        </mxCell>
        <mxCell id="udwKPdp13qZEXDaH-4BK-105" value="Final Delivery" style="text;html=1;align=center;verticalAlign=middle;resizable=0;points=[];autosize=1;strokeColor=none;fillColor=none;" vertex="1" parent="1">
          <mxGeometry x="1080" y="327" width="100" height="30" as="geometry" />
        </mxCell>
        <mxCell id="udwKPdp13qZEXDaH-4BK-106" value="Client" style="text;html=1;align=center;verticalAlign=middle;resizable=0;points=[];autosize=1;strokeColor=none;fillColor=none;" vertex="1" parent="1">
          <mxGeometry x="1200" y="342" width="50" height="30" as="geometry" />
        </mxCell>
        <mxCell id="udwKPdp13qZEXDaH-4BK-107" value="" style="shape=cylinder3;whiteSpace=wrap;html=1;boundedLbl=1;backgroundOutline=1;size=3.3333333333332575;" vertex="1" parent="1">
          <mxGeometry x="-110" y="417" width="20" height="30" as="geometry" />
        </mxCell>
        <mxCell id="udwKPdp13qZEXDaH-4BK-108" value="" style="shape=cylinder3;whiteSpace=wrap;html=1;boundedLbl=1;backgroundOutline=1;size=3.3333333333332575;" vertex="1" parent="1">
          <mxGeometry x="662" y="158" width="20" height="30" as="geometry" />
        </mxCell>
        <mxCell id="udwKPdp13qZEXDaH-4BK-109" value="P.T." style="text;html=1;align=center;verticalAlign=middle;resizable=0;points=[];autosize=1;strokeColor=none;fillColor=none;" vertex="1" parent="1">
          <mxGeometry x="-620" y="446" width="40" height="30" as="geometry" />
        </mxCell>
        <mxCell id="udwKPdp13qZEXDaH-4BK-110" value="P.T." style="text;html=1;align=center;verticalAlign=middle;resizable=0;points=[];autosize=1;strokeColor=none;fillColor=none;" vertex="1" parent="1">
          <mxGeometry x="-430" y="446" width="40" height="30" as="geometry" />
        </mxCell>
        <mxCell id="udwKPdp13qZEXDaH-4BK-111" value="P.T." style="text;html=1;align=center;verticalAlign=middle;resizable=0;points=[];autosize=1;strokeColor=none;fillColor=none;" vertex="1" parent="1">
          <mxGeometry x="-240" y="447" width="40" height="30" as="geometry" />
        </mxCell>
        <mxCell id="udwKPdp13qZEXDaH-4BK-112" value="P.T." style="text;html=1;align=center;verticalAlign=middle;resizable=0;points=[];autosize=1;strokeColor=none;fillColor=none;" vertex="1" parent="1">
          <mxGeometry x="-45" y="447" width="40" height="30" as="geometry" />
        </mxCell>
        <mxCell id="udwKPdp13qZEXDaH-4BK-113" value="P.T." style="text;html=1;align=center;verticalAlign=middle;resizable=0;points=[];autosize=1;strokeColor=none;fillColor=none;" vertex="1" parent="1">
          <mxGeometry x="150" y="447" width="40" height="30" as="geometry" />
        </mxCell>
        <mxCell id="udwKPdp13qZEXDaH-4BK-114" value="P.T." style="text;html=1;align=center;verticalAlign=middle;resizable=0;points=[];autosize=1;strokeColor=none;fillColor=none;" vertex="1" parent="1">
          <mxGeometry x="340" y="537" width="40" height="30" as="geometry" />
        </mxCell>
        <mxCell id="udwKPdp13qZEXDaH-4BK-115" value="P.T." style="text;html=1;align=center;verticalAlign=middle;resizable=0;points=[];autosize=1;strokeColor=none;fillColor=none;" vertex="1" parent="1">
          <mxGeometry x="340" y="357" width="40" height="30" as="geometry" />
        </mxCell>
        <mxCell id="udwKPdp13qZEXDaH-4BK-116" value="P.T." style="text;html=1;align=center;verticalAlign=middle;resizable=0;points=[];autosize=1;strokeColor=none;fillColor=none;" vertex="1" parent="1">
          <mxGeometry x="550" y="537" width="40" height="30" as="geometry" />
        </mxCell>
        <mxCell id="udwKPdp13qZEXDaH-4BK-117" value="P.T." style="text;html=1;align=center;verticalAlign=middle;resizable=0;points=[];autosize=1;strokeColor=none;fillColor=none;" vertex="1" parent="1">
          <mxGeometry x="550" y="357" width="40" height="30" as="geometry" />
        </mxCell>
        <mxCell id="udwKPdp13qZEXDaH-4BK-118" value="P.T." style="text;html=1;align=center;verticalAlign=middle;resizable=0;points=[];autosize=1;strokeColor=none;fillColor=none;" vertex="1" parent="1">
          <mxGeometry x="720" y="446" width="40" height="30" as="geometry" />
        </mxCell>
        <mxCell id="udwKPdp13qZEXDaH-4BK-119" value="P.T." style="text;html=1;align=center;verticalAlign=middle;resizable=0;points=[];autosize=1;strokeColor=none;fillColor=none;" vertex="1" parent="1">
          <mxGeometry x="910" y="447" width="40" height="30" as="geometry" />
        </mxCell>
        <mxCell id="udwKPdp13qZEXDaH-4BK-120" value="P.T." style="text;html=1;align=center;verticalAlign=middle;resizable=0;points=[];autosize=1;strokeColor=none;fillColor=none;" vertex="1" parent="1">
          <mxGeometry x="1110" y="446" width="40" height="30" as="geometry" />
        </mxCell>
        <mxCell id="udwKPdp13qZEXDaH-4BK-121" value="R.T." style="text;html=1;align=center;verticalAlign=middle;resizable=0;points=[];autosize=1;strokeColor=none;fillColor=none;" vertex="1" parent="1">
          <mxGeometry x="-750" y="422" width="40" height="30" as="geometry" />
        </mxCell>
        <mxCell id="udwKPdp13qZEXDaH-4BK-122" value="R.T." style="text;html=1;align=center;verticalAlign=middle;resizable=0;points=[];autosize=1;strokeColor=none;fillColor=none;" vertex="1" parent="1">
          <mxGeometry x="-500" y="422" width="40" height="30" as="geometry" />
        </mxCell>
        <mxCell id="udwKPdp13qZEXDaH-4BK-123" value="R.T." style="text;html=1;align=center;verticalAlign=middle;resizable=0;points=[];autosize=1;strokeColor=none;fillColor=none;" vertex="1" parent="1">
          <mxGeometry x="-310" y="422" width="40" height="30" as="geometry" />
        </mxCell>
        <mxCell id="udwKPdp13qZEXDaH-4BK-124" value="R.T." style="text;html=1;align=center;verticalAlign=middle;resizable=0;points=[];autosize=1;strokeColor=none;fillColor=none;" vertex="1" parent="1">
          <mxGeometry x="-170" y="422" width="40" height="30" as="geometry" />
        </mxCell>
        <mxCell id="udwKPdp13qZEXDaH-4BK-125" value="R.T." style="text;html=1;align=center;verticalAlign=middle;resizable=0;points=[];autosize=1;strokeColor=none;fillColor=none;" vertex="1" parent="1">
          <mxGeometry x="75" y="422" width="40" height="30" as="geometry" />
        </mxCell>
        <mxCell id="udwKPdp13qZEXDaH-4BK-126" value="R.T." style="text;html=1;align=center;verticalAlign=middle;resizable=0;points=[];autosize=1;strokeColor=none;fillColor=none;" vertex="1" parent="1">
          <mxGeometry x="220" y="422" width="40" height="30" as="geometry" />
        </mxCell>
        <mxCell id="udwKPdp13qZEXDaH-4BK-127" value="R.T." style="text;html=1;align=center;verticalAlign=middle;resizable=0;points=[];autosize=1;strokeColor=none;fillColor=none;" vertex="1" parent="1">
          <mxGeometry x="470" y="507" width="40" height="30" as="geometry" />
        </mxCell>
        <mxCell id="udwKPdp13qZEXDaH-4BK-128" value="R.T." style="text;html=1;align=center;verticalAlign=middle;resizable=0;points=[];autosize=1;strokeColor=none;fillColor=none;" vertex="1" parent="1">
          <mxGeometry x="470" y="322" width="40" height="30" as="geometry" />
        </mxCell>
        <mxCell id="udwKPdp13qZEXDaH-4BK-129" value="R.T." style="text;html=1;align=center;verticalAlign=middle;resizable=0;points=[];autosize=1;strokeColor=none;fillColor=none;" vertex="1" parent="1">
          <mxGeometry x="660" y="422" width="40" height="30" as="geometry" />
        </mxCell>
        <mxCell id="udwKPdp13qZEXDaH-4BK-130" value="R.T." style="text;html=1;align=center;verticalAlign=middle;resizable=0;points=[];autosize=1;strokeColor=none;fillColor=none;" vertex="1" parent="1">
          <mxGeometry x="850" y="416" width="40" height="30" as="geometry" />
        </mxCell>
        <mxCell id="udwKPdp13qZEXDaH-4BK-131" value="R.T." style="text;html=1;align=center;verticalAlign=middle;resizable=0;points=[];autosize=1;strokeColor=none;fillColor=none;" vertex="1" parent="1">
          <mxGeometry x="1025" y="422" width="40" height="30" as="geometry" />
        </mxCell>
        <mxCell id="udwKPdp13qZEXDaH-4BK-132" value="R.T." style="text;html=1;align=center;verticalAlign=middle;resizable=0;points=[];autosize=1;strokeColor=none;fillColor=none;" vertex="1" parent="1">
          <mxGeometry x="677" y="153.5" width="40" height="30" as="geometry" />
        </mxCell>
        <mxCell id="udwKPdp13qZEXDaH-4BK-133" value="P.T." style="text;html=1;align=center;verticalAlign=middle;resizable=0;points=[];autosize=1;strokeColor=none;fillColor=none;" vertex="1" parent="1">
          <mxGeometry x="667" y="248" width="40" height="30" as="geometry" />
        </mxCell>
        <mxCell id="udwKPdp13qZEXDaH-4BK-134" value="P.T." style="text;html=1;align=center;verticalAlign=middle;resizable=0;points=[];autosize=1;strokeColor=none;fillColor=none;" vertex="1" parent="1">
          <mxGeometry x="840" y="252" width="40" height="30" as="geometry" />
        </mxCell>
        <mxCell id="udwKPdp13qZEXDaH-4BK-136" style="edgeStyle=orthogonalEdgeStyle;rounded=0;orthogonalLoop=1;jettySize=auto;html=1;exitX=1;exitY=0.5;exitDx=0;exitDy=0;" edge="1" parent="1" source="udwKPdp13qZEXDaH-4BK-137" target="udwKPdp13qZEXDaH-4BK-51">
          <mxGeometry relative="1" as="geometry">
            <Array as="points">
              <mxPoint x="483" y="212" />
              <mxPoint x="640" y="212" />
            </Array>
          </mxGeometry>
        </mxCell>
        <mxCell id="udwKPdp13qZEXDaH-4BK-137" value="" style="rounded=0;whiteSpace=wrap;html=1;fillColor=#000000;rotation=-90;" vertex="1" parent="1">
          <mxGeometry x="472.5" y="123.5" width="20" height="90" as="geometry" />
        </mxCell>
        <mxCell id="udwKPdp13qZEXDaH-4BK-138" value="" style="edgeStyle=orthogonalEdgeStyle;rounded=0;orthogonalLoop=1;jettySize=auto;html=1;" edge="1" parent="1" source="udwKPdp13qZEXDaH-4BK-139" target="udwKPdp13qZEXDaH-4BK-137">
          <mxGeometry relative="1" as="geometry" />
        </mxCell>
        <mxCell id="udwKPdp13qZEXDaH-4BK-139" value="" style="ellipse;whiteSpace=wrap;html=1;aspect=fixed;" vertex="1" parent="1">
          <mxGeometry x="452.5" y="5" width="60" height="60" as="geometry" />
        </mxCell>
        <mxCell id="udwKPdp13qZEXDaH-4BK-140" value="3D Printer" style="text;html=1;align=center;verticalAlign=middle;resizable=0;points=[];autosize=1;strokeColor=none;fillColor=none;" vertex="1" parent="1">
          <mxGeometry x="370" y="23" width="80" height="30" as="geometry" />
        </mxCell>
        <mxCell id="udwKPdp13qZEXDaH-4BK-141" value="3D Printing" style="text;html=1;align=center;verticalAlign=middle;resizable=0;points=[];autosize=1;strokeColor=none;fillColor=none;" vertex="1" parent="1">
          <mxGeometry x="360" y="153.5" width="80" height="30" as="geometry" />
        </mxCell>
        <mxCell id="udwKPdp13qZEXDaH-4BK-142" value="R.T." style="text;html=1;align=center;verticalAlign=middle;resizable=0;points=[];autosize=1;strokeColor=none;fillColor=none;" vertex="1" parent="1">
          <mxGeometry x="487.5" y="187.5" width="40" height="30" as="geometry" />
        </mxCell>
        <mxCell id="udwKPdp13qZEXDaH-4BK-143" value="P.T." style="text;html=1;align=center;verticalAlign=middle;resizable=0;points=[];autosize=1;strokeColor=none;fillColor=none;" vertex="1" parent="1">
          <mxGeometry x="520" y="153.5" width="40" height="30" as="geometry" />
        </mxCell>
        <mxCell id="udwKPdp13qZEXDaH-4BK-144" value="" style="shape=cylinder3;whiteSpace=wrap;html=1;boundedLbl=1;backgroundOutline=1;size=3.3333333333332575;" vertex="1" parent="1">
          <mxGeometry x="-688" y="410" width="20" height="30" as="geometry" />
        </mxCell>
        <mxCell id="udwKPdp13qZEXDaH-4BK-146" value="input" style="triangle;whiteSpace=wrap;html=1;direction=south;fillColor=#d5e8d4;strokeColor=#82b366;" vertex="1" parent="1">
          <mxGeometry x="-730" y="248" width="80" height="60" as="geometry" />
        </mxCell>
        <mxCell id="udwKPdp13qZEXDaH-4BK-147" value="Material Flux Storage Laser &amp;amp; no base on storage" style="text;html=1;align=center;verticalAlign=middle;resizable=0;points=[];autosize=1;strokeColor=none;fillColor=none;" vertex="1" parent="1">
          <mxGeometry x="-730" y="207" width="290" height="30" as="geometry" />
        </mxCell>
        <mxCell id="udwKPdp13qZEXDaH-4BK-179" style="edgeStyle=orthogonalEdgeStyle;rounded=0;orthogonalLoop=1;jettySize=auto;html=1;entryX=0;entryY=0.5;entryDx=0;entryDy=0;" edge="1" parent="1" source="udwKPdp13qZEXDaH-4BK-183" target="udwKPdp13qZEXDaH-4BK-188">
          <mxGeometry relative="1" as="geometry" />
        </mxCell>
        <mxCell id="udwKPdp13qZEXDaH-4BK-180" style="edgeStyle=orthogonalEdgeStyle;rounded=0;orthogonalLoop=1;jettySize=auto;html=1;exitX=1;exitY=0.5;exitDx=0;exitDy=0;entryX=0;entryY=0.25;entryDx=0;entryDy=0;" edge="1" parent="1" source="udwKPdp13qZEXDaH-4BK-183" target="udwKPdp13qZEXDaH-4BK-188">
          <mxGeometry relative="1" as="geometry" />
        </mxCell>
        <mxCell id="udwKPdp13qZEXDaH-4BK-181" style="edgeStyle=orthogonalEdgeStyle;rounded=0;orthogonalLoop=1;jettySize=auto;html=1;exitX=1;exitY=0.5;exitDx=0;exitDy=0;entryX=0;entryY=0.75;entryDx=0;entryDy=0;" edge="1" parent="1" source="udwKPdp13qZEXDaH-4BK-183" target="udwKPdp13qZEXDaH-4BK-188">
          <mxGeometry relative="1" as="geometry" />
        </mxCell>
        <mxCell id="udwKPdp13qZEXDaH-4BK-182" style="edgeStyle=orthogonalEdgeStyle;rounded=0;orthogonalLoop=1;jettySize=auto;html=1;exitX=1;exitY=0.5;exitDx=0;exitDy=0;entryX=0;entryY=0;entryDx=0;entryDy=0;" edge="1" parent="1" source="udwKPdp13qZEXDaH-4BK-183" target="udwKPdp13qZEXDaH-4BK-188">
          <mxGeometry relative="1" as="geometry">
            <Array as="points">
              <mxPoint x="-617" y="1142" />
              <mxPoint x="-617" y="1097" />
            </Array>
          </mxGeometry>
        </mxCell>
        <mxCell id="udwKPdp13qZEXDaH-4BK-183" value="" style="ellipse;whiteSpace=wrap;html=1;aspect=fixed;" vertex="1" parent="1">
          <mxGeometry x="-705" y="1112" width="60" height="60" as="geometry" />
        </mxCell>
        <mxCell id="udwKPdp13qZEXDaH-4BK-184" style="edgeStyle=orthogonalEdgeStyle;rounded=0;orthogonalLoop=1;jettySize=auto;html=1;exitX=1;exitY=0;exitDx=0;exitDy=0;entryX=0;entryY=0.5;entryDx=0;entryDy=0;" edge="1" parent="1" source="udwKPdp13qZEXDaH-4BK-188" target="udwKPdp13qZEXDaH-4BK-190">
          <mxGeometry relative="1" as="geometry">
            <Array as="points">
              <mxPoint x="-542" y="1097" />
              <mxPoint x="-542" y="1142" />
            </Array>
          </mxGeometry>
        </mxCell>
        <mxCell id="udwKPdp13qZEXDaH-4BK-185" style="edgeStyle=orthogonalEdgeStyle;rounded=0;orthogonalLoop=1;jettySize=auto;html=1;exitX=1;exitY=0.25;exitDx=0;exitDy=0;entryX=0;entryY=0.5;entryDx=0;entryDy=0;" edge="1" parent="1" source="udwKPdp13qZEXDaH-4BK-188" target="udwKPdp13qZEXDaH-4BK-190">
          <mxGeometry relative="1" as="geometry" />
        </mxCell>
        <mxCell id="udwKPdp13qZEXDaH-4BK-186" style="edgeStyle=orthogonalEdgeStyle;rounded=0;orthogonalLoop=1;jettySize=auto;html=1;exitX=1;exitY=0.5;exitDx=0;exitDy=0;" edge="1" parent="1" source="udwKPdp13qZEXDaH-4BK-188">
          <mxGeometry relative="1" as="geometry">
            <mxPoint x="-515" y="1142.2" as="targetPoint" />
          </mxGeometry>
        </mxCell>
        <mxCell id="udwKPdp13qZEXDaH-4BK-187" style="edgeStyle=orthogonalEdgeStyle;rounded=0;orthogonalLoop=1;jettySize=auto;html=1;exitX=1;exitY=0.75;exitDx=0;exitDy=0;entryX=0;entryY=0.5;entryDx=0;entryDy=0;" edge="1" parent="1" source="udwKPdp13qZEXDaH-4BK-188" target="udwKPdp13qZEXDaH-4BK-190">
          <mxGeometry relative="1" as="geometry" />
        </mxCell>
        <mxCell id="udwKPdp13qZEXDaH-4BK-188" value="" style="rounded=0;whiteSpace=wrap;html=1;fillColor=#000000;" vertex="1" parent="1">
          <mxGeometry x="-590" y="1097" width="20" height="90" as="geometry" />
        </mxCell>
        <mxCell id="udwKPdp13qZEXDaH-4BK-189" style="edgeStyle=orthogonalEdgeStyle;rounded=0;orthogonalLoop=1;jettySize=auto;html=1;exitX=1;exitY=0.5;exitDx=0;exitDy=0;entryX=0;entryY=0.5;entryDx=0;entryDy=0;" edge="1" parent="1" source="udwKPdp13qZEXDaH-4BK-190" target="udwKPdp13qZEXDaH-4BK-192">
          <mxGeometry relative="1" as="geometry" />
        </mxCell>
        <mxCell id="udwKPdp13qZEXDaH-4BK-190" value="" style="ellipse;whiteSpace=wrap;html=1;aspect=fixed;" vertex="1" parent="1">
          <mxGeometry x="-515" y="1112" width="60" height="60" as="geometry" />
        </mxCell>
        <mxCell id="udwKPdp13qZEXDaH-4BK-191" style="edgeStyle=orthogonalEdgeStyle;rounded=0;orthogonalLoop=1;jettySize=auto;html=1;exitX=1;exitY=0.5;exitDx=0;exitDy=0;" edge="1" parent="1" source="udwKPdp13qZEXDaH-4BK-192" target="udwKPdp13qZEXDaH-4BK-195">
          <mxGeometry relative="1" as="geometry" />
        </mxCell>
        <mxCell id="udwKPdp13qZEXDaH-4BK-192" value="" style="rounded=0;whiteSpace=wrap;html=1;fillColor=#000000;" vertex="1" parent="1">
          <mxGeometry x="-395" y="1097" width="20" height="90" as="geometry" />
        </mxCell>
        <mxCell id="udwKPdp13qZEXDaH-4BK-193" style="edgeStyle=orthogonalEdgeStyle;rounded=0;orthogonalLoop=1;jettySize=auto;html=1;exitX=1;exitY=0;exitDx=0;exitDy=0;entryX=0;entryY=0.5;entryDx=0;entryDy=0;" edge="1" parent="1" source="udwKPdp13qZEXDaH-4BK-195" target="udwKPdp13qZEXDaH-4BK-197">
          <mxGeometry relative="1" as="geometry" />
        </mxCell>
        <mxCell id="udwKPdp13qZEXDaH-4BK-194" style="edgeStyle=orthogonalEdgeStyle;rounded=0;orthogonalLoop=1;jettySize=auto;html=1;exitX=1;exitY=1;exitDx=0;exitDy=0;entryX=0;entryY=0.5;entryDx=0;entryDy=0;" edge="1" parent="1" source="udwKPdp13qZEXDaH-4BK-195" target="udwKPdp13qZEXDaH-4BK-201">
          <mxGeometry relative="1" as="geometry" />
        </mxCell>
        <mxCell id="udwKPdp13qZEXDaH-4BK-195" value="" style="ellipse;whiteSpace=wrap;html=1;aspect=fixed;" vertex="1" parent="1">
          <mxGeometry x="-320" y="1112" width="60" height="60" as="geometry" />
        </mxCell>
        <mxCell id="udwKPdp13qZEXDaH-4BK-196" style="edgeStyle=orthogonalEdgeStyle;rounded=0;orthogonalLoop=1;jettySize=auto;html=1;entryX=0;entryY=0.5;entryDx=0;entryDy=0;" edge="1" parent="1" source="udwKPdp13qZEXDaH-4BK-197" target="udwKPdp13qZEXDaH-4BK-199">
          <mxGeometry relative="1" as="geometry" />
        </mxCell>
        <mxCell id="udwKPdp13qZEXDaH-4BK-197" value="" style="rounded=0;whiteSpace=wrap;html=1;fillColor=#000000;" vertex="1" parent="1">
          <mxGeometry x="-205" y="1007" width="20" height="90" as="geometry" />
        </mxCell>
        <mxCell id="udwKPdp13qZEXDaH-4BK-198" style="edgeStyle=orthogonalEdgeStyle;rounded=0;orthogonalLoop=1;jettySize=auto;html=1;entryX=0;entryY=0.5;entryDx=0;entryDy=0;" edge="1" parent="1" source="udwKPdp13qZEXDaH-4BK-199" target="udwKPdp13qZEXDaH-4BK-205">
          <mxGeometry relative="1" as="geometry" />
        </mxCell>
        <mxCell id="udwKPdp13qZEXDaH-4BK-199" value="" style="ellipse;whiteSpace=wrap;html=1;aspect=fixed;" vertex="1" parent="1">
          <mxGeometry x="-130" y="1022" width="60" height="60" as="geometry" />
        </mxCell>
        <mxCell id="udwKPdp13qZEXDaH-4BK-200" style="edgeStyle=orthogonalEdgeStyle;rounded=0;orthogonalLoop=1;jettySize=auto;html=1;entryX=0;entryY=0.5;entryDx=0;entryDy=0;" edge="1" parent="1" source="udwKPdp13qZEXDaH-4BK-201" target="udwKPdp13qZEXDaH-4BK-203">
          <mxGeometry relative="1" as="geometry" />
        </mxCell>
        <mxCell id="udwKPdp13qZEXDaH-4BK-201" value="" style="rounded=0;whiteSpace=wrap;html=1;fillColor=#000000;" vertex="1" parent="1">
          <mxGeometry x="-205" y="1187" width="20" height="90" as="geometry" />
        </mxCell>
        <mxCell id="udwKPdp13qZEXDaH-4BK-202" style="edgeStyle=orthogonalEdgeStyle;rounded=0;orthogonalLoop=1;jettySize=auto;html=1;entryX=0;entryY=0.5;entryDx=0;entryDy=0;" edge="1" parent="1" source="udwKPdp13qZEXDaH-4BK-203" target="udwKPdp13qZEXDaH-4BK-222">
          <mxGeometry relative="1" as="geometry" />
        </mxCell>
        <mxCell id="udwKPdp13qZEXDaH-4BK-203" value="" style="ellipse;whiteSpace=wrap;html=1;aspect=fixed;" vertex="1" parent="1">
          <mxGeometry x="-130" y="1202" width="60" height="60" as="geometry" />
        </mxCell>
        <mxCell id="udwKPdp13qZEXDaH-4BK-204" style="edgeStyle=orthogonalEdgeStyle;rounded=0;orthogonalLoop=1;jettySize=auto;html=1;exitX=1;exitY=0.5;exitDx=0;exitDy=0;entryX=0.5;entryY=0;entryDx=0;entryDy=0;" edge="1" parent="1" source="udwKPdp13qZEXDaH-4BK-205" target="udwKPdp13qZEXDaH-4BK-210">
          <mxGeometry relative="1" as="geometry" />
        </mxCell>
        <mxCell id="udwKPdp13qZEXDaH-4BK-205" value="" style="rounded=0;whiteSpace=wrap;html=1;fillColor=#000000;" vertex="1" parent="1">
          <mxGeometry x="5" y="1007" width="20" height="90" as="geometry" />
        </mxCell>
        <mxCell id="udwKPdp13qZEXDaH-4BK-206" style="edgeStyle=orthogonalEdgeStyle;rounded=0;orthogonalLoop=1;jettySize=auto;html=1;" edge="1" parent="1" source="udwKPdp13qZEXDaH-4BK-210" target="udwKPdp13qZEXDaH-4BK-224">
          <mxGeometry relative="1" as="geometry" />
        </mxCell>
        <mxCell id="udwKPdp13qZEXDaH-4BK-207" style="edgeStyle=orthogonalEdgeStyle;rounded=0;orthogonalLoop=1;jettySize=auto;html=1;exitX=1;exitY=1;exitDx=0;exitDy=0;entryX=0;entryY=1;entryDx=0;entryDy=0;" edge="1" parent="1" source="udwKPdp13qZEXDaH-4BK-210" target="udwKPdp13qZEXDaH-4BK-224">
          <mxGeometry relative="1" as="geometry">
            <Array as="points">
              <mxPoint x="153" y="1163" />
              <mxPoint x="153" y="1187" />
            </Array>
          </mxGeometry>
        </mxCell>
        <mxCell id="udwKPdp13qZEXDaH-4BK-208" style="edgeStyle=orthogonalEdgeStyle;rounded=0;orthogonalLoop=1;jettySize=auto;html=1;exitX=1;exitY=0;exitDx=0;exitDy=0;entryX=0;entryY=0;entryDx=0;entryDy=0;" edge="1" parent="1" source="udwKPdp13qZEXDaH-4BK-210" target="udwKPdp13qZEXDaH-4BK-224">
          <mxGeometry relative="1" as="geometry">
            <Array as="points">
              <mxPoint x="153" y="1121" />
              <mxPoint x="153" y="1097" />
            </Array>
          </mxGeometry>
        </mxCell>
        <mxCell id="udwKPdp13qZEXDaH-4BK-209" style="edgeStyle=orthogonalEdgeStyle;rounded=0;orthogonalLoop=1;jettySize=auto;html=1;exitX=1;exitY=0.5;exitDx=0;exitDy=0;entryX=0;entryY=0.75;entryDx=0;entryDy=0;" edge="1" parent="1" source="udwKPdp13qZEXDaH-4BK-210" target="udwKPdp13qZEXDaH-4BK-224">
          <mxGeometry relative="1" as="geometry" />
        </mxCell>
        <mxCell id="udwKPdp13qZEXDaH-4BK-210" value="" style="ellipse;whiteSpace=wrap;html=1;aspect=fixed;" vertex="1" parent="1">
          <mxGeometry x="70" y="1112" width="60" height="60" as="geometry" />
        </mxCell>
        <mxCell id="udwKPdp13qZEXDaH-4BK-211" style="edgeStyle=orthogonalEdgeStyle;rounded=0;orthogonalLoop=1;jettySize=auto;html=1;exitX=0;exitY=0.5;exitDx=0;exitDy=0;entryX=0.5;entryY=0;entryDx=0;entryDy=0;" edge="1" parent="1" source="udwKPdp13qZEXDaH-4BK-212" target="udwKPdp13qZEXDaH-4BK-210">
          <mxGeometry relative="1" as="geometry" />
        </mxCell>
        <mxCell id="udwKPdp13qZEXDaH-4BK-212" value="" style="rounded=0;whiteSpace=wrap;html=1;fillColor=#000000;rotation=-90;" vertex="1" parent="1">
          <mxGeometry x="90" y="937" width="20" height="90" as="geometry" />
        </mxCell>
        <mxCell id="udwKPdp13qZEXDaH-4BK-213" value="" style="edgeStyle=orthogonalEdgeStyle;rounded=0;orthogonalLoop=1;jettySize=auto;html=1;" edge="1" parent="1" source="udwKPdp13qZEXDaH-4BK-214" target="udwKPdp13qZEXDaH-4BK-212">
          <mxGeometry relative="1" as="geometry" />
        </mxCell>
        <mxCell id="udwKPdp13qZEXDaH-4BK-214" value="" style="ellipse;whiteSpace=wrap;html=1;aspect=fixed;" vertex="1" parent="1">
          <mxGeometry x="70" y="858" width="60" height="60" as="geometry" />
        </mxCell>
        <mxCell id="udwKPdp13qZEXDaH-4BK-215" value="" style="edgeStyle=orthogonalEdgeStyle;rounded=0;orthogonalLoop=1;jettySize=auto;html=1;" edge="1" parent="1" source="udwKPdp13qZEXDaH-4BK-218" target="udwKPdp13qZEXDaH-4BK-214">
          <mxGeometry relative="1" as="geometry">
            <Array as="points">
              <mxPoint x="100" y="775" />
            </Array>
          </mxGeometry>
        </mxCell>
        <mxCell id="udwKPdp13qZEXDaH-4BK-216" style="edgeStyle=orthogonalEdgeStyle;rounded=0;orthogonalLoop=1;jettySize=auto;html=1;entryX=0.5;entryY=0;entryDx=0;entryDy=0;" edge="1" parent="1" source="udwKPdp13qZEXDaH-4BK-218" target="udwKPdp13qZEXDaH-4BK-231">
          <mxGeometry relative="1" as="geometry">
            <Array as="points">
              <mxPoint x="280" y="775" />
            </Array>
          </mxGeometry>
        </mxCell>
        <mxCell id="udwKPdp13qZEXDaH-4BK-217" style="edgeStyle=orthogonalEdgeStyle;rounded=0;orthogonalLoop=1;jettySize=auto;html=1;exitX=0.75;exitY=0;exitDx=0;exitDy=0;entryX=1;entryY=0.5;entryDx=0;entryDy=0;" edge="1" parent="1" source="udwKPdp13qZEXDaH-4BK-218" target="udwKPdp13qZEXDaH-4BK-290">
          <mxGeometry relative="1" as="geometry">
            <Array as="points">
              <mxPoint x="147" y="775" />
              <mxPoint x="-43" y="775" />
            </Array>
          </mxGeometry>
        </mxCell>
        <mxCell id="udwKPdp13qZEXDaH-4BK-218" value="" style="rounded=0;whiteSpace=wrap;html=1;fillColor=#000000;rotation=-90;" vertex="1" parent="1">
          <mxGeometry x="182" y="730" width="20" height="90" as="geometry" />
        </mxCell>
        <mxCell id="udwKPdp13qZEXDaH-4BK-219" value="" style="edgeStyle=orthogonalEdgeStyle;rounded=0;orthogonalLoop=1;jettySize=auto;html=1;" edge="1" parent="1" source="udwKPdp13qZEXDaH-4BK-220" target="udwKPdp13qZEXDaH-4BK-218">
          <mxGeometry relative="1" as="geometry" />
        </mxCell>
        <mxCell id="udwKPdp13qZEXDaH-4BK-220" value="" style="ellipse;whiteSpace=wrap;html=1;aspect=fixed;" vertex="1" parent="1">
          <mxGeometry x="162" y="651" width="60" height="60" as="geometry" />
        </mxCell>
        <mxCell id="udwKPdp13qZEXDaH-4BK-221" style="edgeStyle=orthogonalEdgeStyle;rounded=0;orthogonalLoop=1;jettySize=auto;html=1;exitX=1;exitY=0.5;exitDx=0;exitDy=0;" edge="1" parent="1" source="udwKPdp13qZEXDaH-4BK-222" target="udwKPdp13qZEXDaH-4BK-210">
          <mxGeometry relative="1" as="geometry" />
        </mxCell>
        <mxCell id="udwKPdp13qZEXDaH-4BK-222" value="" style="rounded=0;whiteSpace=wrap;html=1;fillColor=#000000;" vertex="1" parent="1">
          <mxGeometry x="5" y="1187" width="20" height="90" as="geometry" />
        </mxCell>
        <mxCell id="udwKPdp13qZEXDaH-4BK-223" style="edgeStyle=orthogonalEdgeStyle;rounded=0;orthogonalLoop=1;jettySize=auto;html=1;entryX=0;entryY=0.5;entryDx=0;entryDy=0;" edge="1" parent="1" source="udwKPdp13qZEXDaH-4BK-224" target="udwKPdp13qZEXDaH-4BK-227">
          <mxGeometry relative="1" as="geometry" />
        </mxCell>
        <mxCell id="udwKPdp13qZEXDaH-4BK-224" value="" style="rounded=0;whiteSpace=wrap;html=1;fillColor=#000000;" vertex="1" parent="1">
          <mxGeometry x="175" y="1097" width="20" height="90" as="geometry" />
        </mxCell>
        <mxCell id="udwKPdp13qZEXDaH-4BK-225" style="edgeStyle=orthogonalEdgeStyle;rounded=0;orthogonalLoop=1;jettySize=auto;html=1;entryX=0;entryY=0.5;entryDx=0;entryDy=0;" edge="1" parent="1" source="udwKPdp13qZEXDaH-4BK-227" target="udwKPdp13qZEXDaH-4BK-233">
          <mxGeometry relative="1" as="geometry" />
        </mxCell>
        <mxCell id="udwKPdp13qZEXDaH-4BK-226" style="edgeStyle=orthogonalEdgeStyle;rounded=0;orthogonalLoop=1;jettySize=auto;html=1;exitX=1;exitY=0.5;exitDx=0;exitDy=0;entryX=0;entryY=0.25;entryDx=0;entryDy=0;" edge="1" parent="1" source="udwKPdp13qZEXDaH-4BK-227" target="udwKPdp13qZEXDaH-4BK-233">
          <mxGeometry relative="1" as="geometry" />
        </mxCell>
        <mxCell id="udwKPdp13qZEXDaH-4BK-227" value="" style="ellipse;whiteSpace=wrap;html=1;aspect=fixed;" vertex="1" parent="1">
          <mxGeometry x="250" y="1112" width="60" height="60" as="geometry" />
        </mxCell>
        <mxCell id="udwKPdp13qZEXDaH-4BK-228" style="edgeStyle=orthogonalEdgeStyle;rounded=0;orthogonalLoop=1;jettySize=auto;html=1;entryX=0.5;entryY=0;entryDx=0;entryDy=0;" edge="1" parent="1" source="udwKPdp13qZEXDaH-4BK-229" target="udwKPdp13qZEXDaH-4BK-227">
          <mxGeometry relative="1" as="geometry" />
        </mxCell>
        <mxCell id="udwKPdp13qZEXDaH-4BK-229" value="" style="rounded=0;whiteSpace=wrap;html=1;fillColor=#000000;rotation=-90;" vertex="1" parent="1">
          <mxGeometry x="270" y="937" width="20" height="90" as="geometry" />
        </mxCell>
        <mxCell id="udwKPdp13qZEXDaH-4BK-230" style="edgeStyle=orthogonalEdgeStyle;rounded=0;orthogonalLoop=1;jettySize=auto;html=1;entryX=1;entryY=0.5;entryDx=0;entryDy=0;" edge="1" parent="1" source="udwKPdp13qZEXDaH-4BK-231" target="udwKPdp13qZEXDaH-4BK-229">
          <mxGeometry relative="1" as="geometry" />
        </mxCell>
        <mxCell id="udwKPdp13qZEXDaH-4BK-231" value="" style="ellipse;whiteSpace=wrap;html=1;aspect=fixed;" vertex="1" parent="1">
          <mxGeometry x="250" y="858" width="60" height="60" as="geometry" />
        </mxCell>
        <mxCell id="udwKPdp13qZEXDaH-4BK-232" style="edgeStyle=orthogonalEdgeStyle;rounded=0;orthogonalLoop=1;jettySize=auto;html=1;" edge="1" parent="1" source="udwKPdp13qZEXDaH-4BK-233" target="udwKPdp13qZEXDaH-4BK-235">
          <mxGeometry relative="1" as="geometry" />
        </mxCell>
        <mxCell id="udwKPdp13qZEXDaH-4BK-233" value="" style="rounded=0;whiteSpace=wrap;html=1;fillColor=#000000;" vertex="1" parent="1">
          <mxGeometry x="365" y="1097" width="20" height="90" as="geometry" />
        </mxCell>
        <mxCell id="udwKPdp13qZEXDaH-4BK-234" style="edgeStyle=orthogonalEdgeStyle;rounded=0;orthogonalLoop=1;jettySize=auto;html=1;entryX=0;entryY=0.5;entryDx=0;entryDy=0;" edge="1" parent="1" source="udwKPdp13qZEXDaH-4BK-235" target="udwKPdp13qZEXDaH-4BK-237">
          <mxGeometry relative="1" as="geometry" />
        </mxCell>
        <mxCell id="udwKPdp13qZEXDaH-4BK-235" value="" style="ellipse;whiteSpace=wrap;html=1;aspect=fixed;" vertex="1" parent="1">
          <mxGeometry x="440" y="1112" width="60" height="60" as="geometry" />
        </mxCell>
        <mxCell id="udwKPdp13qZEXDaH-4BK-236" style="edgeStyle=orthogonalEdgeStyle;rounded=0;orthogonalLoop=1;jettySize=auto;html=1;entryX=0;entryY=0.5;entryDx=0;entryDy=0;" edge="1" parent="1" source="udwKPdp13qZEXDaH-4BK-237" target="udwKPdp13qZEXDaH-4BK-238">
          <mxGeometry relative="1" as="geometry" />
        </mxCell>
        <mxCell id="udwKPdp13qZEXDaH-4BK-237" value="" style="rounded=0;whiteSpace=wrap;html=1;fillColor=#000000;" vertex="1" parent="1">
          <mxGeometry x="565" y="1097" width="20" height="90" as="geometry" />
        </mxCell>
        <mxCell id="udwKPdp13qZEXDaH-4BK-238" value="" style="ellipse;whiteSpace=wrap;html=1;aspect=fixed;" vertex="1" parent="1">
          <mxGeometry x="640" y="1112" width="60" height="60" as="geometry" />
        </mxCell>
        <mxCell id="udwKPdp13qZEXDaH-4BK-239" style="edgeStyle=orthogonalEdgeStyle;rounded=0;orthogonalLoop=1;jettySize=auto;html=1;entryX=-0.097;entryY=0.247;entryDx=0;entryDy=0;entryPerimeter=0;" edge="1" parent="1" source="udwKPdp13qZEXDaH-4BK-210" target="udwKPdp13qZEXDaH-4BK-224">
          <mxGeometry relative="1" as="geometry" />
        </mxCell>
        <mxCell id="udwKPdp13qZEXDaH-4BK-240" value="Main Storage&amp;nbsp;&lt;div&gt;for Products&lt;/div&gt;" style="text;html=1;align=center;verticalAlign=middle;resizable=0;points=[];autosize=1;strokeColor=none;fillColor=none;" vertex="1" parent="1">
          <mxGeometry x="-725" y="1072" width="100" height="40" as="geometry" />
        </mxCell>
        <mxCell id="udwKPdp13qZEXDaH-4BK-241" value="Transport to&amp;nbsp;&lt;div&gt;Commissioning&lt;/div&gt;" style="text;html=1;align=center;verticalAlign=middle;resizable=0;points=[];autosize=1;strokeColor=none;fillColor=none;" vertex="1" parent="1">
          <mxGeometry x="-635" y="1057" width="110" height="40" as="geometry" />
        </mxCell>
        <mxCell id="udwKPdp13qZEXDaH-4BK-242" value="Commissioning" style="text;html=1;align=center;verticalAlign=middle;resizable=0;points=[];autosize=1;strokeColor=none;fillColor=none;" vertex="1" parent="1">
          <mxGeometry x="-540" y="1082" width="110" height="30" as="geometry" />
        </mxCell>
        <mxCell id="udwKPdp13qZEXDaH-4BK-243" value="Transport to&amp;nbsp;&lt;div&gt;Powder coating&lt;/div&gt;" style="text;html=1;align=center;verticalAlign=middle;resizable=0;points=[];autosize=1;strokeColor=none;fillColor=none;" vertex="1" parent="1">
          <mxGeometry x="-440" y="1057" width="110" height="40" as="geometry" />
        </mxCell>
        <mxCell id="udwKPdp13qZEXDaH-4BK-244" value="Powder Coating" style="text;html=1;align=center;verticalAlign=middle;resizable=0;points=[];autosize=1;strokeColor=none;fillColor=none;" vertex="1" parent="1">
          <mxGeometry x="-345" y="1082" width="110" height="30" as="geometry" />
        </mxCell>
        <mxCell id="udwKPdp13qZEXDaH-4BK-245" value="Transport to oven" style="text;html=1;align=center;verticalAlign=middle;resizable=0;points=[];autosize=1;strokeColor=none;fillColor=none;" vertex="1" parent="1">
          <mxGeometry x="-255" y="977" width="120" height="30" as="geometry" />
        </mxCell>
        <mxCell id="udwKPdp13qZEXDaH-4BK-246" value="Transport to oven" style="text;html=1;align=center;verticalAlign=middle;resizable=0;points=[];autosize=1;strokeColor=none;fillColor=none;" vertex="1" parent="1">
          <mxGeometry x="-255" y="1157" width="120" height="30" as="geometry" />
        </mxCell>
        <mxCell id="udwKPdp13qZEXDaH-4BK-247" value="Oven 2" style="text;html=1;align=center;verticalAlign=middle;resizable=0;points=[];autosize=1;strokeColor=none;fillColor=none;" vertex="1" parent="1">
          <mxGeometry x="-130" y="1172" width="60" height="30" as="geometry" />
        </mxCell>
        <mxCell id="udwKPdp13qZEXDaH-4BK-248" value="Oven 1" style="text;html=1;align=center;verticalAlign=middle;resizable=0;points=[];autosize=1;strokeColor=none;fillColor=none;" vertex="1" parent="1">
          <mxGeometry x="-130" y="992" width="60" height="30" as="geometry" />
        </mxCell>
        <mxCell id="udwKPdp13qZEXDaH-4BK-249" value="Oven Process" style="text;html=1;align=center;verticalAlign=middle;resizable=0;points=[];autosize=1;strokeColor=none;fillColor=none;" vertex="1" parent="1">
          <mxGeometry x="-35" y="977" width="100" height="30" as="geometry" />
        </mxCell>
        <mxCell id="udwKPdp13qZEXDaH-4BK-250" value="Oven Process" style="text;html=1;align=center;verticalAlign=middle;resizable=0;points=[];autosize=1;strokeColor=none;fillColor=none;" vertex="1" parent="1">
          <mxGeometry x="-35" y="1157" width="100" height="30" as="geometry" />
        </mxCell>
        <mxCell id="udwKPdp13qZEXDaH-4BK-251" value="Montage" style="text;html=1;align=center;verticalAlign=middle;resizable=0;points=[];autosize=1;strokeColor=none;fillColor=none;" vertex="1" parent="1">
          <mxGeometry x="5" y="1127" width="70" height="30" as="geometry" />
        </mxCell>
        <mxCell id="udwKPdp13qZEXDaH-4BK-252" value="Order to manufacture base" style="text;html=1;align=center;verticalAlign=middle;resizable=0;points=[];autosize=1;strokeColor=none;fillColor=none;" vertex="1" parent="1">
          <mxGeometry x="107" y="621" width="170" height="30" as="geometry" />
        </mxCell>
        <mxCell id="udwKPdp13qZEXDaH-4BK-253" value="Storage of&amp;nbsp;&lt;div&gt;bases&lt;/div&gt;" style="text;html=1;align=center;verticalAlign=middle;resizable=0;points=[];autosize=1;strokeColor=none;fillColor=none;" vertex="1" parent="1">
          <mxGeometry x="-5" y="868" width="80" height="40" as="geometry" />
        </mxCell>
        <mxCell id="udwKPdp13qZEXDaH-4BK-254" value="Transport&amp;nbsp;&lt;span style=&quot;background-color: initial;&quot;&gt;of&amp;nbsp;&lt;/span&gt;&lt;div&gt;&lt;span style=&quot;background-color: initial;&quot;&gt;bases&lt;/span&gt;&lt;/div&gt;" style="text;html=1;align=center;verticalAlign=middle;resizable=0;points=[];autosize=1;strokeColor=none;fillColor=none;" vertex="1" parent="1">
          <mxGeometry x="139" y="963" width="90" height="40" as="geometry" />
        </mxCell>
        <mxCell id="udwKPdp13qZEXDaH-4BK-255" value="Product Order&lt;div&gt;&amp;nbsp;request&lt;/div&gt;" style="text;html=1;align=center;verticalAlign=middle;resizable=0;points=[];autosize=1;strokeColor=none;fillColor=none;" vertex="1" parent="1">
          <mxGeometry x="142" y="787" width="100" height="40" as="geometry" />
        </mxCell>
        <mxCell id="udwKPdp13qZEXDaH-4BK-256" value="Electrical Function Mounting" style="text;html=1;align=center;verticalAlign=middle;resizable=0;points=[];autosize=1;strokeColor=none;fillColor=none;" vertex="1" parent="1">
          <mxGeometry x="325" y="967" width="170" height="30" as="geometry" />
        </mxCell>
        <mxCell id="udwKPdp13qZEXDaH-4BK-257" value="Electrical Function Order" style="text;html=1;align=center;verticalAlign=middle;resizable=0;points=[];autosize=1;strokeColor=none;fillColor=none;" vertex="1" parent="1">
          <mxGeometry x="305" y="868" width="160" height="30" as="geometry" />
        </mxCell>
        <mxCell id="udwKPdp13qZEXDaH-4BK-258" value="Eletrical Function&lt;div&gt;&amp;nbsp;Verification&lt;/div&gt;" style="text;html=1;align=center;verticalAlign=middle;resizable=0;points=[];autosize=1;strokeColor=none;fillColor=none;" vertex="1" parent="1">
          <mxGeometry x="220" y="1178" width="120" height="40" as="geometry" />
        </mxCell>
        <mxCell id="udwKPdp13qZEXDaH-4BK-259" value="Mounting mechanical parts" style="text;html=1;align=center;verticalAlign=middle;resizable=0;points=[];autosize=1;strokeColor=none;fillColor=none;" vertex="1" parent="1">
          <mxGeometry x="100" y="1067" width="170" height="30" as="geometry" />
        </mxCell>
        <mxCell id="udwKPdp13qZEXDaH-4BK-260" value="Mouting all parts" style="text;html=1;align=center;verticalAlign=middle;resizable=0;points=[];autosize=1;strokeColor=none;fillColor=none;" vertex="1" parent="1">
          <mxGeometry x="320" y="1067" width="110" height="30" as="geometry" />
        </mxCell>
        <mxCell id="udwKPdp13qZEXDaH-4BK-261" value="Packaging" style="text;html=1;align=center;verticalAlign=middle;resizable=0;points=[];autosize=1;strokeColor=none;fillColor=none;" vertex="1" parent="1">
          <mxGeometry x="430" y="1082" width="80" height="30" as="geometry" />
        </mxCell>
        <mxCell id="udwKPdp13qZEXDaH-4BK-262" value="Final Delivery" style="text;html=1;align=center;verticalAlign=middle;resizable=0;points=[];autosize=1;strokeColor=none;fillColor=none;" vertex="1" parent="1">
          <mxGeometry x="525" y="1067" width="100" height="30" as="geometry" />
        </mxCell>
        <mxCell id="udwKPdp13qZEXDaH-4BK-263" value="Client" style="text;html=1;align=center;verticalAlign=middle;resizable=0;points=[];autosize=1;strokeColor=none;fillColor=none;" vertex="1" parent="1">
          <mxGeometry x="645" y="1082" width="50" height="30" as="geometry" />
        </mxCell>
        <mxCell id="udwKPdp13qZEXDaH-4BK-264" value="" style="shape=cylinder3;whiteSpace=wrap;html=1;boundedLbl=1;backgroundOutline=1;size=3.3333333333332575;" vertex="1" parent="1">
          <mxGeometry x="-665" y="1157" width="20" height="30" as="geometry" />
        </mxCell>
        <mxCell id="udwKPdp13qZEXDaH-4BK-265" value="" style="shape=cylinder3;whiteSpace=wrap;html=1;boundedLbl=1;backgroundOutline=1;size=3.3333333333332575;" vertex="1" parent="1">
          <mxGeometry x="107" y="898" width="20" height="30" as="geometry" />
        </mxCell>
        <mxCell id="udwKPdp13qZEXDaH-4BK-266" value="P.T." style="text;html=1;align=center;verticalAlign=middle;resizable=0;points=[];autosize=1;strokeColor=none;fillColor=none;" vertex="1" parent="1">
          <mxGeometry x="-600" y="1187" width="40" height="30" as="geometry" />
        </mxCell>
        <mxCell id="udwKPdp13qZEXDaH-4BK-267" value="P.T." style="text;html=1;align=center;verticalAlign=middle;resizable=0;points=[];autosize=1;strokeColor=none;fillColor=none;" vertex="1" parent="1">
          <mxGeometry x="-405" y="1187" width="40" height="30" as="geometry" />
        </mxCell>
        <mxCell id="udwKPdp13qZEXDaH-4BK-268" value="P.T." style="text;html=1;align=center;verticalAlign=middle;resizable=0;points=[];autosize=1;strokeColor=none;fillColor=none;" vertex="1" parent="1">
          <mxGeometry x="-215" y="1277" width="40" height="30" as="geometry" />
        </mxCell>
        <mxCell id="udwKPdp13qZEXDaH-4BK-269" value="P.T." style="text;html=1;align=center;verticalAlign=middle;resizable=0;points=[];autosize=1;strokeColor=none;fillColor=none;" vertex="1" parent="1">
          <mxGeometry x="-215" y="1097" width="40" height="30" as="geometry" />
        </mxCell>
        <mxCell id="udwKPdp13qZEXDaH-4BK-270" value="P.T." style="text;html=1;align=center;verticalAlign=middle;resizable=0;points=[];autosize=1;strokeColor=none;fillColor=none;" vertex="1" parent="1">
          <mxGeometry x="-5" y="1277" width="40" height="30" as="geometry" />
        </mxCell>
        <mxCell id="udwKPdp13qZEXDaH-4BK-271" value="P.T." style="text;html=1;align=center;verticalAlign=middle;resizable=0;points=[];autosize=1;strokeColor=none;fillColor=none;" vertex="1" parent="1">
          <mxGeometry x="-5" y="1097" width="40" height="30" as="geometry" />
        </mxCell>
        <mxCell id="udwKPdp13qZEXDaH-4BK-272" value="P.T." style="text;html=1;align=center;verticalAlign=middle;resizable=0;points=[];autosize=1;strokeColor=none;fillColor=none;" vertex="1" parent="1">
          <mxGeometry x="165" y="1186" width="40" height="30" as="geometry" />
        </mxCell>
        <mxCell id="udwKPdp13qZEXDaH-4BK-273" value="P.T." style="text;html=1;align=center;verticalAlign=middle;resizable=0;points=[];autosize=1;strokeColor=none;fillColor=none;" vertex="1" parent="1">
          <mxGeometry x="355" y="1187" width="40" height="30" as="geometry" />
        </mxCell>
        <mxCell id="udwKPdp13qZEXDaH-4BK-274" value="P.T." style="text;html=1;align=center;verticalAlign=middle;resizable=0;points=[];autosize=1;strokeColor=none;fillColor=none;" vertex="1" parent="1">
          <mxGeometry x="555" y="1186" width="40" height="30" as="geometry" />
        </mxCell>
        <mxCell id="udwKPdp13qZEXDaH-4BK-275" value="R.T." style="text;html=1;align=center;verticalAlign=middle;resizable=0;points=[];autosize=1;strokeColor=none;fillColor=none;" vertex="1" parent="1">
          <mxGeometry x="-725" y="1162" width="40" height="30" as="geometry" />
        </mxCell>
        <mxCell id="udwKPdp13qZEXDaH-4BK-276" value="R.T." style="text;html=1;align=center;verticalAlign=middle;resizable=0;points=[];autosize=1;strokeColor=none;fillColor=none;" vertex="1" parent="1">
          <mxGeometry x="-480" y="1162" width="40" height="30" as="geometry" />
        </mxCell>
        <mxCell id="udwKPdp13qZEXDaH-4BK-277" value="R.T." style="text;html=1;align=center;verticalAlign=middle;resizable=0;points=[];autosize=1;strokeColor=none;fillColor=none;" vertex="1" parent="1">
          <mxGeometry x="-335" y="1162" width="40" height="30" as="geometry" />
        </mxCell>
        <mxCell id="udwKPdp13qZEXDaH-4BK-278" value="R.T." style="text;html=1;align=center;verticalAlign=middle;resizable=0;points=[];autosize=1;strokeColor=none;fillColor=none;" vertex="1" parent="1">
          <mxGeometry x="-85" y="1247" width="40" height="30" as="geometry" />
        </mxCell>
        <mxCell id="udwKPdp13qZEXDaH-4BK-279" value="R.T." style="text;html=1;align=center;verticalAlign=middle;resizable=0;points=[];autosize=1;strokeColor=none;fillColor=none;" vertex="1" parent="1">
          <mxGeometry x="-85" y="1062" width="40" height="30" as="geometry" />
        </mxCell>
        <mxCell id="udwKPdp13qZEXDaH-4BK-280" value="R.T." style="text;html=1;align=center;verticalAlign=middle;resizable=0;points=[];autosize=1;strokeColor=none;fillColor=none;" vertex="1" parent="1">
          <mxGeometry x="105" y="1162" width="40" height="30" as="geometry" />
        </mxCell>
        <mxCell id="udwKPdp13qZEXDaH-4BK-281" value="R.T." style="text;html=1;align=center;verticalAlign=middle;resizable=0;points=[];autosize=1;strokeColor=none;fillColor=none;" vertex="1" parent="1">
          <mxGeometry x="290" y="1156" width="40" height="30" as="geometry" />
        </mxCell>
        <mxCell id="udwKPdp13qZEXDaH-4BK-282" value="R.T." style="text;html=1;align=center;verticalAlign=middle;resizable=0;points=[];autosize=1;strokeColor=none;fillColor=none;" vertex="1" parent="1">
          <mxGeometry x="470" y="1162" width="40" height="30" as="geometry" />
        </mxCell>
        <mxCell id="udwKPdp13qZEXDaH-4BK-283" value="R.T." style="text;html=1;align=center;verticalAlign=middle;resizable=0;points=[];autosize=1;strokeColor=none;fillColor=none;" vertex="1" parent="1">
          <mxGeometry x="122" y="897.5" width="40" height="30" as="geometry" />
        </mxCell>
        <mxCell id="udwKPdp13qZEXDaH-4BK-284" value="P.T." style="text;html=1;align=center;verticalAlign=middle;resizable=0;points=[];autosize=1;strokeColor=none;fillColor=none;" vertex="1" parent="1">
          <mxGeometry x="112" y="988" width="40" height="30" as="geometry" />
        </mxCell>
        <mxCell id="udwKPdp13qZEXDaH-4BK-285" value="P.T." style="text;html=1;align=center;verticalAlign=middle;resizable=0;points=[];autosize=1;strokeColor=none;fillColor=none;" vertex="1" parent="1">
          <mxGeometry x="285" y="992" width="40" height="30" as="geometry" />
        </mxCell>
        <mxCell id="udwKPdp13qZEXDaH-4BK-287" style="edgeStyle=orthogonalEdgeStyle;rounded=0;orthogonalLoop=1;jettySize=auto;html=1;exitX=1;exitY=0.5;exitDx=0;exitDy=0;" edge="1" parent="1" source="udwKPdp13qZEXDaH-4BK-288" target="udwKPdp13qZEXDaH-4BK-214">
          <mxGeometry relative="1" as="geometry">
            <Array as="points">
              <mxPoint x="-72" y="952" />
              <mxPoint x="85" y="952" />
            </Array>
          </mxGeometry>
        </mxCell>
        <mxCell id="udwKPdp13qZEXDaH-4BK-288" value="" style="rounded=0;whiteSpace=wrap;html=1;fillColor=#000000;rotation=-90;" vertex="1" parent="1">
          <mxGeometry x="-82.5" y="863.5" width="20" height="90" as="geometry" />
        </mxCell>
        <mxCell id="udwKPdp13qZEXDaH-4BK-289" value="" style="edgeStyle=orthogonalEdgeStyle;rounded=0;orthogonalLoop=1;jettySize=auto;html=1;" edge="1" parent="1" source="udwKPdp13qZEXDaH-4BK-290" target="udwKPdp13qZEXDaH-4BK-288">
          <mxGeometry relative="1" as="geometry" />
        </mxCell>
        <mxCell id="udwKPdp13qZEXDaH-4BK-290" value="" style="ellipse;whiteSpace=wrap;html=1;aspect=fixed;" vertex="1" parent="1">
          <mxGeometry x="-102.5" y="745" width="60" height="60" as="geometry" />
        </mxCell>
        <mxCell id="udwKPdp13qZEXDaH-4BK-291" value="3D Printer" style="text;html=1;align=center;verticalAlign=middle;resizable=0;points=[];autosize=1;strokeColor=none;fillColor=none;" vertex="1" parent="1">
          <mxGeometry x="-185" y="763" width="80" height="30" as="geometry" />
        </mxCell>
        <mxCell id="udwKPdp13qZEXDaH-4BK-292" value="3D Printing" style="text;html=1;align=center;verticalAlign=middle;resizable=0;points=[];autosize=1;strokeColor=none;fillColor=none;" vertex="1" parent="1">
          <mxGeometry x="-195" y="893.5" width="80" height="30" as="geometry" />
        </mxCell>
        <mxCell id="udwKPdp13qZEXDaH-4BK-293" value="R.T." style="text;html=1;align=center;verticalAlign=middle;resizable=0;points=[];autosize=1;strokeColor=none;fillColor=none;" vertex="1" parent="1">
          <mxGeometry x="-67.5" y="927.5" width="40" height="30" as="geometry" />
        </mxCell>
        <mxCell id="udwKPdp13qZEXDaH-4BK-294" value="P.T." style="text;html=1;align=center;verticalAlign=middle;resizable=0;points=[];autosize=1;strokeColor=none;fillColor=none;" vertex="1" parent="1">
          <mxGeometry x="-35" y="893.5" width="40" height="30" as="geometry" />
        </mxCell>
        <mxCell id="udwKPdp13qZEXDaH-4BK-296" value="input" style="triangle;whiteSpace=wrap;html=1;direction=south;fillColor=#d5e8d4;strokeColor=#82b366;" vertex="1" parent="1">
          <mxGeometry x="-725" y="978" width="80" height="60" as="geometry" />
        </mxCell>
        <mxCell id="udwKPdp13qZEXDaH-4BK-297" value="Material Flux with available pieces in&amp;nbsp;&lt;span style=&quot;background-color: initial;&quot;&gt;Storage&lt;/span&gt;" style="text;html=1;align=center;verticalAlign=middle;resizable=0;points=[];autosize=1;strokeColor=none;fillColor=none;" vertex="1" parent="1">
          <mxGeometry x="-710" y="937" width="260" height="30" as="geometry" />
        </mxCell>
        <mxCell id="udwKPdp13qZEXDaH-4BK-390" style="edgeStyle=orthogonalEdgeStyle;rounded=0;orthogonalLoop=1;jettySize=auto;html=1;exitX=1;exitY=0.5;exitDx=0;exitDy=0;entryX=0;entryY=0.5;entryDx=0;entryDy=0;" edge="1" parent="1" source="udwKPdp13qZEXDaH-4BK-299" target="udwKPdp13qZEXDaH-4BK-376">
          <mxGeometry relative="1" as="geometry" />
        </mxCell>
        <mxCell id="udwKPdp13qZEXDaH-4BK-299" value="" style="ellipse;whiteSpace=wrap;html=1;aspect=fixed;" vertex="1" parent="1">
          <mxGeometry x="2043" y="230" width="60" height="60" as="geometry" />
        </mxCell>
        <mxCell id="udwKPdp13qZEXDaH-4BK-391" style="edgeStyle=orthogonalEdgeStyle;rounded=0;orthogonalLoop=1;jettySize=auto;html=1;entryX=0;entryY=0.5;entryDx=0;entryDy=0;" edge="1" parent="1" source="udwKPdp13qZEXDaH-4BK-300" target="udwKPdp13qZEXDaH-4BK-376">
          <mxGeometry relative="1" as="geometry" />
        </mxCell>
        <mxCell id="udwKPdp13qZEXDaH-4BK-300" value="" style="ellipse;whiteSpace=wrap;html=1;aspect=fixed;" vertex="1" parent="1">
          <mxGeometry x="2043" y="106" width="60" height="60" as="geometry" />
        </mxCell>
        <mxCell id="udwKPdp13qZEXDaH-4BK-389" style="edgeStyle=orthogonalEdgeStyle;rounded=0;orthogonalLoop=1;jettySize=auto;html=1;entryX=0;entryY=0.5;entryDx=0;entryDy=0;" edge="1" parent="1" source="udwKPdp13qZEXDaH-4BK-301" target="udwKPdp13qZEXDaH-4BK-376">
          <mxGeometry relative="1" as="geometry">
            <mxPoint x="2233" y="407" as="targetPoint" />
          </mxGeometry>
        </mxCell>
        <mxCell id="udwKPdp13qZEXDaH-4BK-301" value="" style="ellipse;whiteSpace=wrap;html=1;aspect=fixed;" vertex="1" parent="1">
          <mxGeometry x="2043" y="350" width="60" height="60" as="geometry" />
        </mxCell>
        <mxCell id="udwKPdp13qZEXDaH-4BK-387" style="edgeStyle=orthogonalEdgeStyle;rounded=0;orthogonalLoop=1;jettySize=auto;html=1;entryX=0;entryY=0.5;entryDx=0;entryDy=0;" edge="1" parent="1" source="udwKPdp13qZEXDaH-4BK-302" target="udwKPdp13qZEXDaH-4BK-376">
          <mxGeometry relative="1" as="geometry" />
        </mxCell>
        <mxCell id="udwKPdp13qZEXDaH-4BK-302" value="" style="ellipse;whiteSpace=wrap;html=1;aspect=fixed;" vertex="1" parent="1">
          <mxGeometry x="2043" y="594" width="60" height="60" as="geometry" />
        </mxCell>
        <mxCell id="udwKPdp13qZEXDaH-4BK-388" style="edgeStyle=orthogonalEdgeStyle;rounded=0;orthogonalLoop=1;jettySize=auto;html=1;entryX=0;entryY=0.5;entryDx=0;entryDy=0;" edge="1" parent="1" source="udwKPdp13qZEXDaH-4BK-303" target="udwKPdp13qZEXDaH-4BK-376">
          <mxGeometry relative="1" as="geometry" />
        </mxCell>
        <mxCell id="udwKPdp13qZEXDaH-4BK-303" value="" style="ellipse;whiteSpace=wrap;html=1;aspect=fixed;" vertex="1" parent="1">
          <mxGeometry x="2043" y="470" width="60" height="60" as="geometry" />
        </mxCell>
        <mxCell id="udwKPdp13qZEXDaH-4BK-385" style="edgeStyle=orthogonalEdgeStyle;rounded=0;orthogonalLoop=1;jettySize=auto;html=1;entryX=0;entryY=0.5;entryDx=0;entryDy=0;" edge="1" parent="1" source="udwKPdp13qZEXDaH-4BK-304" target="udwKPdp13qZEXDaH-4BK-376">
          <mxGeometry relative="1" as="geometry" />
        </mxCell>
        <mxCell id="udwKPdp13qZEXDaH-4BK-304" value="" style="ellipse;whiteSpace=wrap;html=1;aspect=fixed;" vertex="1" parent="1">
          <mxGeometry x="2043" y="714" width="60" height="60" as="geometry" />
        </mxCell>
        <mxCell id="udwKPdp13qZEXDaH-4BK-305" value="Product A" style="text;html=1;align=center;verticalAlign=middle;resizable=0;points=[];autosize=1;strokeColor=none;fillColor=none;" vertex="1" parent="1">
          <mxGeometry x="2033" y="65" width="80" height="30" as="geometry" />
        </mxCell>
        <mxCell id="udwKPdp13qZEXDaH-4BK-306" value="Product B" style="text;html=1;align=center;verticalAlign=middle;resizable=0;points=[];autosize=1;strokeColor=none;fillColor=none;" vertex="1" parent="1">
          <mxGeometry x="2033" y="200" width="80" height="30" as="geometry" />
        </mxCell>
        <mxCell id="udwKPdp13qZEXDaH-4BK-307" value="Product C" style="text;html=1;align=center;verticalAlign=middle;resizable=0;points=[];autosize=1;strokeColor=none;fillColor=none;" vertex="1" parent="1">
          <mxGeometry x="2033" y="320" width="80" height="30" as="geometry" />
        </mxCell>
        <mxCell id="udwKPdp13qZEXDaH-4BK-308" value="Product D" style="text;html=1;align=center;verticalAlign=middle;resizable=0;points=[];autosize=1;strokeColor=none;fillColor=none;" vertex="1" parent="1">
          <mxGeometry x="2033" y="440" width="80" height="30" as="geometry" />
        </mxCell>
        <mxCell id="udwKPdp13qZEXDaH-4BK-309" value="Product E" style="text;html=1;align=center;verticalAlign=middle;resizable=0;points=[];autosize=1;strokeColor=none;fillColor=none;" vertex="1" parent="1">
          <mxGeometry x="2033" y="564" width="80" height="30" as="geometry" />
        </mxCell>
        <mxCell id="udwKPdp13qZEXDaH-4BK-310" value="Product F" style="text;html=1;align=center;verticalAlign=middle;resizable=0;points=[];autosize=1;strokeColor=none;fillColor=none;" vertex="1" parent="1">
          <mxGeometry x="2033" y="684" width="80" height="30" as="geometry" />
        </mxCell>
        <mxCell id="udwKPdp13qZEXDaH-4BK-339" style="edgeStyle=orthogonalEdgeStyle;rounded=0;orthogonalLoop=1;jettySize=auto;html=1;entryX=0;entryY=0.5;entryDx=0;entryDy=0;" edge="1" parent="1" source="udwKPdp13qZEXDaH-4BK-311" target="udwKPdp13qZEXDaH-4BK-329">
          <mxGeometry relative="1" as="geometry" />
        </mxCell>
        <mxCell id="udwKPdp13qZEXDaH-4BK-377" style="edgeStyle=orthogonalEdgeStyle;rounded=0;orthogonalLoop=1;jettySize=auto;html=1;exitX=0.5;exitY=0;exitDx=0;exitDy=0;entryX=0;entryY=0.5;entryDx=0;entryDy=0;" edge="1" parent="1" source="udwKPdp13qZEXDaH-4BK-311" target="udwKPdp13qZEXDaH-4BK-375">
          <mxGeometry relative="1" as="geometry" />
        </mxCell>
        <mxCell id="udwKPdp13qZEXDaH-4BK-311" value="" style="ellipse;whiteSpace=wrap;html=1;aspect=fixed;" vertex="1" parent="1">
          <mxGeometry x="1696" y="869" width="60" height="60" as="geometry" />
        </mxCell>
        <mxCell id="udwKPdp13qZEXDaH-4BK-312" value="Laser Machine &amp;amp;&lt;div&gt;&amp;nbsp;Storage for products&lt;/div&gt;" style="text;html=1;align=center;verticalAlign=middle;resizable=0;points=[];autosize=1;strokeColor=none;fillColor=none;" vertex="1" parent="1">
          <mxGeometry x="1656" y="940" width="140" height="40" as="geometry" />
        </mxCell>
        <mxCell id="udwKPdp13qZEXDaH-4BK-313" value="" style="shape=cylinder3;whiteSpace=wrap;html=1;boundedLbl=1;backgroundOutline=1;size=3.3333333333332575;" vertex="1" parent="1">
          <mxGeometry x="1733" y="907" width="20" height="30" as="geometry" />
        </mxCell>
        <mxCell id="udwKPdp13qZEXDaH-4BK-354" style="edgeStyle=orthogonalEdgeStyle;rounded=0;orthogonalLoop=1;jettySize=auto;html=1;exitX=1;exitY=0.5;exitDx=0;exitDy=0;entryX=0;entryY=0.5;entryDx=0;entryDy=0;" edge="1" parent="1" source="udwKPdp13qZEXDaH-4BK-314" target="udwKPdp13qZEXDaH-4BK-348">
          <mxGeometry relative="1" as="geometry" />
        </mxCell>
        <mxCell id="udwKPdp13qZEXDaH-4BK-355" style="edgeStyle=orthogonalEdgeStyle;rounded=0;orthogonalLoop=1;jettySize=auto;html=1;entryX=0;entryY=0.5;entryDx=0;entryDy=0;" edge="1" parent="1" source="udwKPdp13qZEXDaH-4BK-314" target="udwKPdp13qZEXDaH-4BK-353">
          <mxGeometry relative="1" as="geometry" />
        </mxCell>
        <mxCell id="udwKPdp13qZEXDaH-4BK-314" value="" style="ellipse;whiteSpace=wrap;html=1;aspect=fixed;" vertex="1" parent="1">
          <mxGeometry x="1410" y="1009" width="60" height="60" as="geometry" />
        </mxCell>
        <mxCell id="udwKPdp13qZEXDaH-4BK-315" value="Main Storage&amp;nbsp;&lt;div&gt;for Products&lt;/div&gt;" style="text;html=1;align=center;verticalAlign=middle;resizable=0;points=[];autosize=1;strokeColor=none;fillColor=none;" vertex="1" parent="1">
          <mxGeometry x="1390" y="1080" width="100" height="40" as="geometry" />
        </mxCell>
        <mxCell id="udwKPdp13qZEXDaH-4BK-316" value="" style="shape=cylinder3;whiteSpace=wrap;html=1;boundedLbl=1;backgroundOutline=1;size=3.3333333333332575;" vertex="1" parent="1">
          <mxGeometry x="1450" y="1054" width="20" height="30" as="geometry" />
        </mxCell>
        <mxCell id="udwKPdp13qZEXDaH-4BK-338" style="edgeStyle=orthogonalEdgeStyle;rounded=0;orthogonalLoop=1;jettySize=auto;html=1;entryX=0;entryY=0.5;entryDx=0;entryDy=0;" edge="1" parent="1" source="udwKPdp13qZEXDaH-4BK-318" target="udwKPdp13qZEXDaH-4BK-327">
          <mxGeometry relative="1" as="geometry">
            <mxPoint x="2063" y="1097" as="targetPoint" />
            <Array as="points">
              <mxPoint x="1833" y="1165" />
              <mxPoint x="1833" y="1100" />
            </Array>
          </mxGeometry>
        </mxCell>
        <mxCell id="udwKPdp13qZEXDaH-4BK-318" value="" style="ellipse;whiteSpace=wrap;html=1;aspect=fixed;" vertex="1" parent="1">
          <mxGeometry x="1553" y="1135" width="60" height="60" as="geometry" />
        </mxCell>
        <mxCell id="udwKPdp13qZEXDaH-4BK-319" value="Base manufactured or get from storage" style="text;html=1;align=center;verticalAlign=middle;resizable=0;points=[];autosize=1;strokeColor=none;fillColor=none;" vertex="1" parent="1">
          <mxGeometry x="1468" y="1105" width="230" height="30" as="geometry" />
        </mxCell>
        <mxCell id="udwKPdp13qZEXDaH-4BK-323" style="edgeStyle=orthogonalEdgeStyle;rounded=0;orthogonalLoop=1;jettySize=auto;html=1;entryX=0;entryY=0.5;entryDx=0;entryDy=0;" edge="1" parent="1" source="udwKPdp13qZEXDaH-4BK-320" target="udwKPdp13qZEXDaH-4BK-322">
          <mxGeometry relative="1" as="geometry" />
        </mxCell>
        <mxCell id="udwKPdp13qZEXDaH-4BK-343" style="edgeStyle=orthogonalEdgeStyle;rounded=0;orthogonalLoop=1;jettySize=auto;html=1;exitX=1;exitY=0.5;exitDx=0;exitDy=0;entryX=0;entryY=0.5;entryDx=0;entryDy=0;" edge="1" parent="1" source="udwKPdp13qZEXDaH-4BK-320" target="udwKPdp13qZEXDaH-4BK-342">
          <mxGeometry relative="1" as="geometry" />
        </mxCell>
        <mxCell id="udwKPdp13qZEXDaH-4BK-373" style="edgeStyle=orthogonalEdgeStyle;rounded=0;orthogonalLoop=1;jettySize=auto;html=1;entryX=0;entryY=0.5;entryDx=0;entryDy=0;" edge="1" parent="1" source="udwKPdp13qZEXDaH-4BK-320" target="udwKPdp13qZEXDaH-4BK-365">
          <mxGeometry relative="1" as="geometry">
            <Array as="points">
              <mxPoint x="1213" y="1091" />
              <mxPoint x="1213" y="1297" />
            </Array>
          </mxGeometry>
        </mxCell>
        <mxCell id="udwKPdp13qZEXDaH-4BK-320" value="" style="ellipse;whiteSpace=wrap;html=1;aspect=fixed;" vertex="1" parent="1">
          <mxGeometry x="1053" y="1061" width="60" height="60" as="geometry" />
        </mxCell>
        <mxCell id="udwKPdp13qZEXDaH-4BK-321" value="Order to manufacture" style="text;html=1;align=center;verticalAlign=middle;resizable=0;points=[];autosize=1;strokeColor=none;fillColor=none;" vertex="1" parent="1">
          <mxGeometry x="1013" y="1031" width="140" height="30" as="geometry" />
        </mxCell>
        <mxCell id="udwKPdp13qZEXDaH-4BK-324" style="edgeStyle=orthogonalEdgeStyle;rounded=0;orthogonalLoop=1;jettySize=auto;html=1;entryX=0;entryY=0.5;entryDx=0;entryDy=0;" edge="1" parent="1" source="udwKPdp13qZEXDaH-4BK-322" target="udwKPdp13qZEXDaH-4BK-314">
          <mxGeometry relative="1" as="geometry" />
        </mxCell>
        <mxCell id="udwKPdp13qZEXDaH-4BK-322" value="" style="rounded=0;whiteSpace=wrap;html=1;fillColor=#000000;" vertex="1" parent="1">
          <mxGeometry x="1315" y="994" width="20" height="90" as="geometry" />
        </mxCell>
        <mxCell id="udwKPdp13qZEXDaH-4BK-336" style="edgeStyle=orthogonalEdgeStyle;rounded=0;orthogonalLoop=1;jettySize=auto;html=1;entryX=0;entryY=0.5;entryDx=0;entryDy=0;" edge="1" parent="1" source="udwKPdp13qZEXDaH-4BK-327" target="udwKPdp13qZEXDaH-4BK-333">
          <mxGeometry relative="1" as="geometry" />
        </mxCell>
        <mxCell id="udwKPdp13qZEXDaH-4BK-327" value="" style="rounded=0;whiteSpace=wrap;html=1;fillColor=#000000;" vertex="1" parent="1">
          <mxGeometry x="1916" y="1055" width="20" height="90" as="geometry" />
        </mxCell>
        <mxCell id="udwKPdp13qZEXDaH-4BK-361" style="edgeStyle=orthogonalEdgeStyle;rounded=0;orthogonalLoop=1;jettySize=auto;html=1;entryX=0.5;entryY=0;entryDx=0;entryDy=0;" edge="1" parent="1" source="udwKPdp13qZEXDaH-4BK-329" target="udwKPdp13qZEXDaH-4BK-314">
          <mxGeometry relative="1" as="geometry">
            <Array as="points">
              <mxPoint x="1886" y="817" />
              <mxPoint x="1440" y="817" />
            </Array>
          </mxGeometry>
        </mxCell>
        <mxCell id="udwKPdp13qZEXDaH-4BK-329" value="" style="rounded=0;whiteSpace=wrap;html=1;fillColor=#000000;" vertex="1" parent="1">
          <mxGeometry x="1876" y="854" width="20" height="90" as="geometry" />
        </mxCell>
        <mxCell id="udwKPdp13qZEXDaH-4BK-372" style="edgeStyle=orthogonalEdgeStyle;rounded=0;orthogonalLoop=1;jettySize=auto;html=1;exitX=1;exitY=0.5;exitDx=0;exitDy=0;entryX=0;entryY=0.5;entryDx=0;entryDy=0;" edge="1" parent="1" source="udwKPdp13qZEXDaH-4BK-333" target="udwKPdp13qZEXDaH-4BK-369">
          <mxGeometry relative="1" as="geometry" />
        </mxCell>
        <mxCell id="udwKPdp13qZEXDaH-4BK-333" value="" style="ellipse;whiteSpace=wrap;html=1;aspect=fixed;" vertex="1" parent="1">
          <mxGeometry x="2063" y="1070" width="60" height="60" as="geometry" />
        </mxCell>
        <mxCell id="udwKPdp13qZEXDaH-4BK-334" value="Mounted base and products" style="text;html=1;align=center;verticalAlign=middle;resizable=0;points=[];autosize=1;strokeColor=none;fillColor=none;" vertex="1" parent="1">
          <mxGeometry x="2008" y="1040" width="170" height="30" as="geometry" />
        </mxCell>
        <mxCell id="udwKPdp13qZEXDaH-4BK-344" style="edgeStyle=orthogonalEdgeStyle;rounded=0;orthogonalLoop=1;jettySize=auto;html=1;" edge="1" parent="1" source="udwKPdp13qZEXDaH-4BK-342" target="udwKPdp13qZEXDaH-4BK-318">
          <mxGeometry relative="1" as="geometry" />
        </mxCell>
        <mxCell id="udwKPdp13qZEXDaH-4BK-342" value="" style="rounded=0;whiteSpace=wrap;html=1;fillColor=#000000;" vertex="1" parent="1">
          <mxGeometry x="1313" y="1120" width="20" height="90" as="geometry" />
        </mxCell>
        <mxCell id="udwKPdp13qZEXDaH-4BK-345" style="edgeStyle=orthogonalEdgeStyle;rounded=0;orthogonalLoop=1;jettySize=auto;html=1;exitX=0;exitY=0.5;exitDx=0;exitDy=0;entryX=1;entryY=0.5;entryDx=0;entryDy=0;" edge="1" parent="1" source="udwKPdp13qZEXDaH-4BK-342" target="udwKPdp13qZEXDaH-4BK-342">
          <mxGeometry relative="1" as="geometry">
            <Array as="points">
              <mxPoint x="1323" y="1165" />
              <mxPoint x="1323" y="1165" />
            </Array>
          </mxGeometry>
        </mxCell>
        <mxCell id="udwKPdp13qZEXDaH-4BK-359" style="edgeStyle=orthogonalEdgeStyle;rounded=0;orthogonalLoop=1;jettySize=auto;html=1;entryX=0;entryY=0.5;entryDx=0;entryDy=0;" edge="1" parent="1" source="udwKPdp13qZEXDaH-4BK-348" target="udwKPdp13qZEXDaH-4BK-349">
          <mxGeometry relative="1" as="geometry" />
        </mxCell>
        <mxCell id="udwKPdp13qZEXDaH-4BK-348" value="" style="rounded=0;whiteSpace=wrap;html=1;fillColor=#000000;" vertex="1" parent="1">
          <mxGeometry x="1573" y="994" width="20" height="90" as="geometry" />
        </mxCell>
        <mxCell id="udwKPdp13qZEXDaH-4BK-360" style="edgeStyle=orthogonalEdgeStyle;rounded=0;orthogonalLoop=1;jettySize=auto;html=1;entryX=0;entryY=0.5;entryDx=0;entryDy=0;" edge="1" parent="1" source="udwKPdp13qZEXDaH-4BK-349" target="udwKPdp13qZEXDaH-4BK-327">
          <mxGeometry relative="1" as="geometry">
            <Array as="points">
              <mxPoint x="1833" y="1040" />
              <mxPoint x="1833" y="1100" />
            </Array>
          </mxGeometry>
        </mxCell>
        <mxCell id="udwKPdp13qZEXDaH-4BK-349" value="" style="ellipse;whiteSpace=wrap;html=1;aspect=fixed;" vertex="1" parent="1">
          <mxGeometry x="1718" y="1009" width="60" height="60" as="geometry" />
        </mxCell>
        <mxCell id="udwKPdp13qZEXDaH-4BK-350" value="Production until mouting" style="text;html=1;align=center;verticalAlign=middle;resizable=0;points=[];autosize=1;strokeColor=none;fillColor=none;" vertex="1" parent="1">
          <mxGeometry x="1673" y="975" width="150" height="30" as="geometry" />
        </mxCell>
        <mxCell id="udwKPdp13qZEXDaH-4BK-356" style="edgeStyle=orthogonalEdgeStyle;rounded=0;orthogonalLoop=1;jettySize=auto;html=1;entryX=0;entryY=0.5;entryDx=0;entryDy=0;" edge="1" parent="1" source="udwKPdp13qZEXDaH-4BK-353" target="udwKPdp13qZEXDaH-4BK-311">
          <mxGeometry relative="1" as="geometry" />
        </mxCell>
        <mxCell id="udwKPdp13qZEXDaH-4BK-353" value="" style="rounded=0;whiteSpace=wrap;html=1;fillColor=#000000;" vertex="1" parent="1">
          <mxGeometry x="1573" y="854" width="20" height="90" as="geometry" />
        </mxCell>
        <mxCell id="udwKPdp13qZEXDaH-4BK-371" style="edgeStyle=orthogonalEdgeStyle;rounded=0;orthogonalLoop=1;jettySize=auto;html=1;" edge="1" parent="1" source="udwKPdp13qZEXDaH-4BK-362" target="udwKPdp13qZEXDaH-4BK-369">
          <mxGeometry relative="1" as="geometry" />
        </mxCell>
        <mxCell id="udwKPdp13qZEXDaH-4BK-362" value="" style="ellipse;whiteSpace=wrap;html=1;aspect=fixed;" vertex="1" parent="1">
          <mxGeometry x="1893" y="1267" width="60" height="60" as="geometry" />
        </mxCell>
        <mxCell id="udwKPdp13qZEXDaH-4BK-363" value="Electrical Part selected" style="text;html=1;align=center;verticalAlign=middle;resizable=0;points=[];autosize=1;strokeColor=none;fillColor=none;" vertex="1" parent="1">
          <mxGeometry x="1848" y="1237" width="150" height="30" as="geometry" />
        </mxCell>
        <mxCell id="udwKPdp13qZEXDaH-4BK-364" style="edgeStyle=orthogonalEdgeStyle;rounded=0;orthogonalLoop=1;jettySize=auto;html=1;" edge="1" parent="1" source="udwKPdp13qZEXDaH-4BK-365" target="udwKPdp13qZEXDaH-4BK-362">
          <mxGeometry relative="1" as="geometry" />
        </mxCell>
        <mxCell id="udwKPdp13qZEXDaH-4BK-365" value="" style="rounded=0;whiteSpace=wrap;html=1;fillColor=#000000;" vertex="1" parent="1">
          <mxGeometry x="1313" y="1252" width="20" height="90" as="geometry" />
        </mxCell>
        <mxCell id="udwKPdp13qZEXDaH-4BK-366" style="edgeStyle=orthogonalEdgeStyle;rounded=0;orthogonalLoop=1;jettySize=auto;html=1;exitX=0;exitY=0.5;exitDx=0;exitDy=0;entryX=1;entryY=0.5;entryDx=0;entryDy=0;" edge="1" parent="1" source="udwKPdp13qZEXDaH-4BK-365" target="udwKPdp13qZEXDaH-4BK-365">
          <mxGeometry relative="1" as="geometry">
            <Array as="points">
              <mxPoint x="1323" y="1297" />
              <mxPoint x="1323" y="1297" />
            </Array>
          </mxGeometry>
        </mxCell>
        <mxCell id="udwKPdp13qZEXDaH-4BK-368" style="edgeStyle=orthogonalEdgeStyle;rounded=0;orthogonalLoop=1;jettySize=auto;html=1;entryX=0;entryY=0.5;entryDx=0;entryDy=0;" edge="1" parent="1" source="udwKPdp13qZEXDaH-4BK-369" target="udwKPdp13qZEXDaH-4BK-370">
          <mxGeometry relative="1" as="geometry" />
        </mxCell>
        <mxCell id="udwKPdp13qZEXDaH-4BK-369" value="" style="rounded=0;whiteSpace=wrap;html=1;fillColor=#000000;" vertex="1" parent="1">
          <mxGeometry x="2253" y="1055" width="20" height="90" as="geometry" />
        </mxCell>
        <mxCell id="udwKPdp13qZEXDaH-4BK-370" value="" style="ellipse;whiteSpace=wrap;html=1;aspect=fixed;" vertex="1" parent="1">
          <mxGeometry x="2403" y="1070" width="60" height="60" as="geometry" />
        </mxCell>
        <mxCell id="udwKPdp13qZEXDaH-4BK-374" value="Final Product" style="text;html=1;align=center;verticalAlign=middle;resizable=0;points=[];autosize=1;strokeColor=none;fillColor=none;" vertex="1" parent="1">
          <mxGeometry x="2388" y="1041" width="90" height="30" as="geometry" />
        </mxCell>
        <mxCell id="udwKPdp13qZEXDaH-4BK-378" style="edgeStyle=orthogonalEdgeStyle;rounded=0;orthogonalLoop=1;jettySize=auto;html=1;exitX=1;exitY=0.5;exitDx=0;exitDy=0;entryX=0;entryY=0.5;entryDx=0;entryDy=0;" edge="1" parent="1" source="udwKPdp13qZEXDaH-4BK-375" target="udwKPdp13qZEXDaH-4BK-300">
          <mxGeometry relative="1" as="geometry" />
        </mxCell>
        <mxCell id="udwKPdp13qZEXDaH-4BK-379" style="edgeStyle=orthogonalEdgeStyle;rounded=0;orthogonalLoop=1;jettySize=auto;html=1;exitX=1;exitY=0.5;exitDx=0;exitDy=0;entryX=0;entryY=0.5;entryDx=0;entryDy=0;" edge="1" parent="1" source="udwKPdp13qZEXDaH-4BK-375" target="udwKPdp13qZEXDaH-4BK-299">
          <mxGeometry relative="1" as="geometry" />
        </mxCell>
        <mxCell id="udwKPdp13qZEXDaH-4BK-380" style="edgeStyle=orthogonalEdgeStyle;rounded=0;orthogonalLoop=1;jettySize=auto;html=1;exitX=1;exitY=0.5;exitDx=0;exitDy=0;entryX=0;entryY=0.5;entryDx=0;entryDy=0;" edge="1" parent="1" source="udwKPdp13qZEXDaH-4BK-375" target="udwKPdp13qZEXDaH-4BK-301">
          <mxGeometry relative="1" as="geometry" />
        </mxCell>
        <mxCell id="udwKPdp13qZEXDaH-4BK-381" style="edgeStyle=orthogonalEdgeStyle;rounded=0;orthogonalLoop=1;jettySize=auto;html=1;entryX=0;entryY=0.5;entryDx=0;entryDy=0;" edge="1" parent="1" source="udwKPdp13qZEXDaH-4BK-375" target="udwKPdp13qZEXDaH-4BK-303">
          <mxGeometry relative="1" as="geometry" />
        </mxCell>
        <mxCell id="udwKPdp13qZEXDaH-4BK-382" style="edgeStyle=orthogonalEdgeStyle;rounded=0;orthogonalLoop=1;jettySize=auto;html=1;exitX=1;exitY=0.5;exitDx=0;exitDy=0;entryX=0;entryY=0.5;entryDx=0;entryDy=0;" edge="1" parent="1" source="udwKPdp13qZEXDaH-4BK-375" target="udwKPdp13qZEXDaH-4BK-302">
          <mxGeometry relative="1" as="geometry" />
        </mxCell>
        <mxCell id="udwKPdp13qZEXDaH-4BK-383" style="edgeStyle=orthogonalEdgeStyle;rounded=0;orthogonalLoop=1;jettySize=auto;html=1;exitX=1;exitY=0.5;exitDx=0;exitDy=0;entryX=0;entryY=0.5;entryDx=0;entryDy=0;" edge="1" parent="1" source="udwKPdp13qZEXDaH-4BK-375" target="udwKPdp13qZEXDaH-4BK-304">
          <mxGeometry relative="1" as="geometry" />
        </mxCell>
        <mxCell id="udwKPdp13qZEXDaH-4BK-375" value="" style="rounded=0;whiteSpace=wrap;html=1;fillColor=#000000;" vertex="1" parent="1">
          <mxGeometry x="1876" y="424" width="20" height="90" as="geometry" />
        </mxCell>
        <mxCell id="udwKPdp13qZEXDaH-4BK-392" style="edgeStyle=orthogonalEdgeStyle;rounded=0;orthogonalLoop=1;jettySize=auto;html=1;entryX=0.5;entryY=0;entryDx=0;entryDy=0;" edge="1" parent="1" source="udwKPdp13qZEXDaH-4BK-376" target="udwKPdp13qZEXDaH-4BK-311">
          <mxGeometry relative="1" as="geometry">
            <Array as="points">
              <mxPoint x="2293" y="37" />
              <mxPoint x="1726" y="37" />
            </Array>
          </mxGeometry>
        </mxCell>
        <mxCell id="udwKPdp13qZEXDaH-4BK-376" value="" style="rounded=0;whiteSpace=wrap;html=1;fillColor=#000000;" vertex="1" parent="1">
          <mxGeometry x="2283" y="424" width="20" height="90" as="geometry" />
        </mxCell>
        <mxCell id="udwKPdp13qZEXDaH-4BK-393" value="Selecting 4 Products in Storage" style="text;html=1;align=center;verticalAlign=middle;resizable=0;points=[];autosize=1;strokeColor=none;fillColor=none;" vertex="1" parent="1">
          <mxGeometry x="1238" y="964" width="190" height="30" as="geometry" />
        </mxCell>
        <mxCell id="udwKPdp13qZEXDaH-4BK-394" value="Manufacturing base" style="text;html=1;align=center;verticalAlign=middle;resizable=0;points=[];autosize=1;strokeColor=none;fillColor=none;" vertex="1" parent="1">
          <mxGeometry x="1258" y="1089" width="130" height="30" as="geometry" />
        </mxCell>
        <mxCell id="udwKPdp13qZEXDaH-4BK-395" value="Mountig mechanical parts" style="text;html=1;align=center;verticalAlign=middle;resizable=0;points=[];autosize=1;strokeColor=none;fillColor=none;" vertex="1" parent="1">
          <mxGeometry x="1846" y="1024" width="160" height="30" as="geometry" />
        </mxCell>
        <mxCell id="udwKPdp13qZEXDaH-4BK-396" value="Selecting electrical part" style="text;html=1;align=center;verticalAlign=middle;resizable=0;points=[];autosize=1;strokeColor=none;fillColor=none;" vertex="1" parent="1">
          <mxGeometry x="1250" y="1222" width="150" height="30" as="geometry" />
        </mxCell>
        <mxCell id="udwKPdp13qZEXDaH-4BK-397" value="Mouting electrical and mechanical part" style="text;html=1;align=center;verticalAlign=middle;resizable=0;points=[];autosize=1;strokeColor=none;fillColor=none;" vertex="1" parent="1">
          <mxGeometry x="2148" y="1024" width="230" height="30" as="geometry" />
        </mxCell>
        <mxCell id="udwKPdp13qZEXDaH-4BK-398" value="If condition" style="text;html=1;align=center;verticalAlign=middle;resizable=0;points=[];autosize=1;strokeColor=none;fillColor=none;" vertex="1" parent="1">
          <mxGeometry x="1450" y="994" width="80" height="30" as="geometry" />
        </mxCell>
        <mxCell id="udwKPdp13qZEXDaH-4BK-399" value="No storage of manufactured products" style="text;html=1;align=center;verticalAlign=middle;resizable=0;points=[];autosize=1;strokeColor=none;fillColor=none;" vertex="1" parent="1">
          <mxGeometry x="1478" y="824" width="220" height="30" as="geometry" />
        </mxCell>
        <mxCell id="udwKPdp13qZEXDaH-4BK-400" value="if condition" style="text;html=1;align=center;verticalAlign=middle;resizable=0;points=[];autosize=1;strokeColor=none;fillColor=none;" vertex="1" parent="1">
          <mxGeometry x="1753" y="865" width="80" height="30" as="geometry" />
        </mxCell>
        <mxCell id="udwKPdp13qZEXDaH-4BK-401" value="Storage of&amp;nbsp;&lt;div&gt;manufactured&lt;div&gt;&amp;nbsp;products&lt;/div&gt;&lt;/div&gt;" style="text;html=1;align=center;verticalAlign=middle;resizable=0;points=[];autosize=1;strokeColor=none;fillColor=none;" vertex="1" parent="1">
          <mxGeometry x="1533" y="940" width="100" height="60" as="geometry" />
        </mxCell>
        <mxCell id="udwKPdp13qZEXDaH-4BK-402" value="Lasered Products" style="text;html=1;align=center;verticalAlign=middle;resizable=0;points=[];autosize=1;strokeColor=none;fillColor=none;" vertex="1" parent="1">
          <mxGeometry x="1833" y="945" width="120" height="30" as="geometry" />
        </mxCell>
        <mxCell id="udwKPdp13qZEXDaH-4BK-403" value="No lasered Products" style="text;html=1;align=center;verticalAlign=middle;resizable=0;points=[];autosize=1;strokeColor=none;fillColor=none;" vertex="1" parent="1">
          <mxGeometry x="1821" y="394" width="130" height="30" as="geometry" />
        </mxCell>
        <mxCell id="udwKPdp13qZEXDaH-4BK-404" value="Manufacturing Products" style="text;html=1;align=center;verticalAlign=middle;resizable=0;points=[];autosize=1;strokeColor=none;fillColor=none;" vertex="1" parent="1">
          <mxGeometry x="2218" y="514" width="150" height="30" as="geometry" />
        </mxCell>
        <mxCell id="udwKPdp13qZEXDaH-4BK-405" value="Information Flux" style="text;html=1;align=center;verticalAlign=middle;resizable=0;points=[];autosize=1;strokeColor=none;fillColor=none;" vertex="1" parent="1">
          <mxGeometry x="1018" y="950" width="110" height="30" as="geometry" />
        </mxCell>
        <mxCell id="udwKPdp13qZEXDaH-4BK-406" value="input" style="triangle;whiteSpace=wrap;html=1;direction=south;fillColor=#d5e8d4;strokeColor=#82b366;" vertex="1" parent="1">
          <mxGeometry x="1033" y="979" width="80" height="60" as="geometry" />
        </mxCell>
      </root>
    </mxGraphModel>
  </diagram>
</mxfile>
